<svg width="218" height="148" viewBox="0 0 218 148" fill="none" xmlns="http://www.w3.org/2000/svg">
<g filter="url(#filter0_i_871_289)">
<path fill-rule="evenodd" clip-rule="evenodd" d="M62.0374 105.021C44.6078 97.3175 37 85.9481 37 73.6427C37 58.502 52.3444 43.5448 77.7284 36.1494C90.0404 32.5623 104.506 31 121.126 31C172.013 31 218.941 46.448 216.938 73.6427C216.938 87.1364 208.253 99.5446 190.564 106.952C180.92 110.991 168.718 113.377 153.452 114.11C147.447 128.227 138.658 135.496 124.239 147C134.813 133.592 141.292 124.947 143.636 114.353C143.367 114.354 143.097 114.354 142.826 114.354C106.758 116.769 79.4802 112.731 62.0374 105.021Z" fill="#3DC3FF"/>
</g>
<path d="M62.0374 105.021L62.4416 104.107H62.4416L62.0374 105.021ZM77.7284 36.1494L77.4487 35.1893L77.7284 36.1494ZM216.938 73.6427L215.941 73.5693C215.939 73.5937 215.938 73.6182 215.938 73.6427H216.938ZM190.564 106.952L190.951 107.875L190.564 106.952ZM153.452 114.11L153.404 113.111C153.021 113.13 152.682 113.366 152.532 113.719L153.452 114.11ZM124.239 147L123.454 146.381C123.14 146.78 123.174 147.351 123.534 147.709C123.894 148.067 124.466 148.098 124.863 147.782L124.239 147ZM143.636 114.353L144.613 114.569C144.678 114.273 144.605 113.962 144.415 113.726C144.224 113.489 143.937 113.352 143.633 113.353L143.636 114.353ZM142.826 114.354V113.354C142.804 113.354 142.782 113.355 142.76 113.357L142.826 114.354ZM36 73.6427C36 86.4562 43.9565 98.123 61.6331 105.936L62.4416 104.107C45.259 96.512 38 85.44 38 73.6427H36ZM77.4487 35.1893C64.643 38.9201 54.3109 44.5743 47.1621 51.2613C40.0151 57.9466 36 65.7184 36 73.6427H38C38 66.4263 41.6571 59.1492 48.5283 52.7219C55.3977 46.2963 65.4298 40.7741 78.0081 37.1094L77.4487 35.1893ZM121.126 30C104.45 30 89.8824 31.5668 77.4487 35.1893L78.0081 37.1094C90.1984 33.5579 104.562 32 121.126 32V30ZM217.935 73.7162C218.989 59.4108 207.152 48.4855 189.243 41.1971C171.244 33.8719 146.652 30 121.126 30V32C146.488 32 170.803 35.852 188.489 43.0496C206.265 50.2838 216.89 60.6798 215.941 73.5693L217.935 73.7162ZM190.951 107.875C208.907 100.355 217.938 87.6414 217.938 73.6427H215.938C215.938 86.6313 207.599 98.7344 190.178 106.03L190.951 107.875ZM153.5 115.109C168.836 114.372 181.163 111.973 190.951 107.875L190.178 106.03C180.676 110.009 168.599 112.381 153.404 113.111L153.5 115.109ZM152.532 113.719C146.637 127.576 138.046 134.706 123.616 146.218L124.863 147.782C139.271 136.287 148.256 128.878 154.372 114.502L152.532 113.719ZM125.025 147.619C135.568 134.25 142.21 125.426 144.613 114.569L142.66 114.137C140.374 124.468 134.059 132.933 123.454 146.381L125.025 147.619ZM142.826 115.354C143.098 115.354 143.369 115.354 143.639 115.353L143.633 113.353C143.365 113.354 143.096 113.354 142.826 113.354V115.354ZM61.6331 105.936C79.2818 113.736 106.742 117.772 142.893 115.352L142.76 113.357C106.775 115.766 79.6785 111.725 62.4416 104.107L61.6331 105.936Z" fill="#3DC3FF"/>
<path d="M48.1875 76.8535C48.1875 77.0267 48.1419 77.1953 48.0508 77.3594C47.9596 77.5143 47.7454 77.6966 47.4082 77.9062C47.071 78.1159 46.6973 78.3164 46.2871 78.5078C45.877 78.6901 45.4805 78.8496 45.0977 78.9863C44.7148 79.1139 44.4323 79.1777 44.25 79.1777C44.1224 79.1777 43.972 79.1458 43.7988 79.082C43.6257 79.0273 43.4525 78.9544 43.2793 78.8633C43.1061 78.7721 42.9466 78.6673 42.8008 78.5488C42.6641 78.4303 42.5638 78.3164 42.5 78.207C42.4635 78.1432 42.4271 78.0156 42.3906 77.8242C42.3633 77.6328 42.3359 77.4095 42.3086 77.1543C42.2904 76.8991 42.2721 76.6302 42.2539 76.3477C42.2357 76.056 42.2174 75.7826 42.1992 75.5273C42.1901 75.263 42.181 75.0306 42.1719 74.8301C42.1719 74.6296 42.1719 74.4837 42.1719 74.3926C42.1719 74.0553 42.181 73.668 42.1992 73.2305C42.2266 72.793 42.2721 72.3555 42.3359 71.918C42.3997 71.4714 42.4909 71.0475 42.6094 70.6465C42.737 70.2363 42.9056 69.89 43.1152 69.6074C43.179 69.5254 43.3066 69.4388 43.498 69.3477C43.6895 69.2565 43.9128 69.1699 44.168 69.0879C44.4323 69.0059 44.7148 68.9284 45.0156 68.8555C45.3164 68.7826 45.6035 68.7233 45.877 68.6777C46.1595 68.623 46.4147 68.582 46.6426 68.5547C46.8704 68.5182 47.0436 68.5 47.1621 68.5C47.2988 68.5 47.4264 68.5319 47.5449 68.5957C47.6725 68.6504 47.7773 68.7279 47.8594 68.8281C47.9505 68.9284 48.0189 69.0423 48.0645 69.1699C48.1191 69.2884 48.1465 69.416 48.1465 69.5527C48.1465 69.6712 48.1283 69.7715 48.0918 69.8535C48.0645 69.9355 48.0189 70.0267 47.9551 70.127C47.8639 70.2454 47.6725 70.3867 47.3809 70.5508C47.0892 70.7148 46.7702 70.8789 46.4238 71.043C46.0866 71.1979 45.7585 71.3392 45.4395 71.4668C45.1296 71.5944 44.9108 71.6855 44.7832 71.7402C44.7467 71.9499 44.7057 72.1641 44.6602 72.3828C44.6237 72.5924 44.5964 72.8066 44.5781 73.0254C44.8607 72.8796 45.1797 72.7428 45.5352 72.6152C45.8906 72.4876 46.2279 72.4238 46.5469 72.4238C47.194 72.4238 47.5176 72.7428 47.5176 73.3809C47.5176 73.5358 47.4857 73.6725 47.4219 73.791C47.3672 73.9095 47.2897 74.0143 47.1895 74.1055C47.0983 74.1966 46.9889 74.2786 46.8613 74.3516C46.7428 74.4154 46.6243 74.4792 46.5059 74.543C46.2142 74.6979 45.9089 74.8346 45.5898 74.9531C45.2708 75.0625 44.9518 75.1719 44.6328 75.2812C44.6146 75.3542 44.5964 75.4362 44.5781 75.5273C44.5599 75.6094 44.5508 75.6914 44.5508 75.7734C44.5508 75.901 44.5599 76.0286 44.5781 76.1562C44.5964 76.2839 44.6146 76.4115 44.6328 76.5391C44.7422 76.5026 44.9154 76.4434 45.1523 76.3613C45.3984 76.2793 45.6536 76.1973 45.918 76.1152C46.1823 76.0332 46.4375 75.9648 46.6836 75.9102C46.9297 75.8464 47.112 75.8145 47.2305 75.8145C47.3672 75.8145 47.4948 75.8464 47.6133 75.9102C47.7318 75.9648 47.832 76.0423 47.9141 76.1426C47.9961 76.2337 48.0599 76.3431 48.1055 76.4707C48.1602 76.5983 48.1875 76.7259 48.1875 76.8535ZM57.1699 73.75C57.1699 73.7956 57.1654 73.8457 57.1562 73.9004C57.1471 73.946 57.1335 73.9915 57.1152 74.0371C57.0332 74.2467 56.9056 74.4245 56.7324 74.5703C56.5592 74.707 56.3542 74.7754 56.1172 74.7754C55.7617 74.7754 55.5202 74.5977 55.3926 74.2422C55.3743 74.1966 55.3652 74.1465 55.3652 74.0918C55.3652 74.028 55.3607 73.9642 55.3516 73.9004V73.5039C55.3333 73.3763 55.3014 73.276 55.2559 73.2031C55.2103 73.1302 55.1328 73.0938 55.0234 73.0938C54.8685 73.0938 54.7181 73.194 54.5723 73.3945C54.4355 73.5859 54.3125 73.8184 54.2031 74.0918C54.1029 74.3561 54.0208 74.6296 53.957 74.9121C53.8932 75.1947 53.8613 75.4225 53.8613 75.5957C53.8613 75.7324 53.8704 75.901 53.8887 76.1016C53.9069 76.293 53.9434 76.4798 53.998 76.6621C54.0527 76.8444 54.1257 77.0039 54.2168 77.1406C54.3171 77.2682 54.4447 77.332 54.5996 77.332C54.7546 77.332 54.8958 77.2865 55.0234 77.1953C55.1602 77.0951 55.2923 76.9811 55.4199 76.8535C55.5384 76.7441 55.666 76.6302 55.8027 76.5117C55.9486 76.3932 56.1126 76.334 56.2949 76.334C56.5228 76.334 56.7005 76.416 56.8281 76.5801C56.9648 76.7441 57.0332 76.931 57.0332 77.1406C57.0332 77.4505 56.9512 77.7422 56.7871 78.0156C56.623 78.2799 56.418 78.5124 56.1719 78.7129C55.9258 78.9043 55.6523 79.0547 55.3516 79.1641C55.0508 79.2826 54.7637 79.3418 54.4902 79.3418C53.998 79.3418 53.5788 79.2188 53.2324 78.9727C52.8952 78.7266 52.6217 78.4167 52.4121 78.043C52.2025 77.6602 52.0521 77.2454 51.9609 76.7988C51.8698 76.3522 51.8242 75.9284 51.8242 75.5273C51.8242 75.0625 51.888 74.5612 52.0156 74.0234C52.1432 73.4766 52.3392 72.9707 52.6035 72.5059C52.8678 72.041 53.2051 71.6536 53.6152 71.3438C54.0345 71.0339 54.5312 70.8789 55.1055 70.8789C55.4609 70.8789 55.7663 70.9564 56.0215 71.1113C56.2858 71.2663 56.5 71.4714 56.6641 71.7266C56.8372 71.9727 56.9648 72.2507 57.0469 72.5605C57.138 72.8704 57.1836 73.1758 57.1836 73.4766C57.1836 73.5221 57.1836 73.5677 57.1836 73.6133C57.1836 73.6589 57.179 73.7044 57.1699 73.75ZM60.5332 79.3965C60.0684 79.3965 59.6628 79.2734 59.3164 79.0273C58.9701 78.7812 58.6784 78.4668 58.4414 78.084C58.2044 77.7012 58.0267 77.2773 57.9082 76.8125C57.7897 76.3385 57.7305 75.8737 57.7305 75.418C57.7305 74.9349 57.7897 74.4382 57.9082 73.9277C58.0267 73.4082 58.209 72.9388 58.4551 72.5195C58.7012 72.0911 59.0156 71.7448 59.3984 71.4805C59.7812 71.207 60.237 71.0703 60.7656 71.0703C61.276 71.0703 61.709 71.2116 62.0645 71.4941C62.429 71.7676 62.7207 72.1139 62.9395 72.5332C63.1582 72.9434 63.3132 73.3945 63.4043 73.8867C63.4954 74.3789 63.5273 74.8438 63.5 75.2812C63.4727 75.7643 63.3952 76.252 63.2676 76.7441C63.1491 77.2363 62.9714 77.6784 62.7344 78.0703C62.4974 78.4622 62.1966 78.7812 61.832 79.0273C61.4674 79.2734 61.0345 79.3965 60.5332 79.3965ZM60.6699 73.2168C60.5332 73.2168 60.4102 73.2897 60.3008 73.4355C60.2005 73.5814 60.1139 73.7591 60.041 73.9688C59.9772 74.1784 59.9271 74.4017 59.8906 74.6387C59.8542 74.8665 59.8359 75.0671 59.8359 75.2402C59.8359 75.459 59.8542 75.696 59.8906 75.9512C59.9362 76.2064 59.9954 76.4434 60.0684 76.6621C60.1413 76.8717 60.2279 77.0495 60.3281 77.1953C60.4375 77.332 60.5605 77.4004 60.6973 77.4004C60.8431 77.4004 60.9661 77.332 61.0664 77.1953C61.1758 77.0586 61.2624 76.8854 61.3262 76.6758C61.39 76.4661 61.4355 76.2383 61.4629 75.9922C61.4902 75.737 61.5039 75.5 61.5039 75.2812C61.5039 75.0807 61.4857 74.862 61.4492 74.625C61.4128 74.3789 61.3581 74.151 61.2852 73.9414C61.2214 73.7318 61.1348 73.5586 61.0254 73.4219C60.9251 73.2852 60.8066 73.2168 60.6699 73.2168ZM72.4961 74.4883C72.4961 74.6615 72.4961 74.8984 72.4961 75.1992C72.4961 75.4909 72.487 75.8099 72.4688 76.1562C72.4596 76.5026 72.4323 76.8535 72.3867 77.209C72.3411 77.5553 72.2682 77.8698 72.168 78.1523C72.0768 78.4349 71.9583 78.6673 71.8125 78.8496C71.6667 79.0319 71.4798 79.123 71.252 79.123C71.0514 79.123 70.8965 79.041 70.7871 78.877C70.6868 78.7038 70.6139 78.5033 70.5684 78.2754C70.5228 78.0475 70.4954 77.8151 70.4863 77.5781C70.4863 77.3411 70.4863 77.1543 70.4863 77.0176C70.4863 76.6074 70.5 76.2064 70.5273 75.8145C70.5547 75.4225 70.5684 75.0215 70.5684 74.6113C70.5684 74.5658 70.5684 74.4837 70.5684 74.3652C70.5684 74.2467 70.5592 74.1283 70.541 74.0098C70.5228 73.8913 70.4909 73.7865 70.4453 73.6953C70.4089 73.6042 70.3496 73.5586 70.2676 73.5586C70.1035 73.5586 69.9714 73.6452 69.8711 73.8184C69.7708 73.9824 69.6888 74.1784 69.625 74.4062C69.5612 74.6341 69.5156 74.862 69.4883 75.0898C69.4609 75.3086 69.4427 75.4727 69.4336 75.582C69.4154 75.7005 69.3971 75.8783 69.3789 76.1152C69.3698 76.3522 69.3516 76.612 69.3242 76.8945C69.306 77.1771 69.2695 77.4688 69.2148 77.7695C69.1693 78.0612 69.1055 78.3301 69.0234 78.5762C68.9505 78.8132 68.8548 79.0091 68.7363 79.1641C68.6178 79.319 68.472 79.3965 68.2988 79.3965C68.0801 79.3965 67.9115 79.3008 67.793 79.1094C67.6745 78.918 67.5879 78.6947 67.5332 78.4395C67.4785 78.1842 67.4421 77.9245 67.4238 77.6602C67.4147 77.3958 67.4102 77.1908 67.4102 77.0449C67.4102 76.89 67.4102 76.7396 67.4102 76.5938C67.4193 76.4479 67.4238 76.2975 67.4238 76.1426C67.4238 76.0788 67.4238 75.974 67.4238 75.8281C67.4238 75.6823 67.4193 75.5228 67.4102 75.3496C67.4102 75.1673 67.401 74.9805 67.3828 74.7891C67.3737 74.5977 67.3555 74.4245 67.3281 74.2695C67.3008 74.1055 67.2598 73.9733 67.2051 73.873C67.1504 73.7728 67.0866 73.7227 67.0137 73.7227C66.8952 73.7227 66.7858 73.8001 66.6855 73.9551C66.5853 74.1009 66.4987 74.2786 66.4258 74.4883C66.3529 74.6888 66.2936 74.8893 66.248 75.0898C66.2116 75.2904 66.1934 75.4362 66.1934 75.5273V75.6094C66.1934 76.0469 66.2207 76.4753 66.2754 76.8945C66.3301 77.3138 66.3574 77.7422 66.3574 78.1797C66.3574 78.4349 66.2754 78.6719 66.1113 78.8906C65.9473 79.1003 65.7194 79.2051 65.4277 79.2051C65.2181 79.2051 65.0449 79.1276 64.9082 78.9727C64.7715 78.8086 64.6576 78.599 64.5664 78.3438C64.4753 78.0885 64.4023 77.8105 64.3477 77.5098C64.3021 77.1999 64.2702 76.8991 64.252 76.6074C64.2337 76.3066 64.2201 76.0378 64.2109 75.8008C64.2109 75.5547 64.2109 75.3724 64.2109 75.2539C64.2109 75.1172 64.2064 74.9167 64.1973 74.6523C64.1973 74.388 64.2018 74.1009 64.2109 73.791C64.2292 73.4811 64.2565 73.1667 64.293 72.8477C64.3294 72.5195 64.3887 72.2233 64.4707 71.959C64.5527 71.6947 64.6576 71.4805 64.7852 71.3164C64.9219 71.1432 65.0951 71.0566 65.3047 71.0566C65.5417 71.0566 65.7331 71.1204 65.8789 71.248C66.0339 71.3757 66.1113 71.5671 66.1113 71.8223C66.1113 71.877 66.1068 71.9316 66.0977 71.9863C66.0977 72.041 66.0931 72.0911 66.084 72.1367C66.1842 71.9909 66.3073 71.8451 66.4531 71.6992C66.599 71.5443 66.7539 71.4076 66.918 71.2891C67.0911 71.1615 67.2734 71.0612 67.4648 70.9883C67.6562 70.9062 67.8477 70.8652 68.0391 70.8652C68.2214 70.8652 68.3854 70.9154 68.5312 71.0156C68.6771 71.1159 68.8047 71.2435 68.9141 71.3984C69.0234 71.5443 69.1146 71.7038 69.1875 71.877C69.2604 72.0501 69.3105 72.2142 69.3379 72.3691C69.429 72.2051 69.5384 72.041 69.666 71.877C69.8027 71.7038 69.9486 71.5534 70.1035 71.4258C70.2585 71.2982 70.4271 71.1934 70.6094 71.1113C70.8008 71.0293 70.9967 70.9883 71.1973 70.9883C71.3887 70.9883 71.5527 71.0566 71.6895 71.1934C71.8262 71.3301 71.9447 71.5078 72.0449 71.7266C72.1452 71.9362 72.2227 72.1777 72.2773 72.4512C72.332 72.7155 72.3776 72.9798 72.4141 73.2441C72.4505 73.4993 72.4733 73.7409 72.4824 73.9688C72.4915 74.1875 72.4961 74.3607 72.4961 74.4883ZM75.9961 79.3965C75.5312 79.3965 75.1257 79.2734 74.7793 79.0273C74.4329 78.7812 74.1413 78.4668 73.9043 78.084C73.6673 77.7012 73.4896 77.2773 73.3711 76.8125C73.2526 76.3385 73.1934 75.8737 73.1934 75.418C73.1934 74.9349 73.2526 74.4382 73.3711 73.9277C73.4896 73.4082 73.6719 72.9388 73.918 72.5195C74.1641 72.0911 74.4785 71.7448 74.8613 71.4805C75.2441 71.207 75.6999 71.0703 76.2285 71.0703C76.7389 71.0703 77.1719 71.2116 77.5273 71.4941C77.8919 71.7676 78.1836 72.1139 78.4023 72.5332C78.6211 72.9434 78.776 73.3945 78.8672 73.8867C78.9583 74.3789 78.9902 74.8438 78.9629 75.2812C78.9355 75.7643 78.8581 76.252 78.7305 76.7441C78.612 77.2363 78.4342 77.6784 78.1973 78.0703C77.9603 78.4622 77.6595 78.7812 77.2949 79.0273C76.9303 79.2734 76.4974 79.3965 75.9961 79.3965ZM76.1328 73.2168C75.9961 73.2168 75.873 73.2897 75.7637 73.4355C75.6634 73.5814 75.5768 73.7591 75.5039 73.9688C75.4401 74.1784 75.39 74.4017 75.3535 74.6387C75.3171 74.8665 75.2988 75.0671 75.2988 75.2402C75.2988 75.459 75.3171 75.696 75.3535 75.9512C75.3991 76.2064 75.4583 76.4434 75.5312 76.6621C75.6042 76.8717 75.6908 77.0495 75.791 77.1953C75.9004 77.332 76.0234 77.4004 76.1602 77.4004C76.306 77.4004 76.429 77.332 76.5293 77.1953C76.6387 77.0586 76.7253 76.8854 76.7891 76.6758C76.8529 76.4661 76.8984 76.2383 76.9258 75.9922C76.9531 75.737 76.9668 75.5 76.9668 75.2812C76.9668 75.0807 76.9486 74.862 76.9121 74.625C76.8757 74.3789 76.821 74.151 76.748 73.9414C76.6842 73.7318 76.5977 73.5586 76.4883 73.4219C76.388 73.2852 76.2695 73.2168 76.1328 73.2168ZM88.8477 74.1055C88.6107 74.7344 88.3509 75.3906 88.0684 76.0742C87.7858 76.7578 87.4805 77.3958 87.1523 77.9883C86.9518 78.3529 86.7285 78.6582 86.4824 78.9043C86.2363 79.1413 85.9538 79.2598 85.6348 79.2598C85.3796 79.2598 85.1289 79.1322 84.8828 78.877C84.6458 78.6126 84.4225 78.3027 84.2129 77.9473C84.0124 77.5827 83.8346 77.2181 83.6797 76.8535C83.5339 76.4798 83.4245 76.1836 83.3516 75.9648C83.2786 75.7188 83.1966 75.4544 83.1055 75.1719C83.0143 74.8893 82.9323 74.6022 82.8594 74.3105C82.7865 74.0189 82.7272 73.7318 82.6816 73.4492C82.6361 73.1576 82.6133 72.8841 82.6133 72.6289C82.6133 72.2734 82.6771 71.9818 82.8047 71.7539C82.9323 71.526 83.1829 71.4121 83.5566 71.4121C83.7025 71.4121 83.8346 71.4577 83.9531 71.5488C84.0716 71.6309 84.181 71.7493 84.2812 71.9043C84.3815 72.0592 84.4772 72.2415 84.5684 72.4512C84.6595 72.6517 84.7461 72.875 84.8281 73.1211C84.9102 73.3581 84.9876 73.6042 85.0605 73.8594C85.1335 74.1146 85.2064 74.3607 85.2793 74.5977C85.3522 74.8346 85.4251 75.0671 85.498 75.2949C85.5801 75.5137 85.6849 75.7324 85.8125 75.9512C85.8763 75.7871 85.9492 75.6003 86.0312 75.3906C86.1133 75.181 86.1999 74.9577 86.291 74.7207C86.3913 74.4837 86.4961 74.2422 86.6055 73.9961C86.7148 73.7409 86.8333 73.4948 86.9609 73.2578C87.207 72.7656 87.4668 72.3464 87.7402 72C88.0228 71.6536 88.3008 71.4805 88.5742 71.4805C88.8294 71.4805 89.0117 71.5579 89.1211 71.7129C89.2305 71.8678 89.2852 72.0684 89.2852 72.3145C89.2852 72.5605 89.2441 72.8385 89.1621 73.1484C89.0801 73.4583 88.9753 73.7773 88.8477 74.1055ZM92.3613 79.3965C91.8965 79.3965 91.4909 79.2734 91.1445 79.0273C90.7982 78.7812 90.5065 78.4668 90.2695 78.084C90.0326 77.7012 89.8548 77.2773 89.7363 76.8125C89.6178 76.3385 89.5586 75.8737 89.5586 75.418C89.5586 74.9349 89.6178 74.4382 89.7363 73.9277C89.8548 73.4082 90.0371 72.9388 90.2832 72.5195C90.5293 72.0911 90.8438 71.7448 91.2266 71.4805C91.6094 71.207 92.0651 71.0703 92.5938 71.0703C93.1042 71.0703 93.5371 71.2116 93.8926 71.4941C94.2572 71.7676 94.5488 72.1139 94.7676 72.5332C94.9863 72.9434 95.1413 73.3945 95.2324 73.8867C95.3236 74.3789 95.3555 74.8438 95.3281 75.2812C95.3008 75.7643 95.2233 76.252 95.0957 76.7441C94.9772 77.2363 94.7995 77.6784 94.5625 78.0703C94.3255 78.4622 94.0247 78.7812 93.6602 79.0273C93.2956 79.2734 92.8626 79.3965 92.3613 79.3965ZM92.498 73.2168C92.3613 73.2168 92.2383 73.2897 92.1289 73.4355C92.0286 73.5814 91.9421 73.7591 91.8691 73.9688C91.8053 74.1784 91.7552 74.4017 91.7188 74.6387C91.6823 74.8665 91.6641 75.0671 91.6641 75.2402C91.6641 75.459 91.6823 75.696 91.7188 75.9512C91.7643 76.2064 91.8236 76.4434 91.8965 76.6621C91.9694 76.8717 92.056 77.0495 92.1562 77.1953C92.2656 77.332 92.3887 77.4004 92.5254 77.4004C92.6712 77.4004 92.7943 77.332 92.8945 77.1953C93.0039 77.0586 93.0905 76.8854 93.1543 76.6758C93.2181 76.4661 93.2637 76.2383 93.291 75.9922C93.3184 75.737 93.332 75.5 93.332 75.2812C93.332 75.0807 93.3138 74.862 93.2773 74.625C93.2409 74.3789 93.1862 74.151 93.1133 73.9414C93.0495 73.7318 92.9629 73.5586 92.8535 73.4219C92.7533 73.2852 92.6348 73.2168 92.498 73.2168ZM101.098 73.75C101.098 73.7956 101.093 73.8457 101.084 73.9004C101.075 73.946 101.061 73.9915 101.043 74.0371C100.961 74.2467 100.833 74.4245 100.66 74.5703C100.487 74.707 100.282 74.7754 100.045 74.7754C99.6895 74.7754 99.4479 74.5977 99.3203 74.2422C99.3021 74.1966 99.293 74.1465 99.293 74.0918C99.293 74.028 99.2884 73.9642 99.2793 73.9004V73.5039C99.2611 73.3763 99.2292 73.276 99.1836 73.2031C99.138 73.1302 99.0605 73.0938 98.9512 73.0938C98.7962 73.0938 98.6458 73.194 98.5 73.3945C98.3633 73.5859 98.2402 73.8184 98.1309 74.0918C98.0306 74.3561 97.9486 74.6296 97.8848 74.9121C97.821 75.1947 97.7891 75.4225 97.7891 75.5957C97.7891 75.7324 97.7982 75.901 97.8164 76.1016C97.8346 76.293 97.8711 76.4798 97.9258 76.6621C97.9805 76.8444 98.0534 77.0039 98.1445 77.1406C98.2448 77.2682 98.3724 77.332 98.5273 77.332C98.6823 77.332 98.8236 77.2865 98.9512 77.1953C99.0879 77.0951 99.2201 76.9811 99.3477 76.8535C99.4661 76.7441 99.5938 76.6302 99.7305 76.5117C99.8763 76.3932 100.04 76.334 100.223 76.334C100.451 76.334 100.628 76.416 100.756 76.5801C100.893 76.7441 100.961 76.931 100.961 77.1406C100.961 77.4505 100.879 77.7422 100.715 78.0156C100.551 78.2799 100.346 78.5124 100.1 78.7129C99.8535 78.9043 99.5801 79.0547 99.2793 79.1641C98.9785 79.2826 98.6914 79.3418 98.418 79.3418C97.9258 79.3418 97.5065 79.2188 97.1602 78.9727C96.8229 78.7266 96.5495 78.4167 96.3398 78.043C96.1302 77.6602 95.9798 77.2454 95.8887 76.7988C95.7975 76.3522 95.752 75.9284 95.752 75.5273C95.752 75.0625 95.8158 74.5612 95.9434 74.0234C96.071 73.4766 96.2669 72.9707 96.5312 72.5059C96.7956 72.041 97.1328 71.6536 97.543 71.3438C97.9622 71.0339 98.459 70.8789 99.0332 70.8789C99.3887 70.8789 99.694 70.9564 99.9492 71.1113C100.214 71.2663 100.428 71.4714 100.592 71.7266C100.765 71.9727 100.893 72.2507 100.975 72.5605C101.066 72.8704 101.111 73.1758 101.111 73.4766C101.111 73.5221 101.111 73.5677 101.111 73.6133C101.111 73.6589 101.107 73.7044 101.098 73.75ZM107.592 76.5664C107.592 76.8763 107.492 77.1816 107.291 77.4824C107.1 77.7741 106.854 78.0384 106.553 78.2754C106.261 78.5033 105.947 78.6901 105.609 78.8359C105.272 78.9727 104.962 79.041 104.68 79.041C104.197 79.041 103.764 78.9225 103.381 78.6855C103.007 78.4395 102.693 78.1296 102.438 77.7559C102.182 77.3822 101.986 76.972 101.85 76.5254C101.722 76.0697 101.658 75.6276 101.658 75.1992C101.658 74.7435 101.722 74.2559 101.85 73.7363C101.977 73.2168 102.169 72.7383 102.424 72.3008C102.688 71.8633 103.016 71.4987 103.408 71.207C103.809 70.9154 104.283 70.7695 104.83 70.7695C105.14 70.7695 105.436 70.8242 105.719 70.9336C106.001 71.0339 106.247 71.1797 106.457 71.3711C106.667 71.5625 106.835 71.7904 106.963 72.0547C107.09 72.319 107.154 72.6152 107.154 72.9434C107.154 73.3717 107.063 73.7728 106.881 74.1465C106.699 74.5202 106.457 74.8438 106.156 75.1172C105.855 75.3906 105.509 75.6139 105.117 75.7871C104.725 75.9512 104.324 76.0423 103.914 76.0605C103.951 76.3249 104.055 76.5163 104.229 76.6348C104.411 76.7533 104.625 76.8125 104.871 76.8125C105.053 76.8125 105.231 76.7669 105.404 76.6758C105.577 76.5846 105.746 76.4844 105.91 76.375C106.074 76.2565 106.234 76.1517 106.389 76.0605C106.553 75.9694 106.717 75.9238 106.881 75.9238C107.063 75.9238 107.227 75.9831 107.373 76.1016C107.519 76.2201 107.592 76.375 107.592 76.5664ZM105.377 73.2168C105.377 73.0983 105.345 72.9753 105.281 72.8477C105.217 72.7201 105.117 72.6562 104.98 72.6562C104.78 72.6562 104.611 72.7109 104.475 72.8203C104.338 72.9206 104.224 73.0527 104.133 73.2168C104.042 73.3717 103.969 73.5404 103.914 73.7227C103.868 73.9049 103.841 74.0736 103.832 74.2285C103.96 74.2012 104.11 74.1647 104.283 74.1191C104.465 74.0736 104.634 74.0143 104.789 73.9414C104.953 73.8594 105.09 73.7591 105.199 73.6406C105.318 73.5221 105.377 73.3809 105.377 73.2168ZM106.594 69.8535C106.594 69.9264 106.58 69.972 106.553 69.9902C106.525 70.0085 106.48 70.0176 106.416 70.0176C106.307 70.0176 106.184 69.9902 106.047 69.9355C105.919 69.8809 105.787 69.8125 105.65 69.7305C105.523 69.6484 105.395 69.5618 105.268 69.4707C105.149 69.3796 105.049 69.2975 104.967 69.2246C104.876 69.2975 104.766 69.3841 104.639 69.4844C104.52 69.5846 104.393 69.6803 104.256 69.7715C104.119 69.8535 103.982 69.9264 103.846 69.9902C103.709 70.0449 103.581 70.0723 103.463 70.0723C103.417 70.0723 103.372 70.0632 103.326 70.0449C103.29 70.0267 103.271 69.9811 103.271 69.9082C103.271 69.7715 103.331 69.5983 103.449 69.3887C103.568 69.179 103.714 68.9785 103.887 68.7871C104.06 68.5957 104.242 68.4316 104.434 68.2949C104.625 68.1582 104.794 68.0898 104.939 68.0898C105.085 68.0898 105.254 68.1582 105.445 68.2949C105.637 68.4225 105.814 68.5775 105.979 68.7598C106.152 68.9421 106.298 69.1335 106.416 69.334C106.535 69.5345 106.594 69.7077 106.594 69.8535ZM112.145 71.4805C112.145 71.7448 112.053 71.9408 111.871 72.0684C111.698 72.196 111.502 72.319 111.283 72.4375C111.064 72.5469 110.864 72.679 110.682 72.834C110.508 72.9889 110.422 73.2214 110.422 73.5312C110.422 73.6953 110.458 73.8366 110.531 73.9551C110.613 74.0736 110.709 74.1829 110.818 74.2832C110.937 74.3743 111.064 74.4701 111.201 74.5703C111.338 74.6706 111.461 74.7845 111.57 74.9121C111.689 75.0397 111.785 75.1947 111.857 75.377C111.939 75.5592 111.98 75.7826 111.98 76.0469C111.98 76.4297 111.88 76.8079 111.68 77.1816C111.488 77.5462 111.238 77.8743 110.928 78.166C110.627 78.4486 110.285 78.6764 109.902 78.8496C109.52 79.0228 109.141 79.1094 108.768 79.1094C108.613 79.1094 108.458 79.0957 108.303 79.0684C108.148 79.0501 108.007 79.0091 107.879 78.9453C107.76 78.8815 107.66 78.7949 107.578 78.6855C107.496 78.5671 107.455 78.4167 107.455 78.2344C107.455 77.9792 107.505 77.7832 107.605 77.6465C107.706 77.5007 107.833 77.3867 107.988 77.3047C108.143 77.2227 108.307 77.1589 108.48 77.1133C108.663 77.0677 108.831 77.013 108.986 76.9492C109.141 76.8763 109.269 76.7852 109.369 76.6758C109.469 76.5664 109.52 76.4115 109.52 76.2109C109.52 76.0195 109.442 75.8236 109.287 75.623C109.141 75.4134 108.977 75.1947 108.795 74.9668C108.613 74.7298 108.444 74.4792 108.289 74.2148C108.143 73.9505 108.07 73.6589 108.07 73.3398C108.07 72.9479 108.148 72.5879 108.303 72.2598C108.467 71.9225 108.681 71.6309 108.945 71.3848C109.219 71.1387 109.529 70.9473 109.875 70.8105C110.221 70.6647 110.586 70.5918 110.969 70.5918C111.115 70.5918 111.256 70.6055 111.393 70.6328C111.538 70.6602 111.666 70.7103 111.775 70.7832C111.885 70.847 111.971 70.9382 112.035 71.0566C112.108 71.166 112.145 71.3073 112.145 71.4805ZM121.059 73.75C121.059 73.7956 121.054 73.8457 121.045 73.9004C121.036 73.946 121.022 73.9915 121.004 74.0371C120.922 74.2467 120.794 74.4245 120.621 74.5703C120.448 74.707 120.243 74.7754 120.006 74.7754C119.65 74.7754 119.409 74.5977 119.281 74.2422C119.263 74.1966 119.254 74.1465 119.254 74.0918C119.254 74.028 119.249 73.9642 119.24 73.9004V73.5039C119.222 73.3763 119.19 73.276 119.145 73.2031C119.099 73.1302 119.021 73.0938 118.912 73.0938C118.757 73.0938 118.607 73.194 118.461 73.3945C118.324 73.5859 118.201 73.8184 118.092 74.0918C117.992 74.3561 117.91 74.6296 117.846 74.9121C117.782 75.1947 117.75 75.4225 117.75 75.5957C117.75 75.7324 117.759 75.901 117.777 76.1016C117.796 76.293 117.832 76.4798 117.887 76.6621C117.941 76.8444 118.014 77.0039 118.105 77.1406C118.206 77.2682 118.333 77.332 118.488 77.332C118.643 77.332 118.785 77.2865 118.912 77.1953C119.049 77.0951 119.181 76.9811 119.309 76.8535C119.427 76.7441 119.555 76.6302 119.691 76.5117C119.837 76.3932 120.001 76.334 120.184 76.334C120.411 76.334 120.589 76.416 120.717 76.5801C120.854 76.7441 120.922 76.931 120.922 77.1406C120.922 77.4505 120.84 77.7422 120.676 78.0156C120.512 78.2799 120.307 78.5124 120.061 78.7129C119.814 78.9043 119.541 79.0547 119.24 79.1641C118.939 79.2826 118.652 79.3418 118.379 79.3418C117.887 79.3418 117.467 79.2188 117.121 78.9727C116.784 78.7266 116.51 78.4167 116.301 78.043C116.091 77.6602 115.941 77.2454 115.85 76.7988C115.758 76.3522 115.713 75.9284 115.713 75.5273C115.713 75.0625 115.777 74.5612 115.904 74.0234C116.032 73.4766 116.228 72.9707 116.492 72.5059C116.757 72.041 117.094 71.6536 117.504 71.3438C117.923 71.0339 118.42 70.8789 118.994 70.8789C119.35 70.8789 119.655 70.9564 119.91 71.1113C120.174 71.2663 120.389 71.4714 120.553 71.7266C120.726 71.9727 120.854 72.2507 120.936 72.5605C121.027 72.8704 121.072 73.1758 121.072 73.4766C121.072 73.5221 121.072 73.5677 121.072 73.6133C121.072 73.6589 121.068 73.7044 121.059 73.75ZM128.031 75.459C128.031 75.6139 128.027 75.8464 128.018 76.1562C128.018 76.457 128.004 76.776 127.977 77.1133C127.958 77.4414 127.931 77.7559 127.895 78.0566C127.858 78.3483 127.812 78.5625 127.758 78.6992C127.685 78.8724 127.589 79.0228 127.471 79.1504C127.352 79.278 127.193 79.3418 126.992 79.3418C126.682 79.3418 126.459 79.2188 126.322 78.9727C126.186 78.7266 126.094 78.4212 126.049 78.0566C126.003 77.6921 125.985 77.2956 125.994 76.8672C126.003 76.4388 125.999 76.0423 125.98 75.6777C125.962 75.3132 125.912 75.0078 125.83 74.7617C125.748 74.5156 125.598 74.3926 125.379 74.3926C125.078 74.3926 124.846 74.4427 124.682 74.543C124.527 74.6341 124.413 74.7572 124.34 74.9121C124.276 75.0671 124.235 75.2448 124.217 75.4453C124.208 75.6458 124.194 75.8555 124.176 76.0742C124.158 76.2839 124.144 76.5664 124.135 76.9219C124.126 77.2773 124.085 77.6283 124.012 77.9746C123.939 78.321 123.816 78.6217 123.643 78.877C123.479 79.123 123.232 79.2461 122.904 79.2461C122.704 79.2461 122.54 79.1686 122.412 79.0137C122.294 78.8587 122.198 78.6582 122.125 78.4121C122.052 78.166 121.997 77.8926 121.961 77.5918C121.934 77.291 121.915 76.9993 121.906 76.7168C121.906 76.4251 121.906 76.1608 121.906 75.9238C121.915 75.6868 121.92 75.5091 121.92 75.3906C121.92 75.2083 121.924 74.9076 121.934 74.4883C121.952 74.069 121.984 73.6042 122.029 73.0938C122.075 72.5742 122.134 72.041 122.207 71.4941C122.28 70.9473 122.376 70.4505 122.494 70.0039C122.613 69.5482 122.754 69.179 122.918 68.8965C123.091 68.6139 123.292 68.4772 123.52 68.4863C123.665 68.4954 123.788 68.5592 123.889 68.6777C123.998 68.7962 124.085 68.9512 124.148 69.1426C124.221 69.3249 124.281 69.5254 124.326 69.7441C124.372 69.9629 124.404 70.1816 124.422 70.4004C124.449 70.61 124.463 70.806 124.463 70.9883C124.472 71.1706 124.477 71.3118 124.477 71.4121C124.477 71.6491 124.472 71.8861 124.463 72.123C124.454 72.36 124.44 72.597 124.422 72.834C124.632 72.5514 124.91 72.319 125.256 72.1367C125.611 71.9544 125.967 71.8633 126.322 71.8633C126.778 71.8633 127.12 71.9909 127.348 72.2461C127.585 72.4922 127.753 72.8021 127.854 73.1758C127.954 73.5404 128.008 73.9323 128.018 74.3516C128.027 74.7617 128.031 75.1309 128.031 75.459ZM134.73 76.5664C134.73 76.8763 134.63 77.1816 134.43 77.4824C134.238 77.7741 133.992 78.0384 133.691 78.2754C133.4 78.5033 133.085 78.6901 132.748 78.8359C132.411 78.9727 132.101 79.041 131.818 79.041C131.335 79.041 130.902 78.9225 130.52 78.6855C130.146 78.4395 129.831 78.1296 129.576 77.7559C129.321 77.3822 129.125 76.972 128.988 76.5254C128.861 76.0697 128.797 75.6276 128.797 75.1992C128.797 74.7435 128.861 74.2559 128.988 73.7363C129.116 73.2168 129.307 72.7383 129.562 72.3008C129.827 71.8633 130.155 71.4987 130.547 71.207C130.948 70.9154 131.422 70.7695 131.969 70.7695C132.279 70.7695 132.575 70.8242 132.857 70.9336C133.14 71.0339 133.386 71.1797 133.596 71.3711C133.805 71.5625 133.974 71.7904 134.102 72.0547C134.229 72.319 134.293 72.6152 134.293 72.9434C134.293 73.3717 134.202 73.7728 134.02 74.1465C133.837 74.5202 133.596 74.8438 133.295 75.1172C132.994 75.3906 132.648 75.6139 132.256 75.7871C131.864 75.9512 131.463 76.0423 131.053 76.0605C131.089 76.3249 131.194 76.5163 131.367 76.6348C131.549 76.7533 131.764 76.8125 132.01 76.8125C132.192 76.8125 132.37 76.7669 132.543 76.6758C132.716 76.5846 132.885 76.4844 133.049 76.375C133.213 76.2565 133.372 76.1517 133.527 76.0605C133.691 75.9694 133.855 75.9238 134.02 75.9238C134.202 75.9238 134.366 75.9831 134.512 76.1016C134.658 76.2201 134.73 76.375 134.73 76.5664ZM132.516 73.2168C132.516 73.0983 132.484 72.9753 132.42 72.8477C132.356 72.7201 132.256 72.6562 132.119 72.6562C131.919 72.6562 131.75 72.7109 131.613 72.8203C131.477 72.9206 131.363 73.0527 131.271 73.2168C131.18 73.3717 131.107 73.5404 131.053 73.7227C131.007 73.9049 130.98 74.0736 130.971 74.2285C131.098 74.2012 131.249 74.1647 131.422 74.1191C131.604 74.0736 131.773 74.0143 131.928 73.9414C132.092 73.8594 132.229 73.7591 132.338 73.6406C132.456 73.5221 132.516 73.3809 132.516 73.2168ZM141.471 74.3379C141.471 74.8027 141.462 75.2676 141.443 75.7324C141.434 76.1973 141.411 76.6621 141.375 77.127C141.348 77.528 141.311 77.9564 141.266 78.4121C141.22 78.8678 141.147 79.319 141.047 79.7656C140.947 80.2214 140.814 80.6543 140.65 81.0645C140.486 81.4837 140.268 81.8529 139.994 82.1719C139.73 82.4909 139.406 82.7461 139.023 82.9375C138.641 83.1289 138.185 83.2246 137.656 83.2246C137.41 83.2246 137.132 83.1836 136.822 83.1016C136.521 83.0286 136.234 82.9193 135.961 82.7734C135.697 82.6276 135.469 82.4453 135.277 82.2266C135.095 82.0169 135.004 81.7708 135.004 81.4883C135.004 81.2786 135.077 81.0827 135.223 80.9004C135.378 80.7272 135.574 80.6406 135.811 80.6406C135.956 80.6406 136.093 80.6634 136.221 80.709C136.357 80.7637 136.49 80.8229 136.617 80.8867C136.754 80.9505 136.882 81.0052 137 81.0508C137.128 81.1055 137.255 81.1328 137.383 81.1328C137.72 81.1328 138.003 81.0462 138.23 80.873C138.458 80.709 138.641 80.4948 138.777 80.2305C138.914 79.9753 139.014 79.6927 139.078 79.3828C139.151 79.082 139.201 78.7949 139.229 78.5215C139.046 78.7311 138.832 78.877 138.586 78.959C138.349 79.0319 138.098 79.0684 137.834 79.0684C137.351 79.0684 136.941 78.9863 136.604 78.8223C136.266 78.6491 135.993 78.4167 135.783 78.125C135.574 77.8242 135.419 77.4779 135.318 77.0859C135.218 76.694 135.168 76.2702 135.168 75.8145C135.168 75.5319 135.195 75.2129 135.25 74.8574C135.314 74.502 135.405 74.1419 135.523 73.7773C135.642 73.4128 135.788 73.0573 135.961 72.7109C136.143 72.3646 136.353 72.0592 136.59 71.7949C136.827 71.5306 137.091 71.3164 137.383 71.1523C137.684 70.9883 138.012 70.9062 138.367 70.9062C138.714 70.9062 139.019 71.0065 139.283 71.207C139.557 71.4076 139.716 71.6901 139.762 72.0547C139.862 71.8633 139.994 71.6764 140.158 71.4941C140.322 71.3027 140.523 71.207 140.76 71.207C140.887 71.207 140.992 71.2708 141.074 71.3984C141.165 71.526 141.234 71.6947 141.279 71.9043C141.334 72.1048 141.375 72.3281 141.402 72.5742C141.43 72.8112 141.448 73.0482 141.457 73.2852C141.466 73.513 141.471 73.7227 141.471 73.9141C141.471 74.1055 141.471 74.2467 141.471 74.3379ZM139.393 75.2266C139.393 75.0898 139.37 74.9121 139.324 74.6934C139.288 74.4746 139.229 74.265 139.146 74.0645C139.074 73.8639 138.978 73.6908 138.859 73.5449C138.741 73.3991 138.6 73.3262 138.436 73.3262C138.226 73.3262 138.039 73.3991 137.875 73.5449C137.72 73.6908 137.588 73.8685 137.479 74.0781C137.369 74.2786 137.283 74.4974 137.219 74.7344C137.164 74.9622 137.137 75.1582 137.137 75.3223C137.137 75.4408 137.146 75.6003 137.164 75.8008C137.182 76.0013 137.219 76.1973 137.273 76.3887C137.337 76.5801 137.419 76.7441 137.52 76.8809C137.62 77.0176 137.752 77.0859 137.916 77.0859C138.162 77.0859 138.376 77.0267 138.559 76.9082C138.741 76.7897 138.891 76.6393 139.01 76.457C139.137 76.2747 139.233 76.0742 139.297 75.8555C139.361 75.6367 139.393 75.4271 139.393 75.2266ZM148.252 77.0723C148.252 77.2363 148.243 77.4505 148.225 77.7148C148.215 77.9792 148.179 78.2389 148.115 78.4941C148.051 78.7402 147.951 78.9544 147.814 79.1367C147.678 79.319 147.486 79.4102 147.24 79.4102C146.903 79.4102 146.643 79.3008 146.461 79.082C146.279 78.8633 146.192 78.5898 146.201 78.2617C145.91 78.5169 145.577 78.7174 145.203 78.8633C144.839 79.0091 144.465 79.082 144.082 79.082C143.818 79.082 143.567 79.0182 143.33 78.8906C143.093 78.763 142.883 78.599 142.701 78.3984C142.519 78.1979 142.373 77.9746 142.264 77.7285C142.154 77.4733 142.1 77.2227 142.1 76.9766C142.1 76.5391 142.232 76.1562 142.496 75.8281C142.77 75.5 143.102 75.222 143.494 74.9941C143.886 74.7572 144.301 74.5703 144.738 74.4336C145.185 74.2969 145.581 74.2057 145.928 74.1602C145.928 74.1146 145.928 74.0736 145.928 74.0371C145.937 74.0007 145.941 73.9596 145.941 73.9141C145.941 73.6315 145.864 73.4036 145.709 73.2305C145.554 73.0573 145.335 72.9707 145.053 72.9707C144.825 72.9707 144.629 73.0117 144.465 73.0938C144.301 73.1667 144.146 73.2533 144 73.3535C143.854 73.4447 143.708 73.5312 143.562 73.6133C143.417 73.6862 143.253 73.7227 143.07 73.7227C142.87 73.7227 142.697 73.6589 142.551 73.5312C142.414 73.4036 142.346 73.2396 142.346 73.0391C142.346 72.7383 142.432 72.4648 142.605 72.2188C142.788 71.9727 143.011 71.7676 143.275 71.6035C143.549 71.4303 143.84 71.2982 144.15 71.207C144.469 71.1068 144.761 71.0566 145.025 71.0566C145.271 71.0566 145.518 71.0885 145.764 71.1523C146.01 71.207 146.242 71.2982 146.461 71.4258C146.68 71.5443 146.876 71.6947 147.049 71.877C147.231 72.0501 147.377 72.2552 147.486 72.4922C147.65 72.8294 147.783 73.1895 147.883 73.5723C147.983 73.946 148.061 74.3333 148.115 74.7344C148.17 75.1263 148.206 75.5228 148.225 75.9238C148.243 76.3158 148.252 76.6986 148.252 77.0723ZM146.064 76.6348L146.023 75.7051C146.005 75.7051 145.987 75.7051 145.969 75.7051C145.951 75.696 145.932 75.6914 145.914 75.6914C145.796 75.6914 145.645 75.7233 145.463 75.7871C145.29 75.8418 145.121 75.9238 144.957 76.0332C144.793 76.1335 144.652 76.2474 144.533 76.375C144.424 76.5026 144.369 76.6348 144.369 76.7715C144.369 76.8991 144.415 76.9857 144.506 77.0312C144.597 77.0768 144.702 77.0996 144.82 77.0996C145.021 77.0996 145.235 77.0495 145.463 76.9492C145.691 76.8398 145.891 76.735 146.064 76.6348ZM157.371 74.4883C157.371 74.6615 157.371 74.8984 157.371 75.1992C157.371 75.4909 157.362 75.8099 157.344 76.1562C157.335 76.5026 157.307 76.8535 157.262 77.209C157.216 77.5553 157.143 77.8698 157.043 78.1523C156.952 78.4349 156.833 78.6673 156.688 78.8496C156.542 79.0319 156.355 79.123 156.127 79.123C155.926 79.123 155.771 79.041 155.662 78.877C155.562 78.7038 155.489 78.5033 155.443 78.2754C155.398 78.0475 155.37 77.8151 155.361 77.5781C155.361 77.3411 155.361 77.1543 155.361 77.0176C155.361 76.6074 155.375 76.2064 155.402 75.8145C155.43 75.4225 155.443 75.0215 155.443 74.6113C155.443 74.5658 155.443 74.4837 155.443 74.3652C155.443 74.2467 155.434 74.1283 155.416 74.0098C155.398 73.8913 155.366 73.7865 155.32 73.6953C155.284 73.6042 155.225 73.5586 155.143 73.5586C154.979 73.5586 154.846 73.6452 154.746 73.8184C154.646 73.9824 154.564 74.1784 154.5 74.4062C154.436 74.6341 154.391 74.862 154.363 75.0898C154.336 75.3086 154.318 75.4727 154.309 75.582C154.29 75.7005 154.272 75.8783 154.254 76.1152C154.245 76.3522 154.227 76.612 154.199 76.8945C154.181 77.1771 154.145 77.4688 154.09 77.7695C154.044 78.0612 153.98 78.3301 153.898 78.5762C153.826 78.8132 153.73 79.0091 153.611 79.1641C153.493 79.319 153.347 79.3965 153.174 79.3965C152.955 79.3965 152.786 79.3008 152.668 79.1094C152.549 78.918 152.463 78.6947 152.408 78.4395C152.354 78.1842 152.317 77.9245 152.299 77.6602C152.29 77.3958 152.285 77.1908 152.285 77.0449C152.285 76.89 152.285 76.7396 152.285 76.5938C152.294 76.4479 152.299 76.2975 152.299 76.1426C152.299 76.0788 152.299 75.974 152.299 75.8281C152.299 75.6823 152.294 75.5228 152.285 75.3496C152.285 75.1673 152.276 74.9805 152.258 74.7891C152.249 74.5977 152.23 74.4245 152.203 74.2695C152.176 74.1055 152.135 73.9733 152.08 73.873C152.025 73.7728 151.962 73.7227 151.889 73.7227C151.77 73.7227 151.661 73.8001 151.561 73.9551C151.46 74.1009 151.374 74.2786 151.301 74.4883C151.228 74.6888 151.169 74.8893 151.123 75.0898C151.087 75.2904 151.068 75.4362 151.068 75.5273V75.6094C151.068 76.0469 151.096 76.4753 151.15 76.8945C151.205 77.3138 151.232 77.7422 151.232 78.1797C151.232 78.4349 151.15 78.6719 150.986 78.8906C150.822 79.1003 150.594 79.2051 150.303 79.2051C150.093 79.2051 149.92 79.1276 149.783 78.9727C149.646 78.8086 149.533 78.599 149.441 78.3438C149.35 78.0885 149.277 77.8105 149.223 77.5098C149.177 77.1999 149.145 76.8991 149.127 76.6074C149.109 76.3066 149.095 76.0378 149.086 75.8008C149.086 75.5547 149.086 75.3724 149.086 75.2539C149.086 75.1172 149.081 74.9167 149.072 74.6523C149.072 74.388 149.077 74.1009 149.086 73.791C149.104 73.4811 149.132 73.1667 149.168 72.8477C149.204 72.5195 149.264 72.2233 149.346 71.959C149.428 71.6947 149.533 71.4805 149.66 71.3164C149.797 71.1432 149.97 71.0566 150.18 71.0566C150.417 71.0566 150.608 71.1204 150.754 71.248C150.909 71.3757 150.986 71.5671 150.986 71.8223C150.986 71.877 150.982 71.9316 150.973 71.9863C150.973 72.041 150.968 72.0911 150.959 72.1367C151.059 71.9909 151.182 71.8451 151.328 71.6992C151.474 71.5443 151.629 71.4076 151.793 71.2891C151.966 71.1615 152.148 71.0612 152.34 70.9883C152.531 70.9062 152.723 70.8652 152.914 70.8652C153.096 70.8652 153.26 70.9154 153.406 71.0156C153.552 71.1159 153.68 71.2435 153.789 71.3984C153.898 71.5443 153.99 71.7038 154.062 71.877C154.135 72.0501 154.186 72.2142 154.213 72.3691C154.304 72.2051 154.413 72.041 154.541 71.877C154.678 71.7038 154.824 71.5534 154.979 71.4258C155.133 71.2982 155.302 71.1934 155.484 71.1113C155.676 71.0293 155.872 70.9883 156.072 70.9883C156.264 70.9883 156.428 71.0566 156.564 71.1934C156.701 71.3301 156.82 71.5078 156.92 71.7266C157.02 71.9362 157.098 72.1777 157.152 72.4512C157.207 72.7155 157.253 72.9798 157.289 73.2441C157.326 73.4993 157.348 73.7409 157.357 73.9688C157.367 74.1875 157.371 74.3607 157.371 74.4883ZM167.379 77.0723C167.379 77.2363 167.37 77.4505 167.352 77.7148C167.342 77.9792 167.306 78.2389 167.242 78.4941C167.178 78.7402 167.078 78.9544 166.941 79.1367C166.805 79.319 166.613 79.4102 166.367 79.4102C166.03 79.4102 165.77 79.3008 165.588 79.082C165.406 78.8633 165.319 78.5898 165.328 78.2617C165.036 78.5169 164.704 78.7174 164.33 78.8633C163.965 79.0091 163.592 79.082 163.209 79.082C162.945 79.082 162.694 79.0182 162.457 78.8906C162.22 78.763 162.01 78.599 161.828 78.3984C161.646 78.1979 161.5 77.9746 161.391 77.7285C161.281 77.4733 161.227 77.2227 161.227 76.9766C161.227 76.5391 161.359 76.1562 161.623 75.8281C161.896 75.5 162.229 75.222 162.621 74.9941C163.013 74.7572 163.428 74.5703 163.865 74.4336C164.312 74.2969 164.708 74.2057 165.055 74.1602C165.055 74.1146 165.055 74.0736 165.055 74.0371C165.064 74.0007 165.068 73.9596 165.068 73.9141C165.068 73.6315 164.991 73.4036 164.836 73.2305C164.681 73.0573 164.462 72.9707 164.18 72.9707C163.952 72.9707 163.756 73.0117 163.592 73.0938C163.428 73.1667 163.273 73.2533 163.127 73.3535C162.981 73.4447 162.835 73.5312 162.689 73.6133C162.544 73.6862 162.38 73.7227 162.197 73.7227C161.997 73.7227 161.824 73.6589 161.678 73.5312C161.541 73.4036 161.473 73.2396 161.473 73.0391C161.473 72.7383 161.559 72.4648 161.732 72.2188C161.915 71.9727 162.138 71.7676 162.402 71.6035C162.676 71.4303 162.967 71.2982 163.277 71.207C163.596 71.1068 163.888 71.0566 164.152 71.0566C164.398 71.0566 164.645 71.0885 164.891 71.1523C165.137 71.207 165.369 71.2982 165.588 71.4258C165.807 71.5443 166.003 71.6947 166.176 71.877C166.358 72.0501 166.504 72.2552 166.613 72.4922C166.777 72.8294 166.91 73.1895 167.01 73.5723C167.11 73.946 167.188 74.3333 167.242 74.7344C167.297 75.1263 167.333 75.5228 167.352 75.9238C167.37 76.3158 167.379 76.6986 167.379 77.0723ZM165.191 76.6348L165.15 75.7051C165.132 75.7051 165.114 75.7051 165.096 75.7051C165.077 75.696 165.059 75.6914 165.041 75.6914C164.923 75.6914 164.772 75.7233 164.59 75.7871C164.417 75.8418 164.248 75.9238 164.084 76.0332C163.92 76.1335 163.779 76.2474 163.66 76.375C163.551 76.5026 163.496 76.6348 163.496 76.7715C163.496 76.8991 163.542 76.9857 163.633 77.0312C163.724 77.0768 163.829 77.0996 163.947 77.0996C164.148 77.0996 164.362 77.0495 164.59 76.9492C164.818 76.8398 165.018 76.735 165.191 76.6348ZM171.385 79.4922C170.738 79.4922 170.232 79.4056 169.867 79.2324C169.512 79.0684 169.243 78.8314 169.061 78.5215C168.887 78.2116 168.783 77.8379 168.746 77.4004C168.71 76.9629 168.691 76.4753 168.691 75.9375C168.691 75.5091 168.705 75.0807 168.732 74.6523C168.76 74.2148 168.801 73.75 168.855 73.2578C168.728 73.2578 168.628 73.2624 168.555 73.2715C168.482 73.2715 168.423 73.2715 168.377 73.2715C168.085 73.2715 167.835 73.2077 167.625 73.0801C167.406 72.9525 167.297 72.7565 167.297 72.4922C167.297 72.3281 167.361 72.1823 167.488 72.0547C167.607 71.9271 167.762 71.8177 167.953 71.7266C168.145 71.6354 168.35 71.5625 168.568 71.5078C168.796 71.4531 169.01 71.4167 169.211 71.3984C169.211 71.1432 169.229 70.8607 169.266 70.5508C169.302 70.2409 169.366 69.9538 169.457 69.6895C169.557 69.416 169.689 69.1882 169.854 69.0059C170.018 68.8236 170.227 68.7324 170.482 68.7324C170.628 68.7324 170.756 68.778 170.865 68.8691C170.984 68.9512 171.079 69.0605 171.152 69.1973C171.225 69.3249 171.28 69.4707 171.316 69.6348C171.353 69.7988 171.371 69.9583 171.371 70.1133C171.371 70.2956 171.357 70.4824 171.33 70.6738C171.303 70.8652 171.253 71.1022 171.18 71.3848C171.335 71.3665 171.439 71.3574 171.494 71.3574C171.549 71.3483 171.599 71.3438 171.645 71.3438C171.799 71.3438 171.959 71.3574 172.123 71.3848C172.296 71.4121 172.451 71.4577 172.588 71.5215C172.734 71.5853 172.852 71.6719 172.943 71.7812C173.035 71.8815 173.08 72.0046 173.08 72.1504C173.08 72.3145 173.012 72.4603 172.875 72.5879C172.747 72.7155 172.583 72.8249 172.383 72.916C172.182 73.0072 171.968 73.0801 171.74 73.1348C171.512 73.1803 171.298 73.2122 171.098 73.2305C171.043 73.6042 171.002 73.9505 170.975 74.2695C170.956 74.5794 170.934 74.8939 170.906 75.2129C170.888 75.3678 170.87 75.5273 170.852 75.6914C170.842 75.8464 170.838 76.0059 170.838 76.1699C170.838 76.2884 170.842 76.4297 170.852 76.5938C170.861 76.7487 170.893 76.8991 170.947 77.0449C171.002 77.1908 171.089 77.3184 171.207 77.4277C171.326 77.528 171.49 77.5781 171.699 77.5781C171.827 77.5781 171.959 77.569 172.096 77.5508C172.232 77.5234 172.369 77.5098 172.506 77.5098C172.743 77.5098 172.911 77.5918 173.012 77.7559C173.121 77.9199 173.176 78.1296 173.176 78.3848C173.176 78.5762 173.117 78.7448 172.998 78.8906C172.889 79.0273 172.747 79.1367 172.574 79.2188C172.401 79.3099 172.205 79.3783 171.986 79.4238C171.777 79.4694 171.576 79.4922 171.385 79.4922ZM179.178 76.5664C179.178 76.8763 179.077 77.1816 178.877 77.4824C178.686 77.7741 178.439 78.0384 178.139 78.2754C177.847 78.5033 177.533 78.6901 177.195 78.8359C176.858 78.9727 176.548 79.041 176.266 79.041C175.783 79.041 175.35 78.9225 174.967 78.6855C174.593 78.4395 174.279 78.1296 174.023 77.7559C173.768 77.3822 173.572 76.972 173.436 76.5254C173.308 76.0697 173.244 75.6276 173.244 75.1992C173.244 74.7435 173.308 74.2559 173.436 73.7363C173.563 73.2168 173.755 72.7383 174.01 72.3008C174.274 71.8633 174.602 71.4987 174.994 71.207C175.395 70.9154 175.869 70.7695 176.416 70.7695C176.726 70.7695 177.022 70.8242 177.305 70.9336C177.587 71.0339 177.833 71.1797 178.043 71.3711C178.253 71.5625 178.421 71.7904 178.549 72.0547C178.676 72.319 178.74 72.6152 178.74 72.9434C178.74 73.3717 178.649 73.7728 178.467 74.1465C178.285 74.5202 178.043 74.8438 177.742 75.1172C177.441 75.3906 177.095 75.6139 176.703 75.7871C176.311 75.9512 175.91 76.0423 175.5 76.0605C175.536 76.3249 175.641 76.5163 175.814 76.6348C175.997 76.7533 176.211 76.8125 176.457 76.8125C176.639 76.8125 176.817 76.7669 176.99 76.6758C177.163 76.5846 177.332 76.4844 177.496 76.375C177.66 76.2565 177.82 76.1517 177.975 76.0605C178.139 75.9694 178.303 75.9238 178.467 75.9238C178.649 75.9238 178.813 75.9831 178.959 76.1016C179.105 76.2201 179.178 76.375 179.178 76.5664ZM176.963 73.2168C176.963 73.0983 176.931 72.9753 176.867 72.8477C176.803 72.7201 176.703 72.6562 176.566 72.6562C176.366 72.6562 176.197 72.7109 176.061 72.8203C175.924 72.9206 175.81 73.0527 175.719 73.2168C175.628 73.3717 175.555 73.5404 175.5 73.7227C175.454 73.9049 175.427 74.0736 175.418 74.2285C175.546 74.2012 175.696 74.1647 175.869 74.1191C176.051 74.0736 176.22 74.0143 176.375 73.9414C176.539 73.8594 176.676 73.7591 176.785 73.6406C176.904 73.5221 176.963 73.3809 176.963 73.2168ZM177.729 68.3633C177.729 68.4635 177.701 68.5638 177.646 68.6641C177.592 68.7552 177.523 68.8418 177.441 68.9238C177.368 69.0059 177.286 69.0833 177.195 69.1562C177.104 69.2201 177.022 69.2793 176.949 69.334C176.885 69.3796 176.812 69.4342 176.73 69.498C176.658 69.5527 176.576 69.6074 176.484 69.6621C176.402 69.7077 176.316 69.7487 176.225 69.7852C176.143 69.8216 176.061 69.8398 175.979 69.8398C175.906 69.8398 175.842 69.8216 175.787 69.7852C175.732 69.7396 175.705 69.6758 175.705 69.5938C175.705 69.457 175.755 69.293 175.855 69.1016C175.965 68.901 176.097 68.7096 176.252 68.5273C176.407 68.3359 176.571 68.1764 176.744 68.0488C176.917 67.9121 177.077 67.8438 177.223 67.8438C177.35 67.8438 177.464 67.8984 177.564 68.0078C177.674 68.1081 177.729 68.2266 177.729 68.3633ZM191.318 74.4883C191.318 74.6615 191.318 74.8984 191.318 75.1992C191.318 75.4909 191.309 75.8099 191.291 76.1562C191.282 76.5026 191.255 76.8535 191.209 77.209C191.163 77.5553 191.09 77.8698 190.99 78.1523C190.899 78.4349 190.781 78.6673 190.635 78.8496C190.489 79.0319 190.302 79.123 190.074 79.123C189.874 79.123 189.719 79.041 189.609 78.877C189.509 78.7038 189.436 78.5033 189.391 78.2754C189.345 78.0475 189.318 77.8151 189.309 77.5781C189.309 77.3411 189.309 77.1543 189.309 77.0176C189.309 76.6074 189.322 76.2064 189.35 75.8145C189.377 75.4225 189.391 75.0215 189.391 74.6113C189.391 74.5658 189.391 74.4837 189.391 74.3652C189.391 74.2467 189.382 74.1283 189.363 74.0098C189.345 73.8913 189.313 73.7865 189.268 73.6953C189.231 73.6042 189.172 73.5586 189.09 73.5586C188.926 73.5586 188.794 73.6452 188.693 73.8184C188.593 73.9824 188.511 74.1784 188.447 74.4062C188.383 74.6341 188.338 74.862 188.311 75.0898C188.283 75.3086 188.265 75.4727 188.256 75.582C188.238 75.7005 188.219 75.8783 188.201 76.1152C188.192 76.3522 188.174 76.612 188.146 76.8945C188.128 77.1771 188.092 77.4688 188.037 77.7695C187.992 78.0612 187.928 78.3301 187.846 78.5762C187.773 78.8132 187.677 79.0091 187.559 79.1641C187.44 79.319 187.294 79.3965 187.121 79.3965C186.902 79.3965 186.734 79.3008 186.615 79.1094C186.497 78.918 186.41 78.6947 186.355 78.4395C186.301 78.1842 186.264 77.9245 186.246 77.6602C186.237 77.3958 186.232 77.1908 186.232 77.0449C186.232 76.89 186.232 76.7396 186.232 76.5938C186.242 76.4479 186.246 76.2975 186.246 76.1426C186.246 76.0788 186.246 75.974 186.246 75.8281C186.246 75.6823 186.242 75.5228 186.232 75.3496C186.232 75.1673 186.223 74.9805 186.205 74.7891C186.196 74.5977 186.178 74.4245 186.15 74.2695C186.123 74.1055 186.082 73.9733 186.027 73.873C185.973 73.7728 185.909 73.7227 185.836 73.7227C185.717 73.7227 185.608 73.8001 185.508 73.9551C185.408 74.1009 185.321 74.2786 185.248 74.4883C185.175 74.6888 185.116 74.8893 185.07 75.0898C185.034 75.2904 185.016 75.4362 185.016 75.5273V75.6094C185.016 76.0469 185.043 76.4753 185.098 76.8945C185.152 77.3138 185.18 77.7422 185.18 78.1797C185.18 78.4349 185.098 78.6719 184.934 78.8906C184.77 79.1003 184.542 79.2051 184.25 79.2051C184.04 79.2051 183.867 79.1276 183.73 78.9727C183.594 78.8086 183.48 78.599 183.389 78.3438C183.298 78.0885 183.225 77.8105 183.17 77.5098C183.124 77.1999 183.092 76.8991 183.074 76.6074C183.056 76.3066 183.042 76.0378 183.033 75.8008C183.033 75.5547 183.033 75.3724 183.033 75.2539C183.033 75.1172 183.029 74.9167 183.02 74.6523C183.02 74.388 183.024 74.1009 183.033 73.791C183.051 73.4811 183.079 73.1667 183.115 72.8477C183.152 72.5195 183.211 72.2233 183.293 71.959C183.375 71.6947 183.48 71.4805 183.607 71.3164C183.744 71.1432 183.917 71.0566 184.127 71.0566C184.364 71.0566 184.555 71.1204 184.701 71.248C184.856 71.3757 184.934 71.5671 184.934 71.8223C184.934 71.877 184.929 71.9316 184.92 71.9863C184.92 72.041 184.915 72.0911 184.906 72.1367C185.007 71.9909 185.13 71.8451 185.275 71.6992C185.421 71.5443 185.576 71.4076 185.74 71.2891C185.913 71.1615 186.096 71.0612 186.287 70.9883C186.479 70.9062 186.67 70.8652 186.861 70.8652C187.044 70.8652 187.208 70.9154 187.354 71.0156C187.499 71.1159 187.627 71.2435 187.736 71.3984C187.846 71.5443 187.937 71.7038 188.01 71.877C188.083 72.0501 188.133 72.2142 188.16 72.3691C188.251 72.2051 188.361 72.041 188.488 71.877C188.625 71.7038 188.771 71.5534 188.926 71.4258C189.081 71.2982 189.249 71.1934 189.432 71.1113C189.623 71.0293 189.819 70.9883 190.02 70.9883C190.211 70.9883 190.375 71.0566 190.512 71.1934C190.648 71.3301 190.767 71.5078 190.867 71.7266C190.967 71.9362 191.045 72.1777 191.1 72.4512C191.154 72.7155 191.2 72.9798 191.236 73.2441C191.273 73.4993 191.296 73.7409 191.305 73.9688C191.314 74.1875 191.318 74.3607 191.318 74.4883ZM194.477 69.457C194.477 69.5846 194.44 69.6986 194.367 69.7988C194.303 69.8991 194.217 69.9902 194.107 70.0723C193.998 70.1452 193.88 70.2044 193.752 70.25C193.624 70.2865 193.506 70.3047 193.396 70.3047C193.214 70.3047 193.055 70.2591 192.918 70.168C192.781 70.0768 192.713 69.9355 192.713 69.7441C192.713 69.6074 192.745 69.4889 192.809 69.3887C192.882 69.2793 192.968 69.1927 193.068 69.1289C193.169 69.056 193.283 69.0013 193.41 68.9648C193.538 68.9284 193.661 68.9102 193.779 68.9102C193.952 68.9102 194.112 68.9512 194.258 69.0332C194.404 69.1152 194.477 69.2565 194.477 69.457ZM194.586 74.1055C194.586 74.2331 194.586 74.3698 194.586 74.5156C194.586 74.6523 194.581 74.7845 194.572 74.9121C194.563 75.0671 194.559 75.2767 194.559 75.541C194.559 75.7962 194.549 76.0742 194.531 76.375C194.513 76.6758 194.481 76.9811 194.436 77.291C194.399 77.6009 194.335 77.8835 194.244 78.1387C194.153 78.3939 194.03 78.6035 193.875 78.7676C193.729 78.9225 193.542 79.0046 193.314 79.0137C193.141 79.0228 192.995 78.9544 192.877 78.8086C192.758 78.6628 192.658 78.4759 192.576 78.248C192.503 78.0111 192.449 77.7513 192.412 77.4688C192.376 77.1771 192.348 76.8991 192.33 76.6348C192.312 76.3613 192.303 76.1107 192.303 75.8828C192.303 75.6549 192.303 75.4863 192.303 75.377C192.303 75.2311 192.303 75.026 192.303 74.7617C192.303 74.4883 192.312 74.1966 192.33 73.8867C192.348 73.5768 192.38 73.2624 192.426 72.9434C192.48 72.6243 192.553 72.3327 192.645 72.0684C192.745 71.804 192.872 71.5898 193.027 71.4258C193.182 71.2617 193.378 71.1797 193.615 71.1797C193.861 71.1797 194.048 71.3027 194.176 71.5488C194.303 71.7949 194.399 72.082 194.463 72.4102C194.527 72.7383 194.563 73.0664 194.572 73.3945C194.581 73.7135 194.586 73.9505 194.586 74.1055ZM203.855 74.4883C203.855 74.6615 203.855 74.8984 203.855 75.1992C203.855 75.4909 203.846 75.8099 203.828 76.1562C203.819 76.5026 203.792 76.8535 203.746 77.209C203.701 77.5553 203.628 77.8698 203.527 78.1523C203.436 78.4349 203.318 78.6673 203.172 78.8496C203.026 79.0319 202.839 79.123 202.611 79.123C202.411 79.123 202.256 79.041 202.146 78.877C202.046 78.7038 201.973 78.5033 201.928 78.2754C201.882 78.0475 201.855 77.8151 201.846 77.5781C201.846 77.3411 201.846 77.1543 201.846 77.0176C201.846 76.6074 201.859 76.2064 201.887 75.8145C201.914 75.4225 201.928 75.0215 201.928 74.6113C201.928 74.5658 201.928 74.4837 201.928 74.3652C201.928 74.2467 201.919 74.1283 201.9 74.0098C201.882 73.8913 201.85 73.7865 201.805 73.6953C201.768 73.6042 201.709 73.5586 201.627 73.5586C201.463 73.5586 201.331 73.6452 201.23 73.8184C201.13 73.9824 201.048 74.1784 200.984 74.4062C200.921 74.6341 200.875 74.862 200.848 75.0898C200.82 75.3086 200.802 75.4727 200.793 75.582C200.775 75.7005 200.757 75.8783 200.738 76.1152C200.729 76.3522 200.711 76.612 200.684 76.8945C200.665 77.1771 200.629 77.4688 200.574 77.7695C200.529 78.0612 200.465 78.3301 200.383 78.5762C200.31 78.8132 200.214 79.0091 200.096 79.1641C199.977 79.319 199.831 79.3965 199.658 79.3965C199.439 79.3965 199.271 79.3008 199.152 79.1094C199.034 78.918 198.947 78.6947 198.893 78.4395C198.838 78.1842 198.801 77.9245 198.783 77.6602C198.774 77.3958 198.77 77.1908 198.77 77.0449C198.77 76.89 198.77 76.7396 198.77 76.5938C198.779 76.4479 198.783 76.2975 198.783 76.1426C198.783 76.0788 198.783 75.974 198.783 75.8281C198.783 75.6823 198.779 75.5228 198.77 75.3496C198.77 75.1673 198.76 74.9805 198.742 74.7891C198.733 74.5977 198.715 74.4245 198.688 74.2695C198.66 74.1055 198.619 73.9733 198.564 73.873C198.51 73.7728 198.446 73.7227 198.373 73.7227C198.255 73.7227 198.145 73.8001 198.045 73.9551C197.945 74.1009 197.858 74.2786 197.785 74.4883C197.712 74.6888 197.653 74.8893 197.607 75.0898C197.571 75.2904 197.553 75.4362 197.553 75.5273V75.6094C197.553 76.0469 197.58 76.4753 197.635 76.8945C197.689 77.3138 197.717 77.7422 197.717 78.1797C197.717 78.4349 197.635 78.6719 197.471 78.8906C197.307 79.1003 197.079 79.2051 196.787 79.2051C196.577 79.2051 196.404 79.1276 196.268 78.9727C196.131 78.8086 196.017 78.599 195.926 78.3438C195.835 78.0885 195.762 77.8105 195.707 77.5098C195.661 77.1999 195.63 76.8991 195.611 76.6074C195.593 76.3066 195.579 76.0378 195.57 75.8008C195.57 75.5547 195.57 75.3724 195.57 75.2539C195.57 75.1172 195.566 74.9167 195.557 74.6523C195.557 74.388 195.561 74.1009 195.57 73.791C195.589 73.4811 195.616 73.1667 195.652 72.8477C195.689 72.5195 195.748 72.2233 195.83 71.959C195.912 71.6947 196.017 71.4805 196.145 71.3164C196.281 71.1432 196.454 71.0566 196.664 71.0566C196.901 71.0566 197.092 71.1204 197.238 71.248C197.393 71.3757 197.471 71.5671 197.471 71.8223C197.471 71.877 197.466 71.9316 197.457 71.9863C197.457 72.041 197.452 72.0911 197.443 72.1367C197.544 71.9909 197.667 71.8451 197.812 71.6992C197.958 71.5443 198.113 71.4076 198.277 71.2891C198.451 71.1615 198.633 71.0612 198.824 70.9883C199.016 70.9062 199.207 70.8652 199.398 70.8652C199.581 70.8652 199.745 70.9154 199.891 71.0156C200.036 71.1159 200.164 71.2435 200.273 71.3984C200.383 71.5443 200.474 71.7038 200.547 71.877C200.62 72.0501 200.67 72.2142 200.697 72.3691C200.788 72.2051 200.898 72.041 201.025 71.877C201.162 71.7038 201.308 71.5534 201.463 71.4258C201.618 71.2982 201.786 71.1934 201.969 71.1113C202.16 71.0293 202.356 70.9883 202.557 70.9883C202.748 70.9883 202.912 71.0566 203.049 71.1934C203.186 71.3301 203.304 71.5078 203.404 71.7266C203.505 71.9362 203.582 72.1777 203.637 72.4512C203.691 72.7155 203.737 72.9798 203.773 73.2441C203.81 73.4993 203.833 73.7409 203.842 73.9688C203.851 74.1875 203.855 74.3607 203.855 74.4883ZM210.896 71.6445C210.896 71.9362 210.819 72.2096 210.664 72.4648C210.518 72.7109 210.331 72.9434 210.104 73.1621C209.885 73.3717 209.639 73.5586 209.365 73.7227C209.101 73.8776 208.855 74.0007 208.627 74.0918C208.682 74.5293 208.709 74.9805 208.709 75.4453C208.709 75.6003 208.704 75.7734 208.695 75.9648C208.695 76.1562 208.668 76.3385 208.613 76.5117C208.568 76.6758 208.486 76.8171 208.367 76.9355C208.258 77.054 208.098 77.1133 207.889 77.1133C207.524 77.1133 207.278 76.931 207.15 76.5664C207.105 76.4297 207.068 76.2474 207.041 76.0195C207.014 75.7826 206.991 75.541 206.973 75.2949C206.964 75.0397 206.959 74.7936 206.959 74.5566C206.959 74.3197 206.959 74.1237 206.959 73.9688C206.959 73.8411 206.964 73.6908 206.973 73.5176C206.991 73.3444 207.036 73.2031 207.109 73.0938C207.191 72.9753 207.328 72.8613 207.52 72.752C207.711 72.6335 207.907 72.5104 208.107 72.3828C208.317 72.2552 208.499 72.1139 208.654 71.959C208.809 71.804 208.887 71.6217 208.887 71.4121C208.887 71.2572 208.85 71.1159 208.777 70.9883C208.704 70.8607 208.609 70.7559 208.49 70.6738C208.381 70.5827 208.253 70.5143 208.107 70.4688C207.971 70.4141 207.829 70.3867 207.684 70.3867C207.337 70.3867 207.064 70.446 206.863 70.5645C206.663 70.6738 206.49 70.7969 206.344 70.9336C206.207 71.0612 206.075 71.1842 205.947 71.3027C205.829 71.4121 205.674 71.4668 205.482 71.4668C205.264 71.4668 205.063 71.3893 204.881 71.2344C204.708 71.0794 204.621 70.8926 204.621 70.6738C204.621 70.3184 204.726 70.0176 204.936 69.7715C205.145 69.5163 205.405 69.3158 205.715 69.1699C206.025 69.015 206.353 68.9056 206.699 68.8418C207.046 68.7689 207.355 68.7324 207.629 68.7324C207.993 68.7324 208.367 68.8145 208.75 68.9785C209.142 69.1335 209.493 69.3431 209.803 69.6074C210.122 69.8717 210.382 70.1816 210.582 70.5371C210.792 70.8926 210.896 71.2617 210.896 71.6445ZM208.873 78.2891C208.873 78.444 208.832 78.5762 208.75 78.6855C208.677 78.7949 208.581 78.8861 208.463 78.959C208.354 79.0319 208.226 79.0866 208.08 79.123C207.943 79.1595 207.811 79.1777 207.684 79.1777C207.474 79.1777 207.278 79.1276 207.096 79.0273C206.923 78.9271 206.836 78.763 206.836 78.5352C206.836 78.3893 206.872 78.2617 206.945 78.1523C207.027 78.0339 207.128 77.9336 207.246 77.8516C207.365 77.7695 207.492 77.7103 207.629 77.6738C207.775 77.6283 207.911 77.6055 208.039 77.6055C208.249 77.6055 208.44 77.6602 208.613 77.7695C208.786 77.8789 208.873 78.0521 208.873 78.2891Z" fill="white"/>
<defs>
<filter id="filter0_i_871_289" x="36" y="30" width="182" height="122" filterUnits="userSpaceOnUse" color-interpolation-filters="sRGB">
<feFlood flood-opacity="0" result="BackgroundImageFix"/>
<feBlend mode="normal" in="SourceGraphic" in2="BackgroundImageFix" result="shape"/>
<feColorMatrix in="SourceAlpha" type="matrix" values="0 0 0 0 0 0 0 0 0 0 0 0 0 0 0 0 0 0 127 0" result="hardAlpha"/>
<feOffset dy="4"/>
<feGaussianBlur stdDeviation="2"/>
<feComposite in2="hardAlpha" operator="arithmetic" k2="-1" k3="1"/>
<feColorMatrix type="matrix" values="0 0 0 0 0 0 0 0 0 0 0 0 0 0 0 0 0 0 0.25 0"/>
<feBlend mode="normal" in2="shape" result="effect1_innerShadow_871_289"/>
</filter>
</defs>
</svg>
