<svg width="234" height="132" viewBox="0 0 234 132" fill="none" xmlns="http://www.w3.org/2000/svg">
<g filter="url(#filter0_i_694_198)">
<path fill-rule="evenodd" clip-rule="evenodd" d="M33.2704 68.0543C10.8056 61.0757 1 50.7764 1 39.6292C1 25.9135 20.7773 12.3641 53.4944 5.6647C69.3632 2.41527 88.0078 1 109.43 1C175.017 1 235.502 14.994 232.92 39.6292C232.92 51.8528 221.726 63.0932 198.927 69.8036C186.122 73.5726 169.82 75.7522 149.306 76.3438C138.498 99.4643 124.591 111.274 101.663 130.105C119.364 108.07 130.122 94.0435 134.887 76.622C89.6432 78.563 55.3456 74.9119 33.2704 68.0543Z" fill="#F4719C"/>
</g>
<path d="M33.2704 68.0543L33.567 67.0994L33.2704 68.0543ZM53.4944 5.6647L53.2937 4.68503L53.4944 5.6647ZM232.92 39.6292L231.926 39.5249C231.922 39.5596 231.92 39.5944 231.92 39.6292H232.92ZM198.927 69.8036L199.21 70.7629L198.927 69.8036ZM149.306 76.3438L149.277 75.3442C148.9 75.3551 148.56 75.5779 148.4 75.9203L149.306 76.3438ZM101.663 130.105L100.883 129.479C100.562 129.879 100.595 130.456 100.959 130.816C101.324 131.177 101.901 131.203 102.297 130.878L101.663 130.105ZM134.887 76.622L135.852 76.8859C135.936 76.5778 135.868 76.2481 135.669 75.9984C135.47 75.7488 135.163 75.6093 134.844 75.623L134.887 76.622ZM0 39.6292C0 51.4891 10.4319 62.0068 32.9737 69.0093L33.567 67.0994C11.1792 60.1446 2 50.0636 2 39.6292H0ZM53.2937 4.68503C36.8573 8.0507 23.6024 13.1493 14.4289 19.1802C5.29253 25.1868 0 32.2657 0 39.6292H2C2 33.2769 6.5961 26.7233 15.5276 20.8514C24.4221 15.0039 37.4144 9.97812 53.695 6.64437L53.2937 4.68503ZM109.43 0C87.9692 0 69.2519 1.41731 53.2937 4.68503L53.695 6.64437C69.4745 3.41323 88.0463 2 109.43 2V0ZM233.915 39.7334C234.611 33.0865 231.018 27.2887 224.539 22.402C218.066 17.519 208.563 13.4185 197.013 10.115C173.897 3.50288 142.279 0 109.43 0V2C142.168 2 173.586 5.49412 196.463 12.0378C207.911 15.3122 217.144 19.3293 223.335 23.9988C229.521 28.6646 232.52 33.8542 231.926 39.5249L233.915 39.7334ZM199.21 70.7629C222.1 64.0254 233.92 52.5667 233.92 39.6292H231.92C231.92 51.1389 221.351 62.161 198.645 68.8443L199.21 70.7629ZM149.335 77.3433C169.896 76.7504 186.292 74.565 199.21 70.7629L198.645 68.8443C185.953 72.5801 169.744 74.7539 149.277 75.3442L149.335 77.3433ZM148.4 75.9203C137.698 98.8138 123.96 110.499 101.028 129.333L102.297 130.878C125.222 112.05 139.298 100.115 150.212 76.7672L148.4 75.9203ZM102.442 130.732C120.117 108.73 131.022 94.5428 135.852 76.8859L133.923 76.3582C129.222 93.5443 118.611 107.411 100.883 129.479L102.442 130.732ZM32.9737 69.0093C55.2039 75.9151 89.6306 79.5645 134.93 77.6211L134.844 75.623C89.6557 77.5616 55.4872 73.9088 33.567 67.0994L32.9737 69.0093Z" fill="#F4719C"/>
<path d="M39.25 28.6562C39.25 29.0312 39.2031 29.4531 39.1094 29.9219C39.0156 30.3802 38.8958 30.849 38.75 31.3281C38.6146 31.8073 38.4635 32.276 38.2969 32.7344C38.1406 33.1823 38 33.5885 37.875 33.9531C37.7917 34.1823 37.6979 34.4688 37.5938 34.8125C37.5 35.1458 37.3854 35.5 37.25 35.875C37.125 36.25 36.9844 36.625 36.8281 37C36.6719 37.375 36.5 37.7135 36.3125 38.0156C36.125 38.3073 35.9167 38.5469 35.6875 38.7344C35.4688 38.9219 35.2292 39.0156 34.9688 39.0156C34.75 39.0156 34.5365 38.9167 34.3281 38.7188C34.1302 38.5208 33.9375 38.2708 33.75 37.9688C33.5729 37.6562 33.401 37.3125 33.2344 36.9375C33.0781 36.5521 32.9323 36.1771 32.7969 35.8125C32.6719 35.4479 32.5625 35.1094 32.4688 34.7969C32.3854 34.4844 32.3229 34.2448 32.2812 34.0781C32.0729 33.2656 31.875 32.4479 31.6875 31.625C31.5 30.7917 31.4062 29.9583 31.4062 29.125C31.4062 28.9167 31.4167 28.7031 31.4375 28.4844C31.4583 28.2552 31.5104 28.0469 31.5938 27.8594C31.6771 27.6719 31.7917 27.5208 31.9375 27.4062C32.0938 27.2812 32.3073 27.2188 32.5781 27.2188C32.8073 27.2188 33.0156 27.349 33.2031 27.6094C33.401 27.8594 33.5781 28.1875 33.7344 28.5938C33.8906 29 34.0312 29.4531 34.1562 29.9531C34.2917 30.4531 34.4167 30.9479 34.5312 31.4375C34.6458 31.9167 34.7552 32.3698 34.8594 32.7969C34.9635 33.2135 35.0677 33.5469 35.1719 33.7969C35.2344 33.5885 35.3229 33.2865 35.4375 32.8906C35.5625 32.4844 35.7031 32.0417 35.8594 31.5625C36.026 31.0833 36.2031 30.5938 36.3906 30.0938C36.5885 29.5833 36.7917 29.125 37 28.7188C37.2188 28.3021 37.4427 27.9635 37.6719 27.7031C37.901 27.4427 38.1354 27.3125 38.375 27.3125C38.5521 27.3125 38.6979 27.3542 38.8125 27.4375C38.9271 27.5208 39.0156 27.6302 39.0781 27.7656C39.1406 27.901 39.1823 28.0469 39.2031 28.2031C39.2344 28.3594 39.25 28.5104 39.25 28.6562ZM42.2969 39.4531C41.7656 39.4531 41.3021 39.3125 40.9062 39.0312C40.5104 38.75 40.1771 38.3906 39.9062 37.9531C39.6354 37.5156 39.4323 37.0312 39.2969 36.5C39.1615 35.9583 39.0938 35.4271 39.0938 34.9062C39.0938 34.3542 39.1615 33.7865 39.2969 33.2031C39.4323 32.6094 39.6406 32.0729 39.9219 31.5938C40.2031 31.1042 40.5625 30.7083 41 30.4062C41.4375 30.0938 41.9583 29.9375 42.5625 29.9375C43.1458 29.9375 43.6406 30.099 44.0469 30.4219C44.4635 30.7344 44.7969 31.1302 45.0469 31.6094C45.2969 32.0781 45.474 32.5938 45.5781 33.1562C45.6823 33.7188 45.7188 34.25 45.6875 34.75C45.6562 35.3021 45.5677 35.8594 45.4219 36.4219C45.2865 36.9844 45.0833 37.4896 44.8125 37.9375C44.5417 38.3854 44.1979 38.75 43.7812 39.0312C43.3646 39.3125 42.8698 39.4531 42.2969 39.4531ZM42.4531 32.3906C42.2969 32.3906 42.1562 32.474 42.0312 32.6406C41.9167 32.8073 41.8177 33.0104 41.7344 33.25C41.6615 33.4896 41.6042 33.7448 41.5625 34.0156C41.5208 34.276 41.5 34.5052 41.5 34.7031C41.5 34.9531 41.5208 35.224 41.5625 35.5156C41.6146 35.8073 41.6823 36.0781 41.7656 36.3281C41.849 36.5677 41.9479 36.7708 42.0625 36.9375C42.1875 37.0938 42.3281 37.1719 42.4844 37.1719C42.651 37.1719 42.7917 37.0938 42.9062 36.9375C43.0312 36.7812 43.1302 36.5833 43.2031 36.3438C43.276 36.1042 43.3281 35.8438 43.3594 35.5625C43.3906 35.2708 43.4062 35 43.4062 34.75C43.4062 34.5208 43.3854 34.2708 43.3438 34C43.3021 33.7188 43.2396 33.4583 43.1562 33.2188C43.0833 32.9792 42.9844 32.7812 42.8594 32.625C42.7448 32.4688 42.6094 32.3906 42.4531 32.3906ZM52.2812 33C52.2812 33.0521 52.276 33.1094 52.2656 33.1719C52.2552 33.224 52.2396 33.276 52.2188 33.3281C52.125 33.5677 51.9792 33.7708 51.7812 33.9375C51.5833 34.0938 51.349 34.1719 51.0781 34.1719C50.6719 34.1719 50.3958 33.9688 50.25 33.5625C50.2292 33.5104 50.2188 33.4531 50.2188 33.3906C50.2188 33.3177 50.2135 33.2448 50.2031 33.1719V32.7188C50.1823 32.5729 50.1458 32.4583 50.0938 32.375C50.0417 32.2917 49.9531 32.25 49.8281 32.25C49.651 32.25 49.4792 32.3646 49.3125 32.5938C49.1562 32.8125 49.0156 33.0781 48.8906 33.3906C48.776 33.6927 48.6823 34.0052 48.6094 34.3281C48.5365 34.651 48.5 34.9115 48.5 35.1094C48.5 35.2656 48.5104 35.4583 48.5312 35.6875C48.5521 35.9062 48.5938 36.1198 48.6562 36.3281C48.7188 36.5365 48.8021 36.7188 48.9062 36.875C49.0208 37.0208 49.1667 37.0938 49.3438 37.0938C49.5208 37.0938 49.6823 37.0417 49.8281 36.9375C49.9844 36.8229 50.1354 36.6927 50.2812 36.5469C50.4167 36.4219 50.5625 36.2917 50.7188 36.1562C50.8854 36.0208 51.0729 35.9531 51.2812 35.9531C51.5417 35.9531 51.7448 36.0469 51.8906 36.2344C52.0469 36.4219 52.125 36.6354 52.125 36.875C52.125 37.2292 52.0312 37.5625 51.8438 37.875C51.6562 38.1771 51.4219 38.4427 51.1406 38.6719C50.8594 38.8906 50.5469 39.0625 50.2031 39.1875C49.8594 39.3229 49.5312 39.3906 49.2188 39.3906C48.6562 39.3906 48.1771 39.25 47.7812 38.9688C47.3958 38.6875 47.0833 38.3333 46.8438 37.9062C46.6042 37.4688 46.4323 36.9948 46.3281 36.4844C46.224 35.974 46.1719 35.4896 46.1719 35.0312C46.1719 34.5 46.2448 33.9271 46.3906 33.3125C46.5365 32.6875 46.7604 32.1094 47.0625 31.5781C47.3646 31.0469 47.75 30.6042 48.2188 30.25C48.6979 29.8958 49.2656 29.7188 49.9219 29.7188C50.3281 29.7188 50.6771 29.8073 50.9688 29.9844C51.2708 30.1615 51.5156 30.3958 51.7031 30.6875C51.901 30.9688 52.0469 31.2865 52.1406 31.6406C52.2448 31.9948 52.2969 32.3438 52.2969 32.6875C52.2969 32.7396 52.2969 32.7917 52.2969 32.8438C52.2969 32.8958 52.2917 32.9479 52.2812 33ZM59.7031 36.2188C59.7031 36.5729 59.5885 36.9219 59.3594 37.2656C59.1406 37.599 58.8594 37.901 58.5156 38.1719C58.1823 38.4323 57.8229 38.6458 57.4375 38.8125C57.0521 38.9688 56.6979 39.0469 56.375 39.0469C55.8229 39.0469 55.3281 38.9115 54.8906 38.6406C54.4635 38.3594 54.1042 38.0052 53.8125 37.5781C53.5208 37.151 53.2969 36.6823 53.1406 36.1719C52.9948 35.651 52.9219 35.1458 52.9219 34.6562C52.9219 34.1354 52.9948 33.5781 53.1406 32.9844C53.2865 32.3906 53.5052 31.8438 53.7969 31.3438C54.099 30.8438 54.474 30.4271 54.9219 30.0938C55.3802 29.7604 55.9219 29.5938 56.5469 29.5938C56.901 29.5938 57.2396 29.6562 57.5625 29.7812C57.8854 29.8958 58.1667 30.0625 58.4062 30.2812C58.6458 30.5 58.8385 30.7604 58.9844 31.0625C59.1302 31.3646 59.2031 31.7031 59.2031 32.0781C59.2031 32.5677 59.099 33.026 58.8906 33.4531C58.6823 33.8802 58.4062 34.25 58.0625 34.5625C57.7188 34.875 57.3229 35.1302 56.875 35.3281C56.4271 35.5156 55.9688 35.6198 55.5 35.6406C55.5417 35.9427 55.6615 36.1615 55.8594 36.2969C56.0677 36.4323 56.3125 36.5 56.5938 36.5C56.8021 36.5 57.0052 36.4479 57.2031 36.3438C57.401 36.2396 57.5938 36.125 57.7812 36C57.9688 35.8646 58.151 35.7448 58.3281 35.6406C58.5156 35.5365 58.7031 35.4844 58.8906 35.4844C59.099 35.4844 59.2865 35.5521 59.4531 35.6875C59.6198 35.8229 59.7031 36 59.7031 36.2188ZM57.1719 32.3906C57.1719 32.2552 57.1354 32.1146 57.0625 31.9688C56.9896 31.8229 56.875 31.75 56.7188 31.75C56.4896 31.75 56.2969 31.8125 56.1406 31.9375C55.9844 32.0521 55.8542 32.2031 55.75 32.3906C55.6458 32.5677 55.5625 32.7604 55.5 32.9688C55.4479 33.1771 55.4167 33.3698 55.4062 33.5469C55.5521 33.5156 55.724 33.474 55.9219 33.4219C56.1302 33.3698 56.3229 33.3021 56.5 33.2188C56.6875 33.125 56.8438 33.0104 56.9688 32.875C57.1042 32.7396 57.1719 32.5781 57.1719 32.3906ZM58.5625 28.5469C58.5625 28.6302 58.5469 28.6823 58.5156 28.7031C58.4844 28.724 58.4323 28.7344 58.3594 28.7344C58.2344 28.7344 58.0938 28.7031 57.9375 28.6406C57.7917 28.5781 57.6406 28.5 57.4844 28.4062C57.3385 28.3125 57.1927 28.2135 57.0469 28.1094C56.9115 28.0052 56.7969 27.9115 56.7031 27.8281C56.599 27.9115 56.474 28.0104 56.3281 28.125C56.1927 28.2396 56.0469 28.349 55.8906 28.4531C55.7344 28.5469 55.5781 28.6302 55.4219 28.7031C55.2656 28.7656 55.1198 28.7969 54.9844 28.7969C54.9323 28.7969 54.8802 28.7865 54.8281 28.7656C54.7865 28.7448 54.7656 28.6927 54.7656 28.6094C54.7656 28.4531 54.8333 28.2552 54.9688 28.0156C55.1042 27.776 55.2708 27.5469 55.4688 27.3281C55.6667 27.1094 55.875 26.9219 56.0938 26.7656C56.3125 26.6094 56.5052 26.5312 56.6719 26.5312C56.8385 26.5312 57.0312 26.6094 57.25 26.7656C57.4688 26.9115 57.6719 27.0885 57.8594 27.2969C58.0573 27.5052 58.224 27.724 58.3594 27.9531C58.4948 28.1823 58.5625 28.3802 58.5625 28.5469ZM68.6719 30.4062C68.6719 30.7083 68.5677 30.9323 68.3594 31.0781C68.1615 31.224 67.9375 31.3646 67.6875 31.5C67.4375 31.625 67.2083 31.776 67 31.9531C66.8021 32.1302 66.7031 32.3958 66.7031 32.75C66.7031 32.9375 66.7448 33.099 66.8281 33.2344C66.9219 33.3698 67.0312 33.4948 67.1562 33.6094C67.2917 33.7135 67.4375 33.8229 67.5938 33.9375C67.75 34.0521 67.8906 34.1823 68.0156 34.3281C68.151 34.474 68.2604 34.651 68.3438 34.8594C68.4375 35.0677 68.4844 35.3229 68.4844 35.625C68.4844 36.0625 68.3698 36.4948 68.1406 36.9219C67.9219 37.3385 67.6354 37.7135 67.2812 38.0469C66.9375 38.3698 66.5469 38.6302 66.1094 38.8281C65.6719 39.026 65.2396 39.125 64.8125 39.125C64.6354 39.125 64.4583 39.1094 64.2812 39.0781C64.1042 39.0573 63.9427 39.0104 63.7969 38.9375C63.6615 38.8646 63.5469 38.7656 63.4531 38.6406C63.3594 38.5052 63.3125 38.3333 63.3125 38.125C63.3125 37.8333 63.3698 37.6094 63.4844 37.4531C63.599 37.2865 63.7448 37.1562 63.9219 37.0625C64.099 36.9688 64.2865 36.8958 64.4844 36.8438C64.6927 36.7917 64.8854 36.7292 65.0625 36.6562C65.2396 36.5729 65.3854 36.4688 65.5 36.3438C65.6146 36.2188 65.6719 36.0417 65.6719 35.8125C65.6719 35.5938 65.5833 35.3698 65.4062 35.1406C65.2396 34.901 65.0521 34.651 64.8438 34.3906C64.6354 34.1198 64.4427 33.8333 64.2656 33.5312C64.099 33.2292 64.0156 32.8958 64.0156 32.5312C64.0156 32.0833 64.1042 31.6719 64.2812 31.2969C64.4688 30.9115 64.7135 30.5781 65.0156 30.2969C65.3281 30.0156 65.6823 29.7969 66.0781 29.6406C66.474 29.474 66.8906 29.3906 67.3281 29.3906C67.4948 29.3906 67.6562 29.4062 67.8125 29.4375C67.9792 29.4688 68.125 29.526 68.25 29.6094C68.375 29.6823 68.474 29.7865 68.5469 29.9219C68.6302 30.0469 68.6719 30.2083 68.6719 30.4062ZM75.9375 36.7969C75.9375 36.9844 75.9271 37.2292 75.9062 37.5312C75.8958 37.8333 75.8542 38.1302 75.7812 38.4219C75.7083 38.7031 75.5938 38.9479 75.4375 39.1562C75.2812 39.3646 75.0625 39.4688 74.7812 39.4688C74.3958 39.4688 74.099 39.3438 73.8906 39.0938C73.6823 38.8438 73.5833 38.5312 73.5938 38.1562C73.2604 38.4479 72.8802 38.6771 72.4531 38.8438C72.0365 39.0104 71.6094 39.0938 71.1719 39.0938C70.8698 39.0938 70.5833 39.0208 70.3125 38.875C70.0417 38.7292 69.8021 38.5417 69.5938 38.3125C69.3854 38.0833 69.2188 37.8281 69.0938 37.5469C68.9688 37.2552 68.9062 36.9688 68.9062 36.6875C68.9062 36.1875 69.0573 35.75 69.3594 35.375C69.6719 35 70.0521 34.6823 70.5 34.4219C70.9479 34.151 71.4219 33.9375 71.9219 33.7812C72.4323 33.625 72.8854 33.5208 73.2812 33.4688C73.2812 33.4167 73.2812 33.3698 73.2812 33.3281C73.2917 33.2865 73.2969 33.2396 73.2969 33.1875C73.2969 32.8646 73.2083 32.6042 73.0312 32.4062C72.8542 32.2083 72.6042 32.1094 72.2812 32.1094C72.0208 32.1094 71.7969 32.1562 71.6094 32.25C71.4219 32.3333 71.2448 32.4323 71.0781 32.5469C70.9115 32.651 70.7448 32.75 70.5781 32.8438C70.4115 32.9271 70.224 32.9688 70.0156 32.9688C69.7865 32.9688 69.5885 32.8958 69.4219 32.75C69.2656 32.6042 69.1875 32.4167 69.1875 32.1875C69.1875 31.8438 69.2865 31.5312 69.4844 31.25C69.6927 30.9688 69.9479 30.7344 70.25 30.5469C70.5625 30.349 70.8958 30.1979 71.25 30.0938C71.6146 29.9792 71.9479 29.9219 72.25 29.9219C72.5312 29.9219 72.8125 29.9583 73.0938 30.0312C73.375 30.0938 73.6406 30.1979 73.8906 30.3438C74.1406 30.4792 74.3646 30.651 74.5625 30.8594C74.7708 31.0573 74.9375 31.2917 75.0625 31.5625C75.25 31.9479 75.401 32.3594 75.5156 32.7969C75.6302 33.224 75.7188 33.6667 75.7812 34.125C75.8438 34.5729 75.8854 35.026 75.9062 35.4844C75.9271 35.9323 75.9375 36.3698 75.9375 36.7969ZM73.4375 36.2969L73.3906 35.2344C73.3698 35.2344 73.349 35.2344 73.3281 35.2344C73.3073 35.224 73.2865 35.2188 73.2656 35.2188C73.1302 35.2188 72.9583 35.2552 72.75 35.3281C72.5521 35.3906 72.3594 35.4844 72.1719 35.6094C71.9844 35.724 71.8229 35.8542 71.6875 36C71.5625 36.1458 71.5 36.2969 71.5 36.4531C71.5 36.599 71.5521 36.6979 71.6562 36.75C71.7604 36.8021 71.8802 36.8281 72.0156 36.8281C72.2448 36.8281 72.4896 36.7708 72.75 36.6562C73.0104 36.5312 73.2396 36.4115 73.4375 36.2969ZM84.2656 33.8438C84.2656 34.1458 84.2396 34.4896 84.1875 34.875C84.1458 35.25 84.0729 35.6354 83.9688 36.0312C83.875 36.4271 83.7448 36.8125 83.5781 37.1875C83.4219 37.5625 83.224 37.901 82.9844 38.2031C82.7552 38.4948 82.4844 38.7292 82.1719 38.9062C81.8698 39.0833 81.5156 39.1719 81.1094 39.1719C80.6823 39.1719 80.2917 39.0729 79.9375 38.875C79.5938 38.6771 79.2969 38.4062 79.0469 38.0625C79.0156 38.3438 78.901 38.5938 78.7031 38.8125C78.5052 39.0208 78.2552 39.125 77.9531 39.125C77.776 39.125 77.625 39.0365 77.5 38.8594C77.3854 38.6823 77.2917 38.4583 77.2188 38.1875C77.1458 37.9062 77.0885 37.599 77.0469 37.2656C77.0156 36.9323 76.9948 36.6094 76.9844 36.2969C76.974 35.9844 76.9688 35.7031 76.9688 35.4531C76.9688 35.2031 76.9688 35.026 76.9688 34.9219C76.9688 34.5677 76.9688 34.2135 76.9688 33.8594C76.9792 33.5052 76.9896 33.1458 77 32.7812C77 32.6042 76.9948 32.3385 76.9844 31.9844C76.9844 31.6302 76.9896 31.2396 77 30.8125C77.0104 30.375 77.0312 29.9323 77.0625 29.4844C77.1042 29.026 77.1719 28.6094 77.2656 28.2344C77.3594 27.8594 77.4896 27.5521 77.6562 27.3125C77.8229 27.0729 78.0365 26.9479 78.2969 26.9375C78.5052 26.9375 78.6823 27.0104 78.8281 27.1562C78.974 27.3021 79.0938 27.4948 79.1875 27.7344C79.2917 27.974 79.3698 28.2448 79.4219 28.5469C79.4844 28.8385 79.526 29.1354 79.5469 29.4375C79.5781 29.7292 79.5938 30.0104 79.5938 30.2812C79.6042 30.5417 79.6094 30.7552 79.6094 30.9219C79.6094 30.9531 79.6042 31.026 79.5938 31.1406C79.5938 31.2448 79.5938 31.3594 79.5938 31.4844C79.5938 31.6094 79.5938 31.724 79.5938 31.8281C79.5938 31.9219 79.5938 31.974 79.5938 31.9844C79.6875 31.7865 79.8229 31.5938 80 31.4062C80.1771 31.2188 80.375 31.0521 80.5938 30.9062C80.8125 30.7604 81.0417 30.6406 81.2812 30.5469C81.5208 30.4531 81.75 30.4062 81.9688 30.4062C82.4062 30.4062 82.7708 30.5208 83.0625 30.75C83.3646 30.9688 83.6042 31.25 83.7812 31.5938C83.9583 31.9375 84.0833 32.3125 84.1562 32.7188C84.2292 33.1146 84.2656 33.4896 84.2656 33.8438ZM81.9688 34.3125C81.9688 34.1875 81.9583 34.0521 81.9375 33.9062C81.9271 33.7604 81.8906 33.625 81.8281 33.5C81.776 33.375 81.6979 33.2708 81.5938 33.1875C81.5 33.1042 81.375 33.0625 81.2188 33.0625C81.0521 33.0625 80.8854 33.099 80.7188 33.1719C80.5625 33.2448 80.4115 33.3385 80.2656 33.4531C80.1198 33.5677 79.9844 33.6927 79.8594 33.8281C79.7344 33.9531 79.625 34.0781 79.5312 34.2031L79.375 35.5938C79.5417 35.8333 79.7448 36.026 79.9844 36.1719C80.224 36.3073 80.4948 36.375 80.7969 36.375C81.026 36.375 81.2135 36.3021 81.3594 36.1562C81.5156 36.0104 81.6354 35.8333 81.7188 35.625C81.8125 35.4062 81.875 35.1771 81.9062 34.9375C81.9479 34.6979 81.9688 34.4896 81.9688 34.3125ZM91.7656 36.2188C91.7656 36.5729 91.651 36.9219 91.4219 37.2656C91.2031 37.599 90.9219 37.901 90.5781 38.1719C90.2448 38.4323 89.8854 38.6458 89.5 38.8125C89.1146 38.9688 88.7604 39.0469 88.4375 39.0469C87.8854 39.0469 87.3906 38.9115 86.9531 38.6406C86.526 38.3594 86.1667 38.0052 85.875 37.5781C85.5833 37.151 85.3594 36.6823 85.2031 36.1719C85.0573 35.651 84.9844 35.1458 84.9844 34.6562C84.9844 34.1354 85.0573 33.5781 85.2031 32.9844C85.349 32.3906 85.5677 31.8438 85.8594 31.3438C86.1615 30.8438 86.5365 30.4271 86.9844 30.0938C87.4427 29.7604 87.9844 29.5938 88.6094 29.5938C88.9635 29.5938 89.3021 29.6562 89.625 29.7812C89.9479 29.8958 90.2292 30.0625 90.4688 30.2812C90.7083 30.5 90.901 30.7604 91.0469 31.0625C91.1927 31.3646 91.2656 31.7031 91.2656 32.0781C91.2656 32.5677 91.1615 33.026 90.9531 33.4531C90.7448 33.8802 90.4688 34.25 90.125 34.5625C89.7812 34.875 89.3854 35.1302 88.9375 35.3281C88.4896 35.5156 88.0312 35.6198 87.5625 35.6406C87.6042 35.9427 87.724 36.1615 87.9219 36.2969C88.1302 36.4323 88.375 36.5 88.6562 36.5C88.8646 36.5 89.0677 36.4479 89.2656 36.3438C89.4635 36.2396 89.6562 36.125 89.8438 36C90.0312 35.8646 90.2135 35.7448 90.3906 35.6406C90.5781 35.5365 90.7656 35.4844 90.9531 35.4844C91.1615 35.4844 91.349 35.5521 91.5156 35.6875C91.6823 35.8229 91.7656 36 91.7656 36.2188ZM89.2344 32.3906C89.2344 32.2552 89.1979 32.1146 89.125 31.9688C89.0521 31.8229 88.9375 31.75 88.7812 31.75C88.5521 31.75 88.3594 31.8125 88.2031 31.9375C88.0469 32.0521 87.9167 32.2031 87.8125 32.3906C87.7083 32.5677 87.625 32.7604 87.5625 32.9688C87.5104 33.1771 87.4792 33.3698 87.4688 33.5469C87.6146 33.5156 87.7865 33.474 87.9844 33.4219C88.1927 33.3698 88.3854 33.3021 88.5625 33.2188C88.75 33.125 88.9062 33.0104 89.0312 32.875C89.1667 32.7396 89.2344 32.5781 89.2344 32.3906ZM99.125 39.4531C98.5938 39.4531 98.1302 39.3125 97.7344 39.0312C97.3385 38.75 97.0052 38.3906 96.7344 37.9531C96.4635 37.5156 96.2604 37.0312 96.125 36.5C95.9896 35.9583 95.9219 35.4271 95.9219 34.9062C95.9219 34.3542 95.9896 33.7865 96.125 33.2031C96.2604 32.6094 96.4688 32.0729 96.75 31.5938C97.0312 31.1042 97.3906 30.7083 97.8281 30.4062C98.2656 30.0938 98.7865 29.9375 99.3906 29.9375C99.974 29.9375 100.469 30.099 100.875 30.4219C101.292 30.7344 101.625 31.1302 101.875 31.6094C102.125 32.0781 102.302 32.5938 102.406 33.1562C102.51 33.7188 102.547 34.25 102.516 34.75C102.484 35.3021 102.396 35.8594 102.25 36.4219C102.115 36.9844 101.911 37.4896 101.641 37.9375C101.37 38.3854 101.026 38.75 100.609 39.0312C100.193 39.3125 99.6979 39.4531 99.125 39.4531ZM99.2812 32.3906C99.125 32.3906 98.9844 32.474 98.8594 32.6406C98.7448 32.8073 98.6458 33.0104 98.5625 33.25C98.4896 33.4896 98.4323 33.7448 98.3906 34.0156C98.349 34.276 98.3281 34.5052 98.3281 34.7031C98.3281 34.9531 98.349 35.224 98.3906 35.5156C98.4427 35.8073 98.5104 36.0781 98.5938 36.3281C98.6771 36.5677 98.776 36.7708 98.8906 36.9375C99.0156 37.0938 99.1562 37.1719 99.3125 37.1719C99.4792 37.1719 99.6198 37.0938 99.7344 36.9375C99.8594 36.7812 99.9583 36.5833 100.031 36.3438C100.104 36.1042 100.156 35.8438 100.188 35.5625C100.219 35.2708 100.234 35 100.234 34.75C100.234 34.5208 100.214 34.2708 100.172 34C100.13 33.7188 100.068 33.4583 99.9844 33.2188C99.9115 32.9792 99.8125 32.7812 99.6875 32.625C99.5729 32.4688 99.4375 32.3906 99.2812 32.3906ZM114.344 31.7344C114.26 32.4948 114.177 33.25 114.094 34C114.01 34.75 113.953 35.5 113.922 36.25C113.87 37.1146 113.849 37.9323 113.859 38.7031C113.87 39.474 113.875 40.2917 113.875 41.1562C113.875 41.3646 113.87 41.6198 113.859 41.9219C113.859 42.224 113.823 42.5156 113.75 42.7969C113.677 43.0781 113.557 43.3177 113.391 43.5156C113.234 43.7135 112.995 43.8125 112.672 43.8125C112.516 43.8125 112.38 43.7656 112.266 43.6719C112.161 43.5781 112.068 43.4531 111.984 43.2969C111.911 43.151 111.849 42.9844 111.797 42.7969C111.755 42.6094 111.719 42.4167 111.688 42.2188C111.635 41.8125 111.604 41.4062 111.594 41C111.594 40.6042 111.594 40.3125 111.594 40.125V38.9062V38.0312C111.354 38.3438 111.042 38.5833 110.656 38.75C110.281 38.9062 109.906 38.9844 109.531 38.9844C109.062 38.9844 108.656 38.875 108.312 38.6562C107.979 38.4271 107.703 38.1406 107.484 37.7969C107.266 37.4427 107.104 37.0573 107 36.6406C106.896 36.224 106.844 35.8177 106.844 35.4219V35.3281C106.844 34.7865 106.927 34.2031 107.094 33.5781C107.26 32.9427 107.505 32.3542 107.828 31.8125C108.161 31.2708 108.573 30.8229 109.062 30.4688C109.562 30.1042 110.141 29.9219 110.797 29.9219C111.151 29.9219 111.474 29.9948 111.766 30.1406C112.068 30.2865 112.281 30.526 112.406 30.8594C112.49 30.6198 112.615 30.4271 112.781 30.2812C112.958 30.125 113.182 30.0469 113.453 30.0469C113.797 30.0469 114.036 30.1615 114.172 30.3906C114.318 30.6094 114.391 30.8542 114.391 31.125C114.391 31.2396 114.385 31.3438 114.375 31.4375C114.365 31.5312 114.354 31.6302 114.344 31.7344ZM110.75 32.1094C110.51 32.1094 110.286 32.2083 110.078 32.4062C109.87 32.5938 109.688 32.8281 109.531 33.1094C109.375 33.3802 109.25 33.6719 109.156 33.9844C109.073 34.2969 109.031 34.5729 109.031 34.8125C109.031 34.9583 109.042 35.1146 109.062 35.2812C109.094 35.4479 109.135 35.6094 109.188 35.7656C109.25 35.9115 109.328 36.0365 109.422 36.1406C109.526 36.2344 109.656 36.2812 109.812 36.2812C109.948 36.2812 110.104 36.25 110.281 36.1875C110.469 36.1146 110.651 36.026 110.828 35.9219C111.005 35.8073 111.161 35.6823 111.297 35.5469C111.432 35.4115 111.526 35.2812 111.578 35.1562C111.609 35.0833 111.635 34.974 111.656 34.8281C111.677 34.6823 111.693 34.5312 111.703 34.375C111.724 34.2083 111.74 34.0469 111.75 33.8906C111.76 33.7344 111.766 33.6146 111.766 33.5312C111.766 33.4062 111.734 33.2656 111.672 33.1094C111.62 32.9427 111.547 32.7865 111.453 32.6406C111.359 32.4844 111.25 32.3594 111.125 32.2656C111 32.1615 110.875 32.1094 110.75 32.1094ZM121.938 34.5312C121.938 35.1042 121.88 35.6719 121.766 36.2344C121.651 36.7969 121.458 37.3021 121.188 37.75C120.917 38.1875 120.552 38.5417 120.094 38.8125C119.646 39.0833 119.083 39.2188 118.406 39.2188C117.74 39.2188 117.182 39.0885 116.734 38.8281C116.286 38.5573 115.927 38.2031 115.656 37.7656C115.396 37.3281 115.208 36.8333 115.094 36.2812C114.99 35.7292 114.938 35.1667 114.938 34.5938C114.938 33.9688 115.01 33.349 115.156 32.7344C115.188 32.5677 115.245 32.3385 115.328 32.0469C115.422 31.7448 115.536 31.4531 115.672 31.1719C115.818 30.8802 115.979 30.6302 116.156 30.4219C116.344 30.2135 116.547 30.1094 116.766 30.1094C116.974 30.1094 117.141 30.1667 117.266 30.2812C117.391 30.3958 117.49 30.5417 117.562 30.7188C117.635 30.8854 117.682 31.0677 117.703 31.2656C117.724 31.4531 117.734 31.625 117.734 31.7812C117.734 32.0208 117.714 32.2552 117.672 32.4844C117.641 32.7135 117.604 32.9427 117.562 33.1719C117.521 33.4844 117.479 33.7969 117.438 34.1094C117.406 34.4219 117.391 34.7344 117.391 35.0469C117.391 35.2031 117.396 35.3802 117.406 35.5781C117.427 35.7656 117.469 35.9479 117.531 36.125C117.594 36.3021 117.682 36.4531 117.797 36.5781C117.911 36.6927 118.073 36.75 118.281 36.75C118.552 36.75 118.766 36.6771 118.922 36.5312C119.089 36.3854 119.208 36.2031 119.281 35.9844C119.365 35.7656 119.417 35.5312 119.438 35.2812C119.458 35.0312 119.469 34.8021 119.469 34.5938C119.469 34.1354 119.438 33.6875 119.375 33.25C119.312 32.8021 119.255 32.349 119.203 31.8906C119.193 31.8385 119.188 31.7656 119.188 31.6719C119.188 31.5156 119.214 31.3594 119.266 31.2031C119.318 31.0469 119.391 30.9062 119.484 30.7812C119.578 30.6562 119.693 30.5573 119.828 30.4844C119.964 30.401 120.115 30.3594 120.281 30.3594C120.51 30.3594 120.714 30.4427 120.891 30.6094C121.068 30.7656 121.214 30.974 121.328 31.2344C121.453 31.4844 121.552 31.7708 121.625 32.0938C121.708 32.4062 121.771 32.7188 121.812 33.0312C121.865 33.3333 121.896 33.6198 121.906 33.8906C121.927 34.1615 121.938 34.375 121.938 34.5312ZM129.438 36.2188C129.438 36.5729 129.323 36.9219 129.094 37.2656C128.875 37.599 128.594 37.901 128.25 38.1719C127.917 38.4323 127.557 38.6458 127.172 38.8125C126.786 38.9688 126.432 39.0469 126.109 39.0469C125.557 39.0469 125.062 38.9115 124.625 38.6406C124.198 38.3594 123.839 38.0052 123.547 37.5781C123.255 37.151 123.031 36.6823 122.875 36.1719C122.729 35.651 122.656 35.1458 122.656 34.6562C122.656 34.1354 122.729 33.5781 122.875 32.9844C123.021 32.3906 123.24 31.8438 123.531 31.3438C123.833 30.8438 124.208 30.4271 124.656 30.0938C125.115 29.7604 125.656 29.5938 126.281 29.5938C126.635 29.5938 126.974 29.6562 127.297 29.7812C127.62 29.8958 127.901 30.0625 128.141 30.2812C128.38 30.5 128.573 30.7604 128.719 31.0625C128.865 31.3646 128.938 31.7031 128.938 32.0781C128.938 32.5677 128.833 33.026 128.625 33.4531C128.417 33.8802 128.141 34.25 127.797 34.5625C127.453 34.875 127.057 35.1302 126.609 35.3281C126.161 35.5156 125.703 35.6198 125.234 35.6406C125.276 35.9427 125.396 36.1615 125.594 36.2969C125.802 36.4323 126.047 36.5 126.328 36.5C126.536 36.5 126.74 36.4479 126.938 36.3438C127.135 36.2396 127.328 36.125 127.516 36C127.703 35.8646 127.885 35.7448 128.062 35.6406C128.25 35.5365 128.438 35.4844 128.625 35.4844C128.833 35.4844 129.021 35.5521 129.188 35.6875C129.354 35.8229 129.438 36 129.438 36.2188ZM126.906 32.3906C126.906 32.2552 126.87 32.1146 126.797 31.9688C126.724 31.8229 126.609 31.75 126.453 31.75C126.224 31.75 126.031 31.8125 125.875 31.9375C125.719 32.0521 125.589 32.2031 125.484 32.3906C125.38 32.5677 125.297 32.7604 125.234 32.9688C125.182 33.1771 125.151 33.3698 125.141 33.5469C125.286 33.5156 125.458 33.474 125.656 33.4219C125.865 33.3698 126.057 33.3021 126.234 33.2188C126.422 33.125 126.578 33.0104 126.703 32.875C126.839 32.7396 126.906 32.5781 126.906 32.3906ZM140.375 36.2188C140.375 36.5729 140.26 36.9219 140.031 37.2656C139.812 37.599 139.531 37.901 139.188 38.1719C138.854 38.4323 138.495 38.6458 138.109 38.8125C137.724 38.9688 137.37 39.0469 137.047 39.0469C136.495 39.0469 136 38.9115 135.562 38.6406C135.135 38.3594 134.776 38.0052 134.484 37.5781C134.193 37.151 133.969 36.6823 133.812 36.1719C133.667 35.651 133.594 35.1458 133.594 34.6562C133.594 34.1354 133.667 33.5781 133.812 32.9844C133.958 32.3906 134.177 31.8438 134.469 31.3438C134.771 30.8438 135.146 30.4271 135.594 30.0938C136.052 29.7604 136.594 29.5938 137.219 29.5938C137.573 29.5938 137.911 29.6562 138.234 29.7812C138.557 29.8958 138.839 30.0625 139.078 30.2812C139.318 30.5 139.51 30.7604 139.656 31.0625C139.802 31.3646 139.875 31.7031 139.875 32.0781C139.875 32.5677 139.771 33.026 139.562 33.4531C139.354 33.8802 139.078 34.25 138.734 34.5625C138.391 34.875 137.995 35.1302 137.547 35.3281C137.099 35.5156 136.641 35.6198 136.172 35.6406C136.214 35.9427 136.333 36.1615 136.531 36.2969C136.74 36.4323 136.984 36.5 137.266 36.5C137.474 36.5 137.677 36.4479 137.875 36.3438C138.073 36.2396 138.266 36.125 138.453 36C138.641 35.8646 138.823 35.7448 139 35.6406C139.188 35.5365 139.375 35.4844 139.562 35.4844C139.771 35.4844 139.958 35.5521 140.125 35.6875C140.292 35.8229 140.375 36 140.375 36.2188ZM137.844 32.3906C137.844 32.2552 137.807 32.1146 137.734 31.9688C137.661 31.8229 137.547 31.75 137.391 31.75C137.161 31.75 136.969 31.8125 136.812 31.9375C136.656 32.0521 136.526 32.2031 136.422 32.3906C136.318 32.5677 136.234 32.7604 136.172 32.9688C136.12 33.1771 136.089 33.3698 136.078 33.5469C136.224 33.5156 136.396 33.474 136.594 33.4219C136.802 33.3698 136.995 33.3021 137.172 33.2188C137.359 33.125 137.516 33.0104 137.641 32.875C137.776 32.7396 137.844 32.5781 137.844 32.3906ZM138.719 26.8438C138.719 26.9583 138.688 27.0729 138.625 27.1875C138.562 27.2917 138.484 27.3906 138.391 27.4844C138.307 27.5781 138.214 27.6667 138.109 27.75C138.005 27.8229 137.911 27.8906 137.828 27.9531C137.755 28.0052 137.672 28.0677 137.578 28.1406C137.495 28.2031 137.401 28.2656 137.297 28.3281C137.203 28.3802 137.104 28.4271 137 28.4688C136.906 28.5104 136.812 28.5312 136.719 28.5312C136.635 28.5312 136.562 28.5104 136.5 28.4688C136.438 28.4167 136.406 28.3438 136.406 28.25C136.406 28.0938 136.464 27.9062 136.578 27.6875C136.703 27.4583 136.854 27.2396 137.031 27.0312C137.208 26.8125 137.396 26.6302 137.594 26.4844C137.792 26.3281 137.974 26.25 138.141 26.25C138.286 26.25 138.417 26.3125 138.531 26.4375C138.656 26.5521 138.719 26.6875 138.719 26.8438ZM147.734 39.4531C147.203 39.4531 146.74 39.3125 146.344 39.0312C145.948 38.75 145.615 38.3906 145.344 37.9531C145.073 37.5156 144.87 37.0312 144.734 36.5C144.599 35.9583 144.531 35.4271 144.531 34.9062C144.531 34.3542 144.599 33.7865 144.734 33.2031C144.87 32.6094 145.078 32.0729 145.359 31.5938C145.641 31.1042 146 30.7083 146.438 30.4062C146.875 30.0938 147.396 29.9375 148 29.9375C148.583 29.9375 149.078 30.099 149.484 30.4219C149.901 30.7344 150.234 31.1302 150.484 31.6094C150.734 32.0781 150.911 32.5938 151.016 33.1562C151.12 33.7188 151.156 34.25 151.125 34.75C151.094 35.3021 151.005 35.8594 150.859 36.4219C150.724 36.9844 150.521 37.4896 150.25 37.9375C149.979 38.3854 149.635 38.75 149.219 39.0312C148.802 39.3125 148.307 39.4531 147.734 39.4531ZM147.891 32.3906C147.734 32.3906 147.594 32.474 147.469 32.6406C147.354 32.8073 147.255 33.0104 147.172 33.25C147.099 33.4896 147.042 33.7448 147 34.0156C146.958 34.276 146.938 34.5052 146.938 34.7031C146.938 34.9531 146.958 35.224 147 35.5156C147.052 35.8073 147.12 36.0781 147.203 36.3281C147.286 36.5677 147.385 36.7708 147.5 36.9375C147.625 37.0938 147.766 37.1719 147.922 37.1719C148.089 37.1719 148.229 37.0938 148.344 36.9375C148.469 36.7812 148.568 36.5833 148.641 36.3438C148.714 36.1042 148.766 35.8438 148.797 35.5625C148.828 35.2708 148.844 35 148.844 34.75C148.844 34.5208 148.823 34.2708 148.781 34C148.74 33.7188 148.677 33.4583 148.594 33.2188C148.521 32.9792 148.422 32.7812 148.297 32.625C148.182 32.4688 148.047 32.3906 147.891 32.3906ZM162.844 34.3438C162.844 34.8021 162.792 35.3073 162.688 35.8594C162.594 36.401 162.427 36.9062 162.188 37.375C161.958 37.8438 161.651 38.2344 161.266 38.5469C160.891 38.8594 160.417 39.0156 159.844 39.0156C159.698 39.0156 159.547 39.0052 159.391 38.9844C159.234 38.9635 159.083 38.9271 158.938 38.875C158.802 38.8229 158.677 38.7552 158.562 38.6719C158.448 38.5781 158.359 38.4583 158.297 38.3125L158.156 40.5625C158.146 40.8021 158.135 41.0885 158.125 41.4219C158.125 41.7552 158.083 42.0729 158 42.375C157.927 42.6771 157.797 42.9323 157.609 43.1406C157.432 43.3594 157.172 43.4688 156.828 43.4688C156.63 43.4688 156.464 43.3646 156.328 43.1562C156.193 42.9583 156.083 42.7031 156 42.3906C155.927 42.0781 155.87 41.7292 155.828 41.3438C155.786 40.9583 155.76 40.5885 155.75 40.2344C155.74 39.8802 155.734 39.5573 155.734 39.2656C155.734 38.974 155.734 38.7604 155.734 38.625C155.734 37.9271 155.729 37.2344 155.719 36.5469C155.708 35.849 155.703 35.151 155.703 34.4531C155.703 34.3281 155.703 34.1354 155.703 33.875C155.703 33.6042 155.714 33.3125 155.734 33C155.755 32.6875 155.786 32.3646 155.828 32.0312C155.88 31.6979 155.953 31.3958 156.047 31.125C156.141 30.8438 156.26 30.6198 156.406 30.4531C156.552 30.276 156.729 30.1875 156.938 30.1875C157.073 30.1875 157.193 30.2292 157.297 30.3125C157.411 30.3854 157.505 30.4844 157.578 30.6094C157.661 30.724 157.729 30.849 157.781 30.9844C157.833 31.1198 157.875 31.2448 157.906 31.3594C158.229 30.9948 158.599 30.7188 159.016 30.5312C159.443 30.3438 159.896 30.25 160.375 30.25C160.875 30.25 161.281 30.3906 161.594 30.6719C161.917 30.9531 162.167 31.3021 162.344 31.7188C162.531 32.1354 162.661 32.5833 162.734 33.0625C162.807 33.5312 162.844 33.9583 162.844 34.3438ZM160.609 34.2188C160.609 34.0625 160.594 33.9062 160.562 33.75C160.542 33.5833 160.495 33.4323 160.422 33.2969C160.359 33.151 160.266 33.0365 160.141 32.9531C160.016 32.8594 159.859 32.8125 159.672 32.8125C159.422 32.8125 159.156 32.8958 158.875 33.0625C158.604 33.2188 158.401 33.401 158.266 33.6094C158.214 33.6927 158.182 33.8281 158.172 34.0156C158.161 34.2031 158.156 34.3438 158.156 34.4375C158.156 34.5104 158.156 34.6094 158.156 34.7344C158.167 34.849 158.177 34.9688 158.188 35.0938C158.198 35.2188 158.208 35.3385 158.219 35.4531C158.24 35.5677 158.266 35.6562 158.297 35.7188C158.328 35.8125 158.396 35.901 158.5 35.9844C158.604 36.0573 158.719 36.125 158.844 36.1875C158.969 36.25 159.094 36.2969 159.219 36.3281C159.354 36.3594 159.469 36.375 159.562 36.375C159.781 36.375 159.958 36.2917 160.094 36.125C160.229 35.9583 160.333 35.7604 160.406 35.5312C160.49 35.3021 160.542 35.0677 160.562 34.8281C160.594 34.5781 160.609 34.375 160.609 34.2188ZM170.438 36.7969C170.438 36.9844 170.427 37.2292 170.406 37.5312C170.396 37.8333 170.354 38.1302 170.281 38.4219C170.208 38.7031 170.094 38.9479 169.938 39.1562C169.781 39.3646 169.562 39.4688 169.281 39.4688C168.896 39.4688 168.599 39.3438 168.391 39.0938C168.182 38.8438 168.083 38.5312 168.094 38.1562C167.76 38.4479 167.38 38.6771 166.953 38.8438C166.536 39.0104 166.109 39.0938 165.672 39.0938C165.37 39.0938 165.083 39.0208 164.812 38.875C164.542 38.7292 164.302 38.5417 164.094 38.3125C163.885 38.0833 163.719 37.8281 163.594 37.5469C163.469 37.2552 163.406 36.9688 163.406 36.6875C163.406 36.1875 163.557 35.75 163.859 35.375C164.172 35 164.552 34.6823 165 34.4219C165.448 34.151 165.922 33.9375 166.422 33.7812C166.932 33.625 167.385 33.5208 167.781 33.4688C167.781 33.4167 167.781 33.3698 167.781 33.3281C167.792 33.2865 167.797 33.2396 167.797 33.1875C167.797 32.8646 167.708 32.6042 167.531 32.4062C167.354 32.2083 167.104 32.1094 166.781 32.1094C166.521 32.1094 166.297 32.1562 166.109 32.25C165.922 32.3333 165.745 32.4323 165.578 32.5469C165.411 32.651 165.245 32.75 165.078 32.8438C164.911 32.9271 164.724 32.9688 164.516 32.9688C164.286 32.9688 164.089 32.8958 163.922 32.75C163.766 32.6042 163.688 32.4167 163.688 32.1875C163.688 31.8438 163.786 31.5312 163.984 31.25C164.193 30.9688 164.448 30.7344 164.75 30.5469C165.062 30.349 165.396 30.1979 165.75 30.0938C166.115 29.9792 166.448 29.9219 166.75 29.9219C167.031 29.9219 167.312 29.9583 167.594 30.0312C167.875 30.0938 168.141 30.1979 168.391 30.3438C168.641 30.4792 168.865 30.651 169.062 30.8594C169.271 31.0573 169.438 31.2917 169.562 31.5625C169.75 31.9479 169.901 32.3594 170.016 32.7969C170.13 33.224 170.219 33.6667 170.281 34.125C170.344 34.5729 170.385 35.026 170.406 35.4844C170.427 35.9323 170.438 36.3698 170.438 36.7969ZM167.938 36.2969L167.891 35.2344C167.87 35.2344 167.849 35.2344 167.828 35.2344C167.807 35.224 167.786 35.2188 167.766 35.2188C167.63 35.2188 167.458 35.2552 167.25 35.3281C167.052 35.3906 166.859 35.4844 166.672 35.6094C166.484 35.724 166.323 35.8542 166.188 36C166.062 36.1458 166 36.2969 166 36.4531C166 36.599 166.052 36.6979 166.156 36.75C166.26 36.8021 166.38 36.8281 166.516 36.8281C166.745 36.8281 166.99 36.7708 167.25 36.6562C167.51 36.5312 167.74 36.4115 167.938 36.2969ZM175.812 39.4375C175.635 39.4375 175.495 39.3542 175.391 39.1875C175.286 39.0312 175.208 38.849 175.156 38.6406C175.104 38.4323 175.068 38.224 175.047 38.0156C175.036 37.7969 175.031 37.6302 175.031 37.5156C175.031 37.2031 175.047 36.8906 175.078 36.5781C175.12 36.2656 175.161 35.9531 175.203 35.6406C175.255 35.3281 175.297 35.0156 175.328 34.7031C175.37 34.3906 175.391 34.0781 175.391 33.7656C175.391 33.6406 175.385 33.5052 175.375 33.3594C175.365 33.2135 175.339 33.0781 175.297 32.9531C175.266 32.8177 175.208 32.7083 175.125 32.625C175.042 32.5417 174.932 32.5 174.797 32.5C174.703 32.5 174.599 32.5781 174.484 32.7344C174.37 32.8802 174.26 33.0521 174.156 33.25C174.062 33.4375 173.979 33.6302 173.906 33.8281C173.844 34.0156 173.812 34.1562 173.812 34.25C173.812 34.4792 173.812 34.7135 173.812 34.9531C173.823 35.1823 173.828 35.4167 173.828 35.6562V36.5625C173.818 36.75 173.802 36.9427 173.781 37.1406C173.76 37.3385 173.729 37.5312 173.688 37.7188C173.656 37.9062 173.609 38.0885 173.547 38.2656C173.484 38.4323 173.401 38.5833 173.297 38.7188C173.203 38.8438 173.089 38.9479 172.953 39.0312C172.818 39.1146 172.656 39.1562 172.469 39.1562C172.26 39.1562 172.089 39.0885 171.953 38.9531C171.818 38.8177 171.708 38.6458 171.625 38.4375C171.542 38.2188 171.479 37.9792 171.438 37.7188C171.406 37.4479 171.38 37.1875 171.359 36.9375C171.349 36.6771 171.344 36.4427 171.344 36.2344C171.354 36.0156 171.359 35.8438 171.359 35.7188V34.9844C171.359 34.5885 171.349 34.1979 171.328 33.8125C171.318 33.4271 171.312 33.0417 171.312 32.6562C171.312 32.4479 171.312 32.1823 171.312 31.8594C171.323 31.5365 171.365 31.224 171.438 30.9219C171.51 30.6094 171.63 30.3438 171.797 30.125C171.964 29.9062 172.208 29.7969 172.531 29.7969C172.677 29.7969 172.807 29.8438 172.922 29.9375C173.036 30.0312 173.135 30.1458 173.219 30.2812C173.312 30.4167 173.385 30.5625 173.438 30.7188C173.5 30.875 173.547 31.0104 173.578 31.125C173.682 30.9792 173.802 30.8385 173.938 30.7031C174.083 30.5677 174.245 30.4479 174.422 30.3438C174.599 30.2396 174.797 30.1562 175.016 30.0938C175.234 30.0312 175.484 30 175.766 30C176.297 30 176.708 30.1302 177 30.3906C177.302 30.6406 177.521 30.9583 177.656 31.3438C177.802 31.7188 177.891 32.125 177.922 32.5625C177.953 33 177.969 33.3958 177.969 33.75C177.969 33.9271 177.953 34.1927 177.922 34.5469C177.891 34.8906 177.839 35.276 177.766 35.7031C177.703 36.1198 177.615 36.5521 177.5 37C177.385 37.4375 177.25 37.8385 177.094 38.2031C176.938 38.5677 176.75 38.8646 176.531 39.0938C176.323 39.3229 176.083 39.4375 175.812 39.4375ZM184.641 33C184.641 33.0521 184.635 33.1094 184.625 33.1719C184.615 33.224 184.599 33.276 184.578 33.3281C184.484 33.5677 184.339 33.7708 184.141 33.9375C183.943 34.0938 183.708 34.1719 183.438 34.1719C183.031 34.1719 182.755 33.9688 182.609 33.5625C182.589 33.5104 182.578 33.4531 182.578 33.3906C182.578 33.3177 182.573 33.2448 182.562 33.1719V32.7188C182.542 32.5729 182.505 32.4583 182.453 32.375C182.401 32.2917 182.312 32.25 182.188 32.25C182.01 32.25 181.839 32.3646 181.672 32.5938C181.516 32.8125 181.375 33.0781 181.25 33.3906C181.135 33.6927 181.042 34.0052 180.969 34.3281C180.896 34.651 180.859 34.9115 180.859 35.1094C180.859 35.2656 180.87 35.4583 180.891 35.6875C180.911 35.9062 180.953 36.1198 181.016 36.3281C181.078 36.5365 181.161 36.7188 181.266 36.875C181.38 37.0208 181.526 37.0938 181.703 37.0938C181.88 37.0938 182.042 37.0417 182.188 36.9375C182.344 36.8229 182.495 36.6927 182.641 36.5469C182.776 36.4219 182.922 36.2917 183.078 36.1562C183.245 36.0208 183.432 35.9531 183.641 35.9531C183.901 35.9531 184.104 36.0469 184.25 36.2344C184.406 36.4219 184.484 36.6354 184.484 36.875C184.484 37.2292 184.391 37.5625 184.203 37.875C184.016 38.1771 183.781 38.4427 183.5 38.6719C183.219 38.8906 182.906 39.0625 182.562 39.1875C182.219 39.3229 181.891 39.3906 181.578 39.3906C181.016 39.3906 180.536 39.25 180.141 38.9688C179.755 38.6875 179.443 38.3333 179.203 37.9062C178.964 37.4688 178.792 36.9948 178.688 36.4844C178.583 35.974 178.531 35.4896 178.531 35.0312C178.531 34.5 178.604 33.9271 178.75 33.3125C178.896 32.6875 179.12 32.1094 179.422 31.5781C179.724 31.0469 180.109 30.6042 180.578 30.25C181.057 29.8958 181.625 29.7188 182.281 29.7188C182.688 29.7188 183.036 29.8073 183.328 29.9844C183.63 30.1615 183.875 30.3958 184.062 30.6875C184.26 30.9688 184.406 31.2865 184.5 31.6406C184.604 31.9948 184.656 32.3438 184.656 32.6875C184.656 32.7396 184.656 32.7917 184.656 32.8438C184.656 32.8958 184.651 32.9479 184.641 33ZM190.938 33.1562C190.792 33.1667 190.667 33.1562 190.562 33.125C190.458 33.0833 190.354 33.0417 190.25 33C190.156 32.9583 190.062 32.9219 189.969 32.8906C189.875 32.849 189.771 32.8333 189.656 32.8438C189.448 32.8542 189.26 32.9115 189.094 33.0156C188.938 33.1198 188.792 33.25 188.656 33.4062C188.531 33.5625 188.422 33.7396 188.328 33.9375C188.234 34.125 188.161 34.3125 188.109 34.5C188.078 34.625 188.052 34.8177 188.031 35.0781C188.021 35.3281 188.016 35.599 188.016 35.8906C188.005 36.1927 188 36.4792 188 36.75C188 37.0208 187.99 37.2344 187.969 37.3906C187.958 37.5573 187.932 37.7552 187.891 37.9844C187.849 38.2031 187.781 38.4115 187.688 38.6094C187.604 38.8073 187.49 38.974 187.344 39.1094C187.198 39.2448 187.01 39.3125 186.781 39.3125C186.604 39.3125 186.448 39.2604 186.312 39.1562C186.188 39.0521 186.078 38.9167 185.984 38.75C185.901 38.5729 185.828 38.3698 185.766 38.1406C185.714 37.9115 185.672 37.6771 185.641 37.4375C185.609 37.1875 185.583 36.9375 185.562 36.6875C185.552 36.4375 185.542 36.2031 185.531 35.9844C185.531 35.7552 185.531 35.5469 185.531 35.3594C185.542 35.1719 185.547 35.0208 185.547 34.9062C185.536 34.5417 185.516 34.1771 185.484 33.8125C185.464 33.4375 185.453 33.0677 185.453 32.7031C185.453 32.474 185.464 32.2188 185.484 31.9375C185.505 31.6562 185.562 31.3958 185.656 31.1562C185.75 30.9062 185.885 30.6979 186.062 30.5312C186.25 30.3646 186.505 30.2812 186.828 30.2812C187.005 30.2812 187.156 30.3385 187.281 30.4531C187.406 30.5677 187.505 30.7083 187.578 30.875C187.661 31.0417 187.724 31.2188 187.766 31.4062C187.807 31.5938 187.833 31.7656 187.844 31.9219C188.094 31.5156 188.375 31.1875 188.688 30.9375C189 30.6771 189.406 30.5365 189.906 30.5156C190.156 30.5052 190.401 30.5312 190.641 30.5938C190.891 30.6458 191.115 30.7396 191.312 30.875C191.521 31 191.688 31.1667 191.812 31.375C191.948 31.5833 192.021 31.8281 192.031 32.1094C192.052 32.4427 191.953 32.6979 191.734 32.875C191.516 33.0521 191.25 33.1458 190.938 33.1562ZM198.812 36.2188C198.812 36.5729 198.698 36.9219 198.469 37.2656C198.25 37.599 197.969 37.901 197.625 38.1719C197.292 38.4323 196.932 38.6458 196.547 38.8125C196.161 38.9688 195.807 39.0469 195.484 39.0469C194.932 39.0469 194.438 38.9115 194 38.6406C193.573 38.3594 193.214 38.0052 192.922 37.5781C192.63 37.151 192.406 36.6823 192.25 36.1719C192.104 35.651 192.031 35.1458 192.031 34.6562C192.031 34.1354 192.104 33.5781 192.25 32.9844C192.396 32.3906 192.615 31.8438 192.906 31.3438C193.208 30.8438 193.583 30.4271 194.031 30.0938C194.49 29.7604 195.031 29.5938 195.656 29.5938C196.01 29.5938 196.349 29.6562 196.672 29.7812C196.995 29.8958 197.276 30.0625 197.516 30.2812C197.755 30.5 197.948 30.7604 198.094 31.0625C198.24 31.3646 198.312 31.7031 198.312 32.0781C198.312 32.5677 198.208 33.026 198 33.4531C197.792 33.8802 197.516 34.25 197.172 34.5625C196.828 34.875 196.432 35.1302 195.984 35.3281C195.536 35.5156 195.078 35.6198 194.609 35.6406C194.651 35.9427 194.771 36.1615 194.969 36.2969C195.177 36.4323 195.422 36.5 195.703 36.5C195.911 36.5 196.115 36.4479 196.312 36.3438C196.51 36.2396 196.703 36.125 196.891 36C197.078 35.8646 197.26 35.7448 197.438 35.6406C197.625 35.5365 197.812 35.4844 198 35.4844C198.208 35.4844 198.396 35.5521 198.562 35.6875C198.729 35.8229 198.812 36 198.812 36.2188ZM196.281 32.3906C196.281 32.2552 196.245 32.1146 196.172 31.9688C196.099 31.8229 195.984 31.75 195.828 31.75C195.599 31.75 195.406 31.8125 195.25 31.9375C195.094 32.0521 194.964 32.2031 194.859 32.3906C194.755 32.5677 194.672 32.7604 194.609 32.9688C194.557 33.1771 194.526 33.3698 194.516 33.5469C194.661 33.5156 194.833 33.474 195.031 33.4219C195.24 33.3698 195.432 33.3021 195.609 33.2188C195.797 33.125 195.953 33.0104 196.078 32.875C196.214 32.7396 196.281 32.5781 196.281 32.3906ZM206.078 36.7969C206.078 36.9844 206.068 37.2292 206.047 37.5312C206.036 37.8333 205.995 38.1302 205.922 38.4219C205.849 38.7031 205.734 38.9479 205.578 39.1562C205.422 39.3646 205.203 39.4688 204.922 39.4688C204.536 39.4688 204.24 39.3438 204.031 39.0938C203.823 38.8438 203.724 38.5312 203.734 38.1562C203.401 38.4479 203.021 38.6771 202.594 38.8438C202.177 39.0104 201.75 39.0938 201.312 39.0938C201.01 39.0938 200.724 39.0208 200.453 38.875C200.182 38.7292 199.943 38.5417 199.734 38.3125C199.526 38.0833 199.359 37.8281 199.234 37.5469C199.109 37.2552 199.047 36.9688 199.047 36.6875C199.047 36.1875 199.198 35.75 199.5 35.375C199.812 35 200.193 34.6823 200.641 34.4219C201.089 34.151 201.562 33.9375 202.062 33.7812C202.573 33.625 203.026 33.5208 203.422 33.4688C203.422 33.4167 203.422 33.3698 203.422 33.3281C203.432 33.2865 203.438 33.2396 203.438 33.1875C203.438 32.8646 203.349 32.6042 203.172 32.4062C202.995 32.2083 202.745 32.1094 202.422 32.1094C202.161 32.1094 201.938 32.1562 201.75 32.25C201.562 32.3333 201.385 32.4323 201.219 32.5469C201.052 32.651 200.885 32.75 200.719 32.8438C200.552 32.9271 200.365 32.9688 200.156 32.9688C199.927 32.9688 199.729 32.8958 199.562 32.75C199.406 32.6042 199.328 32.4167 199.328 32.1875C199.328 31.8438 199.427 31.5312 199.625 31.25C199.833 30.9688 200.089 30.7344 200.391 30.5469C200.703 30.349 201.036 30.1979 201.391 30.0938C201.755 29.9792 202.089 29.9219 202.391 29.9219C202.672 29.9219 202.953 29.9583 203.234 30.0312C203.516 30.0938 203.781 30.1979 204.031 30.3438C204.281 30.4792 204.505 30.651 204.703 30.8594C204.911 31.0573 205.078 31.2917 205.203 31.5625C205.391 31.9479 205.542 32.3594 205.656 32.7969C205.771 33.224 205.859 33.6667 205.922 34.125C205.984 34.5729 206.026 35.026 206.047 35.4844C206.068 35.9323 206.078 36.3698 206.078 36.7969ZM203.578 36.2969L203.531 35.2344C203.51 35.2344 203.49 35.2344 203.469 35.2344C203.448 35.224 203.427 35.2188 203.406 35.2188C203.271 35.2188 203.099 35.2552 202.891 35.3281C202.693 35.3906 202.5 35.4844 202.312 35.6094C202.125 35.724 201.964 35.8542 201.828 36C201.703 36.1458 201.641 36.2969 201.641 36.4531C201.641 36.599 201.693 36.6979 201.797 36.75C201.901 36.8021 202.021 36.8281 202.156 36.8281C202.385 36.8281 202.63 36.7708 202.891 36.6562C203.151 36.5312 203.38 36.4115 203.578 36.2969ZM211.594 30.4062C211.594 30.7083 211.49 30.9323 211.281 31.0781C211.083 31.224 210.859 31.3646 210.609 31.5C210.359 31.625 210.13 31.776 209.922 31.9531C209.724 32.1302 209.625 32.3958 209.625 32.75C209.625 32.9375 209.667 33.099 209.75 33.2344C209.844 33.3698 209.953 33.4948 210.078 33.6094C210.214 33.7135 210.359 33.8229 210.516 33.9375C210.672 34.0521 210.812 34.1823 210.938 34.3281C211.073 34.474 211.182 34.651 211.266 34.8594C211.359 35.0677 211.406 35.3229 211.406 35.625C211.406 36.0625 211.292 36.4948 211.062 36.9219C210.844 37.3385 210.557 37.7135 210.203 38.0469C209.859 38.3698 209.469 38.6302 209.031 38.8281C208.594 39.026 208.161 39.125 207.734 39.125C207.557 39.125 207.38 39.1094 207.203 39.0781C207.026 39.0573 206.865 39.0104 206.719 38.9375C206.583 38.8646 206.469 38.7656 206.375 38.6406C206.281 38.5052 206.234 38.3333 206.234 38.125C206.234 37.8333 206.292 37.6094 206.406 37.4531C206.521 37.2865 206.667 37.1562 206.844 37.0625C207.021 36.9688 207.208 36.8958 207.406 36.8438C207.615 36.7917 207.807 36.7292 207.984 36.6562C208.161 36.5729 208.307 36.4688 208.422 36.3438C208.536 36.2188 208.594 36.0417 208.594 35.8125C208.594 35.5938 208.505 35.3698 208.328 35.1406C208.161 34.901 207.974 34.651 207.766 34.3906C207.557 34.1198 207.365 33.8333 207.188 33.5312C207.021 33.2292 206.938 32.8958 206.938 32.5312C206.938 32.0833 207.026 31.6719 207.203 31.2969C207.391 30.9115 207.635 30.5781 207.938 30.2969C208.25 30.0156 208.604 29.7969 209 29.6406C209.396 29.474 209.812 29.3906 210.25 29.3906C210.417 29.3906 210.578 29.4062 210.734 29.4375C210.901 29.4688 211.047 29.526 211.172 29.6094C211.297 29.6823 211.396 29.7865 211.469 29.9219C211.552 30.0469 211.594 30.2083 211.594 30.4062ZM40.1875 57.2188C40.1875 57.5729 40.0729 57.9219 39.8438 58.2656C39.625 58.599 39.3438 58.901 39 59.1719C38.6667 59.4323 38.3073 59.6458 37.9219 59.8125C37.5365 59.9688 37.1823 60.0469 36.8594 60.0469C36.3073 60.0469 35.8125 59.9115 35.375 59.6406C34.9479 59.3594 34.5885 59.0052 34.2969 58.5781C34.0052 58.151 33.7812 57.6823 33.625 57.1719C33.4792 56.651 33.4062 56.1458 33.4062 55.6562C33.4062 55.1354 33.4792 54.5781 33.625 53.9844C33.7708 53.3906 33.9896 52.8438 34.2812 52.3438C34.5833 51.8438 34.9583 51.4271 35.4062 51.0938C35.8646 50.7604 36.4062 50.5938 37.0312 50.5938C37.3854 50.5938 37.724 50.6562 38.0469 50.7812C38.3698 50.8958 38.651 51.0625 38.8906 51.2812C39.1302 51.5 39.3229 51.7604 39.4688 52.0625C39.6146 52.3646 39.6875 52.7031 39.6875 53.0781C39.6875 53.5677 39.5833 54.026 39.375 54.4531C39.1667 54.8802 38.8906 55.25 38.5469 55.5625C38.2031 55.875 37.8073 56.1302 37.3594 56.3281C36.9115 56.5156 36.4531 56.6198 35.9844 56.6406C36.026 56.9427 36.1458 57.1615 36.3438 57.2969C36.5521 57.4323 36.7969 57.5 37.0781 57.5C37.2865 57.5 37.4896 57.4479 37.6875 57.3438C37.8854 57.2396 38.0781 57.125 38.2656 57C38.4531 56.8646 38.6354 56.7448 38.8125 56.6406C39 56.5365 39.1875 56.4844 39.375 56.4844C39.5833 56.4844 39.7708 56.5521 39.9375 56.6875C40.1042 56.8229 40.1875 57 40.1875 57.2188ZM37.6562 53.3906C37.6562 53.2552 37.6198 53.1146 37.5469 52.9688C37.474 52.8229 37.3594 52.75 37.2031 52.75C36.974 52.75 36.7812 52.8125 36.625 52.9375C36.4688 53.0521 36.3385 53.2031 36.2344 53.3906C36.1302 53.5677 36.0469 53.7604 35.9844 53.9688C35.9323 54.1771 35.901 54.3698 35.8906 54.5469C36.0365 54.5156 36.2083 54.474 36.4062 54.4219C36.6146 54.3698 36.8073 54.3021 36.9844 54.2188C37.1719 54.125 37.3281 54.0104 37.4531 53.875C37.5885 53.7396 37.6562 53.5781 37.6562 53.3906ZM50.375 54C50.375 54.0521 50.3698 54.1094 50.3594 54.1719C50.349 54.224 50.3333 54.276 50.3125 54.3281C50.2188 54.5677 50.0729 54.7708 49.875 54.9375C49.6771 55.0938 49.4427 55.1719 49.1719 55.1719C48.7656 55.1719 48.4896 54.9688 48.3438 54.5625C48.3229 54.5104 48.3125 54.4531 48.3125 54.3906C48.3125 54.3177 48.3073 54.2448 48.2969 54.1719V53.7188C48.276 53.5729 48.2396 53.4583 48.1875 53.375C48.1354 53.2917 48.0469 53.25 47.9219 53.25C47.7448 53.25 47.5729 53.3646 47.4062 53.5938C47.25 53.8125 47.1094 54.0781 46.9844 54.3906C46.8698 54.6927 46.776 55.0052 46.7031 55.3281C46.6302 55.651 46.5938 55.9115 46.5938 56.1094C46.5938 56.2656 46.6042 56.4583 46.625 56.6875C46.6458 56.9062 46.6875 57.1198 46.75 57.3281C46.8125 57.5365 46.8958 57.7188 47 57.875C47.1146 58.0208 47.2604 58.0938 47.4375 58.0938C47.6146 58.0938 47.776 58.0417 47.9219 57.9375C48.0781 57.8229 48.2292 57.6927 48.375 57.5469C48.5104 57.4219 48.6562 57.2917 48.8125 57.1562C48.9792 57.0208 49.1667 56.9531 49.375 56.9531C49.6354 56.9531 49.8385 57.0469 49.9844 57.2344C50.1406 57.4219 50.2188 57.6354 50.2188 57.875C50.2188 58.2292 50.125 58.5625 49.9375 58.875C49.75 59.1771 49.5156 59.4427 49.2344 59.6719C48.9531 59.8906 48.6406 60.0625 48.2969 60.1875C47.9531 60.3229 47.625 60.3906 47.3125 60.3906C46.75 60.3906 46.2708 60.25 45.875 59.9688C45.4896 59.6875 45.1771 59.3333 44.9375 58.9062C44.6979 58.4688 44.526 57.9948 44.4219 57.4844C44.3177 56.974 44.2656 56.4896 44.2656 56.0312C44.2656 55.5 44.3385 54.9271 44.4844 54.3125C44.6302 53.6875 44.8542 53.1094 45.1562 52.5781C45.4583 52.0469 45.8438 51.6042 46.3125 51.25C46.7917 50.8958 47.3594 50.7188 48.0156 50.7188C48.4219 50.7188 48.7708 50.8073 49.0625 50.9844C49.3646 51.1615 49.6094 51.3958 49.7969 51.6875C49.9948 51.9688 50.1406 52.2865 50.2344 52.6406C50.3385 52.9948 50.3906 53.3438 50.3906 53.6875C50.3906 53.7396 50.3906 53.7917 50.3906 53.8438C50.3906 53.8958 50.3854 53.9479 50.375 54ZM54.2188 60.4531C53.6875 60.4531 53.224 60.3125 52.8281 60.0312C52.4323 59.75 52.099 59.3906 51.8281 58.9531C51.5573 58.5156 51.3542 58.0312 51.2188 57.5C51.0833 56.9583 51.0156 56.4271 51.0156 55.9062C51.0156 55.3542 51.0833 54.7865 51.2188 54.2031C51.3542 53.6094 51.5625 53.0729 51.8438 52.5938C52.125 52.1042 52.4844 51.7083 52.9219 51.4062C53.3594 51.0938 53.8802 50.9375 54.4844 50.9375C55.0677 50.9375 55.5625 51.099 55.9688 51.4219C56.3854 51.7344 56.7188 52.1302 56.9688 52.6094C57.2188 53.0781 57.3958 53.5938 57.5 54.1562C57.6042 54.7188 57.6406 55.25 57.6094 55.75C57.5781 56.3021 57.4896 56.8594 57.3438 57.4219C57.2083 57.9844 57.0052 58.4896 56.7344 58.9375C56.4635 59.3854 56.1198 59.75 55.7031 60.0312C55.2865 60.3125 54.7917 60.4531 54.2188 60.4531ZM54.375 53.3906C54.2188 53.3906 54.0781 53.474 53.9531 53.6406C53.8385 53.8073 53.7396 54.0104 53.6562 54.25C53.5833 54.4896 53.526 54.7448 53.4844 55.0156C53.4427 55.276 53.4219 55.5052 53.4219 55.7031C53.4219 55.9531 53.4427 56.224 53.4844 56.5156C53.5365 56.8073 53.6042 57.0781 53.6875 57.3281C53.7708 57.5677 53.8698 57.7708 53.9844 57.9375C54.1094 58.0938 54.25 58.1719 54.4062 58.1719C54.5729 58.1719 54.7135 58.0938 54.8281 57.9375C54.9531 57.7812 55.0521 57.5833 55.125 57.3438C55.1979 57.1042 55.25 56.8438 55.2812 56.5625C55.3125 56.2708 55.3281 56 55.3281 55.75C55.3281 55.5208 55.3073 55.2708 55.2656 55C55.224 54.7188 55.1615 54.4583 55.0781 54.2188C55.0052 53.9792 54.9062 53.7812 54.7812 53.625C54.6667 53.4688 54.5312 53.3906 54.375 53.3906ZM67.8906 54.8438C67.8906 55.0417 67.8906 55.3125 67.8906 55.6562C67.8906 55.9896 67.8802 56.3542 67.8594 56.75C67.849 57.1458 67.8177 57.5469 67.7656 57.9531C67.7135 58.349 67.6302 58.7083 67.5156 59.0312C67.4115 59.3542 67.276 59.6198 67.1094 59.8281C66.9427 60.0365 66.7292 60.1406 66.4688 60.1406C66.2396 60.1406 66.0625 60.0469 65.9375 59.8594C65.8229 59.6615 65.7396 59.4323 65.6875 59.1719C65.6354 58.9115 65.6042 58.6458 65.5938 58.375C65.5938 58.1042 65.5938 57.8906 65.5938 57.7344C65.5938 57.2656 65.6094 56.8073 65.6406 56.3594C65.6719 55.9115 65.6875 55.4531 65.6875 54.9844C65.6875 54.9323 65.6875 54.8385 65.6875 54.7031C65.6875 54.5677 65.6771 54.4323 65.6562 54.2969C65.6354 54.1615 65.599 54.0417 65.5469 53.9375C65.5052 53.8333 65.4375 53.7812 65.3438 53.7812C65.1562 53.7812 65.0052 53.8802 64.8906 54.0781C64.776 54.2656 64.6823 54.4896 64.6094 54.75C64.5365 55.0104 64.4844 55.2708 64.4531 55.5312C64.4219 55.7812 64.401 55.9688 64.3906 56.0938C64.3698 56.2292 64.349 56.4323 64.3281 56.7031C64.3177 56.974 64.2969 57.2708 64.2656 57.5938C64.2448 57.9167 64.2031 58.25 64.1406 58.5938C64.0885 58.9271 64.0156 59.2344 63.9219 59.5156C63.8385 59.7865 63.7292 60.0104 63.5938 60.1875C63.4583 60.3646 63.2917 60.4531 63.0938 60.4531C62.8438 60.4531 62.651 60.3438 62.5156 60.125C62.3802 59.9062 62.2812 59.651 62.2188 59.3594C62.1562 59.0677 62.1146 58.7708 62.0938 58.4688C62.0833 58.1667 62.0781 57.9323 62.0781 57.7656C62.0781 57.5885 62.0781 57.4167 62.0781 57.25C62.0885 57.0833 62.0938 56.9115 62.0938 56.7344C62.0938 56.6615 62.0938 56.5417 62.0938 56.375C62.0938 56.2083 62.0885 56.026 62.0781 55.8281C62.0781 55.6198 62.0677 55.4062 62.0469 55.1875C62.0365 54.9688 62.0156 54.7708 61.9844 54.5938C61.9531 54.4062 61.9062 54.2552 61.8438 54.1406C61.7812 54.026 61.7083 53.9688 61.625 53.9688C61.4896 53.9688 61.3646 54.0573 61.25 54.2344C61.1354 54.401 61.0365 54.6042 60.9531 54.8438C60.8698 55.0729 60.8021 55.3021 60.75 55.5312C60.7083 55.7604 60.6875 55.9271 60.6875 56.0312V56.125C60.6875 56.625 60.7188 57.1146 60.7812 57.5938C60.8438 58.0729 60.875 58.5625 60.875 59.0625C60.875 59.3542 60.7812 59.625 60.5938 59.875C60.4062 60.1146 60.1458 60.2344 59.8125 60.2344C59.5729 60.2344 59.375 60.1458 59.2188 59.9688C59.0625 59.7812 58.9323 59.5417 58.8281 59.25C58.724 58.9583 58.6406 58.6406 58.5781 58.2969C58.526 57.9427 58.4896 57.599 58.4688 57.2656C58.4479 56.9219 58.4323 56.6146 58.4219 56.3438C58.4219 56.0625 58.4219 55.8542 58.4219 55.7188C58.4219 55.5625 58.4167 55.3333 58.4062 55.0312C58.4062 54.7292 58.4115 54.401 58.4219 54.0469C58.4427 53.6927 58.474 53.3333 58.5156 52.9688C58.5573 52.5938 58.625 52.2552 58.7188 51.9531C58.8125 51.651 58.9323 51.4062 59.0781 51.2188C59.2344 51.0208 59.4323 50.9219 59.6719 50.9219C59.9427 50.9219 60.1615 50.9948 60.3281 51.1406C60.5052 51.2865 60.5938 51.5052 60.5938 51.7969C60.5938 51.8594 60.5885 51.9219 60.5781 51.9844C60.5781 52.0469 60.5729 52.1042 60.5625 52.1562C60.6771 51.9896 60.8177 51.8229 60.9844 51.6562C61.151 51.4792 61.3281 51.3229 61.5156 51.1875C61.7135 51.0417 61.9219 50.9271 62.1406 50.8438C62.3594 50.75 62.5781 50.7031 62.7969 50.7031C63.0052 50.7031 63.1927 50.7604 63.3594 50.875C63.526 50.9896 63.6719 51.1354 63.7969 51.3125C63.9219 51.4792 64.026 51.6615 64.1094 51.8594C64.1927 52.0573 64.25 52.2448 64.2812 52.4219C64.3854 52.2344 64.5104 52.0469 64.6562 51.8594C64.8125 51.6615 64.9792 51.4896 65.1562 51.3438C65.3333 51.1979 65.526 51.0781 65.7344 50.9844C65.9531 50.8906 66.1771 50.8438 66.4062 50.8438C66.625 50.8438 66.8125 50.9219 66.9688 51.0781C67.125 51.2344 67.2604 51.4375 67.375 51.6875C67.4896 51.9271 67.5781 52.2031 67.6406 52.5156C67.7031 52.8177 67.7552 53.1198 67.7969 53.4219C67.8385 53.7135 67.8646 53.9896 67.875 54.25C67.8854 54.5 67.8906 54.6979 67.8906 54.8438ZM71.8906 60.4531C71.3594 60.4531 70.8958 60.3125 70.5 60.0312C70.1042 59.75 69.7708 59.3906 69.5 58.9531C69.2292 58.5156 69.026 58.0312 68.8906 57.5C68.7552 56.9583 68.6875 56.4271 68.6875 55.9062C68.6875 55.3542 68.7552 54.7865 68.8906 54.2031C69.026 53.6094 69.2344 53.0729 69.5156 52.5938C69.7969 52.1042 70.1562 51.7083 70.5938 51.4062C71.0312 51.0938 71.5521 50.9375 72.1562 50.9375C72.7396 50.9375 73.2344 51.099 73.6406 51.4219C74.0573 51.7344 74.3906 52.1302 74.6406 52.6094C74.8906 53.0781 75.0677 53.5938 75.1719 54.1562C75.276 54.7188 75.3125 55.25 75.2812 55.75C75.25 56.3021 75.1615 56.8594 75.0156 57.4219C74.8802 57.9844 74.6771 58.4896 74.4062 58.9375C74.1354 59.3854 73.7917 59.75 73.375 60.0312C72.9583 60.3125 72.4635 60.4531 71.8906 60.4531ZM72.0469 53.3906C71.8906 53.3906 71.75 53.474 71.625 53.6406C71.5104 53.8073 71.4115 54.0104 71.3281 54.25C71.2552 54.4896 71.1979 54.7448 71.1562 55.0156C71.1146 55.276 71.0938 55.5052 71.0938 55.7031C71.0938 55.9531 71.1146 56.224 71.1562 56.5156C71.2083 56.8073 71.276 57.0781 71.3594 57.3281C71.4427 57.5677 71.5417 57.7708 71.6562 57.9375C71.7812 58.0938 71.9219 58.1719 72.0781 58.1719C72.2448 58.1719 72.3854 58.0938 72.5 57.9375C72.625 57.7812 72.724 57.5833 72.7969 57.3438C72.8698 57.1042 72.9219 56.8438 72.9531 56.5625C72.9844 56.2708 73 56 73 55.75C73 55.5208 72.9792 55.2708 72.9375 55C72.8958 54.7188 72.8333 54.4583 72.75 54.2188C72.6771 53.9792 72.5781 53.7812 72.4531 53.625C72.3385 53.4688 72.2031 53.3906 72.0469 53.3906ZM82.8125 60.4531C82.2812 60.4531 81.8177 60.3125 81.4219 60.0312C81.026 59.75 80.6927 59.3906 80.4219 58.9531C80.151 58.5156 79.9479 58.0312 79.8125 57.5C79.6771 56.9583 79.6094 56.4271 79.6094 55.9062C79.6094 55.3542 79.6771 54.7865 79.8125 54.2031C79.9479 53.6094 80.1562 53.0729 80.4375 52.5938C80.7188 52.1042 81.0781 51.7083 81.5156 51.4062C81.9531 51.0938 82.474 50.9375 83.0781 50.9375C83.6615 50.9375 84.1562 51.099 84.5625 51.4219C84.9792 51.7344 85.3125 52.1302 85.5625 52.6094C85.8125 53.0781 85.9896 53.5938 86.0938 54.1562C86.1979 54.7188 86.2344 55.25 86.2031 55.75C86.1719 56.3021 86.0833 56.8594 85.9375 57.4219C85.8021 57.9844 85.599 58.4896 85.3281 58.9375C85.0573 59.3854 84.7135 59.75 84.2969 60.0312C83.8802 60.3125 83.3854 60.4531 82.8125 60.4531ZM82.9688 53.3906C82.8125 53.3906 82.6719 53.474 82.5469 53.6406C82.4323 53.8073 82.3333 54.0104 82.25 54.25C82.1771 54.4896 82.1198 54.7448 82.0781 55.0156C82.0365 55.276 82.0156 55.5052 82.0156 55.7031C82.0156 55.9531 82.0365 56.224 82.0781 56.5156C82.1302 56.8073 82.1979 57.0781 82.2812 57.3281C82.3646 57.5677 82.4635 57.7708 82.5781 57.9375C82.7031 58.0938 82.8438 58.1719 83 58.1719C83.1667 58.1719 83.3073 58.0938 83.4219 57.9375C83.5469 57.7812 83.6458 57.5833 83.7188 57.3438C83.7917 57.1042 83.8438 56.8438 83.875 56.5625C83.9062 56.2708 83.9219 56 83.9219 55.75C83.9219 55.5208 83.901 55.2708 83.8594 55C83.8177 54.7188 83.7552 54.4583 83.6719 54.2188C83.599 53.9792 83.5 53.7812 83.375 53.625C83.2604 53.4688 83.125 53.3906 82.9688 53.3906ZM98.8125 52.9688C98.8125 53.8854 98.625 54.7708 98.25 55.625C97.875 56.4688 97.3698 57.2188 96.7344 57.875C96.1094 58.5312 95.375 59.0573 94.5312 59.4531C93.6979 59.8385 92.8177 60.0312 91.8906 60.0312H91.8594C91.6719 60.0312 91.5156 59.9479 91.3906 59.7812C91.276 59.6042 91.1771 59.3854 91.0938 59.125C91.0104 58.8646 90.9479 58.5729 90.9062 58.25C90.8646 57.9271 90.8333 57.6146 90.8125 57.3125C90.7917 57 90.7812 56.724 90.7812 56.4844C90.7812 56.2344 90.7812 56.0469 90.7812 55.9219C90.7812 55.5677 90.7865 55.2188 90.7969 54.875C90.8073 54.5208 90.8229 54.1667 90.8438 53.8125C90.8438 53.6979 90.849 53.5312 90.8594 53.3125C90.8802 53.0833 90.901 52.8281 90.9219 52.5469C90.9427 52.2656 90.9688 51.974 91 51.6719C91.0312 51.3594 91.0625 51.0729 91.0938 50.8125C91.1354 50.5417 91.1719 50.3073 91.2031 50.1094C91.2448 49.901 91.2917 49.7604 91.3438 49.6875C91.4792 49.4583 91.6875 49.2552 91.9688 49.0781C92.25 48.901 92.5521 48.7552 92.875 48.6406C93.2083 48.526 93.5417 48.4427 93.875 48.3906C94.2188 48.3281 94.5156 48.2969 94.7656 48.2969C95.4531 48.2969 96.0469 48.4271 96.5469 48.6875C97.0573 48.9375 97.4792 49.2812 97.8125 49.7188C98.1562 50.1458 98.4062 50.6406 98.5625 51.2031C98.7292 51.7656 98.8125 52.3542 98.8125 52.9688ZM96.1875 53.4219C96.1875 53.1927 96.1458 52.9583 96.0625 52.7188C95.9792 52.4792 95.8594 52.2604 95.7031 52.0625C95.5573 51.8646 95.375 51.7083 95.1562 51.5938C94.9479 51.4688 94.7135 51.4062 94.4531 51.4062C94.2344 51.4062 94.0104 51.4583 93.7812 51.5625C93.7292 51.5938 93.6823 51.6927 93.6406 51.8594C93.599 52.0156 93.5625 52.2083 93.5312 52.4375C93.5104 52.6667 93.4896 52.9167 93.4688 53.1875C93.4479 53.4583 93.4323 53.7188 93.4219 53.9688C93.4219 54.2083 93.4167 54.4219 93.4062 54.6094C93.4062 54.7969 93.4062 54.9219 93.4062 54.9844C93.4062 55.0885 93.4062 55.2448 93.4062 55.4531C93.4062 55.651 93.4115 55.849 93.4219 56.0469C93.4427 56.2448 93.4635 56.4167 93.4844 56.5625C93.5052 56.7083 93.5417 56.7812 93.5938 56.7812C93.9062 56.7812 94.2135 56.6615 94.5156 56.4219C94.8281 56.1719 95.1094 55.8698 95.3594 55.5156C95.6094 55.1615 95.8073 54.7917 95.9531 54.4062C96.1094 54.0208 96.1875 53.6927 96.1875 53.4219ZM102.094 49.0938C102.094 49.2396 102.052 49.3698 101.969 49.4844C101.896 49.599 101.797 49.7031 101.672 49.7969C101.547 49.8802 101.411 49.9479 101.266 50C101.12 50.0417 100.984 50.0625 100.859 50.0625C100.651 50.0625 100.469 50.0104 100.312 49.9062C100.156 49.8021 100.078 49.6406 100.078 49.4219C100.078 49.2656 100.115 49.1302 100.188 49.0156C100.271 48.8906 100.37 48.7917 100.484 48.7188C100.599 48.6354 100.729 48.5729 100.875 48.5312C101.021 48.4896 101.161 48.4688 101.297 48.4688C101.495 48.4688 101.677 48.5156 101.844 48.6094C102.01 48.7031 102.094 48.8646 102.094 49.0938ZM102.219 54.4062C102.219 54.5521 102.219 54.7083 102.219 54.875C102.219 55.0312 102.214 55.1823 102.203 55.3281C102.193 55.5052 102.188 55.7448 102.188 56.0469C102.188 56.3385 102.177 56.6562 102.156 57C102.135 57.3438 102.099 57.6927 102.047 58.0469C102.005 58.401 101.932 58.724 101.828 59.0156C101.724 59.3073 101.583 59.5469 101.406 59.7344C101.24 59.9115 101.026 60.0052 100.766 60.0156C100.568 60.026 100.401 59.9479 100.266 59.7812C100.13 59.6146 100.016 59.401 99.9219 59.1406C99.8385 58.8698 99.776 58.5729 99.7344 58.25C99.6927 57.9167 99.6615 57.599 99.6406 57.2969C99.6198 56.9844 99.6094 56.6979 99.6094 56.4375C99.6094 56.1771 99.6094 55.9844 99.6094 55.8594C99.6094 55.6927 99.6094 55.4583 99.6094 55.1562C99.6094 54.8438 99.6198 54.5104 99.6406 54.1562C99.6615 53.8021 99.6979 53.4427 99.75 53.0781C99.8125 52.7135 99.8958 52.3802 100 52.0781C100.115 51.776 100.26 51.5312 100.438 51.3438C100.615 51.1562 100.839 51.0625 101.109 51.0625C101.391 51.0625 101.604 51.2031 101.75 51.4844C101.896 51.7656 102.005 52.0938 102.078 52.4688C102.151 52.8438 102.193 53.2188 102.203 53.5938C102.214 53.9583 102.219 54.2292 102.219 54.4062ZM109.969 57.7969C109.969 57.9844 109.958 58.2292 109.938 58.5312C109.927 58.8333 109.885 59.1302 109.812 59.4219C109.74 59.7031 109.625 59.9479 109.469 60.1562C109.312 60.3646 109.094 60.4688 108.812 60.4688C108.427 60.4688 108.13 60.3438 107.922 60.0938C107.714 59.8438 107.615 59.5312 107.625 59.1562C107.292 59.4479 106.911 59.6771 106.484 59.8438C106.068 60.0104 105.641 60.0938 105.203 60.0938C104.901 60.0938 104.615 60.0208 104.344 59.875C104.073 59.7292 103.833 59.5417 103.625 59.3125C103.417 59.0833 103.25 58.8281 103.125 58.5469C103 58.2552 102.938 57.9688 102.938 57.6875C102.938 57.1875 103.089 56.75 103.391 56.375C103.703 56 104.083 55.6823 104.531 55.4219C104.979 55.151 105.453 54.9375 105.953 54.7812C106.464 54.625 106.917 54.5208 107.312 54.4688C107.312 54.4167 107.312 54.3698 107.312 54.3281C107.323 54.2865 107.328 54.2396 107.328 54.1875C107.328 53.8646 107.24 53.6042 107.062 53.4062C106.885 53.2083 106.635 53.1094 106.312 53.1094C106.052 53.1094 105.828 53.1562 105.641 53.25C105.453 53.3333 105.276 53.4323 105.109 53.5469C104.943 53.651 104.776 53.75 104.609 53.8438C104.443 53.9271 104.255 53.9688 104.047 53.9688C103.818 53.9688 103.62 53.8958 103.453 53.75C103.297 53.6042 103.219 53.4167 103.219 53.1875C103.219 52.8438 103.318 52.5312 103.516 52.25C103.724 51.9688 103.979 51.7344 104.281 51.5469C104.594 51.349 104.927 51.1979 105.281 51.0938C105.646 50.9792 105.979 50.9219 106.281 50.9219C106.562 50.9219 106.844 50.9583 107.125 51.0312C107.406 51.0938 107.672 51.1979 107.922 51.3438C108.172 51.4792 108.396 51.651 108.594 51.8594C108.802 52.0573 108.969 52.2917 109.094 52.5625C109.281 52.9479 109.432 53.3594 109.547 53.7969C109.661 54.224 109.75 54.6667 109.812 55.125C109.875 55.5729 109.917 56.026 109.938 56.4844C109.958 56.9323 109.969 57.3698 109.969 57.7969ZM107.469 57.2969L107.422 56.2344C107.401 56.2344 107.38 56.2344 107.359 56.2344C107.339 56.224 107.318 56.2188 107.297 56.2188C107.161 56.2188 106.99 56.2552 106.781 56.3281C106.583 56.3906 106.391 56.4844 106.203 56.6094C106.016 56.724 105.854 56.8542 105.719 57C105.594 57.1458 105.531 57.2969 105.531 57.4531C105.531 57.599 105.583 57.6979 105.688 57.75C105.792 57.8021 105.911 57.8281 106.047 57.8281C106.276 57.8281 106.521 57.7708 106.781 57.6562C107.042 57.5312 107.271 57.4115 107.469 57.2969ZM118.297 54.8438C118.297 55.1458 118.271 55.4896 118.219 55.875C118.177 56.25 118.104 56.6354 118 57.0312C117.906 57.4271 117.776 57.8125 117.609 58.1875C117.453 58.5625 117.255 58.901 117.016 59.2031C116.786 59.4948 116.516 59.7292 116.203 59.9062C115.901 60.0833 115.547 60.1719 115.141 60.1719C114.714 60.1719 114.323 60.0729 113.969 59.875C113.625 59.6771 113.328 59.4062 113.078 59.0625C113.047 59.3438 112.932 59.5938 112.734 59.8125C112.536 60.0208 112.286 60.125 111.984 60.125C111.807 60.125 111.656 60.0365 111.531 59.8594C111.417 59.6823 111.323 59.4583 111.25 59.1875C111.177 58.9062 111.12 58.599 111.078 58.2656C111.047 57.9323 111.026 57.6094 111.016 57.2969C111.005 56.9844 111 56.7031 111 56.4531C111 56.2031 111 56.026 111 55.9219C111 55.5677 111 55.2135 111 54.8594C111.01 54.5052 111.021 54.1458 111.031 53.7812C111.031 53.6042 111.026 53.3385 111.016 52.9844C111.016 52.6302 111.021 52.2396 111.031 51.8125C111.042 51.375 111.062 50.9323 111.094 50.4844C111.135 50.026 111.203 49.6094 111.297 49.2344C111.391 48.8594 111.521 48.5521 111.688 48.3125C111.854 48.0729 112.068 47.9479 112.328 47.9375C112.536 47.9375 112.714 48.0104 112.859 48.1562C113.005 48.3021 113.125 48.4948 113.219 48.7344C113.323 48.974 113.401 49.2448 113.453 49.5469C113.516 49.8385 113.557 50.1354 113.578 50.4375C113.609 50.7292 113.625 51.0104 113.625 51.2812C113.635 51.5417 113.641 51.7552 113.641 51.9219C113.641 51.9531 113.635 52.026 113.625 52.1406C113.625 52.2448 113.625 52.3594 113.625 52.4844C113.625 52.6094 113.625 52.724 113.625 52.8281C113.625 52.9219 113.625 52.974 113.625 52.9844C113.719 52.7865 113.854 52.5938 114.031 52.4062C114.208 52.2188 114.406 52.0521 114.625 51.9062C114.844 51.7604 115.073 51.6406 115.312 51.5469C115.552 51.4531 115.781 51.4062 116 51.4062C116.438 51.4062 116.802 51.5208 117.094 51.75C117.396 51.9688 117.635 52.25 117.812 52.5938C117.99 52.9375 118.115 53.3125 118.188 53.7188C118.26 54.1146 118.297 54.4896 118.297 54.8438ZM116 55.3125C116 55.1875 115.99 55.0521 115.969 54.9062C115.958 54.7604 115.922 54.625 115.859 54.5C115.807 54.375 115.729 54.2708 115.625 54.1875C115.531 54.1042 115.406 54.0625 115.25 54.0625C115.083 54.0625 114.917 54.099 114.75 54.1719C114.594 54.2448 114.443 54.3385 114.297 54.4531C114.151 54.5677 114.016 54.6927 113.891 54.8281C113.766 54.9531 113.656 55.0781 113.562 55.2031L113.406 56.5938C113.573 56.8333 113.776 57.026 114.016 57.1719C114.255 57.3073 114.526 57.375 114.828 57.375C115.057 57.375 115.245 57.3021 115.391 57.1562C115.547 57.0104 115.667 56.8333 115.75 56.625C115.844 56.4062 115.906 56.1771 115.938 55.9375C115.979 55.6979 116 55.4896 116 55.3125ZM125.797 57.2188C125.797 57.5729 125.682 57.9219 125.453 58.2656C125.234 58.599 124.953 58.901 124.609 59.1719C124.276 59.4323 123.917 59.6458 123.531 59.8125C123.146 59.9688 122.792 60.0469 122.469 60.0469C121.917 60.0469 121.422 59.9115 120.984 59.6406C120.557 59.3594 120.198 59.0052 119.906 58.5781C119.615 58.151 119.391 57.6823 119.234 57.1719C119.089 56.651 119.016 56.1458 119.016 55.6562C119.016 55.1354 119.089 54.5781 119.234 53.9844C119.38 53.3906 119.599 52.8438 119.891 52.3438C120.193 51.8438 120.568 51.4271 121.016 51.0938C121.474 50.7604 122.016 50.5938 122.641 50.5938C122.995 50.5938 123.333 50.6562 123.656 50.7812C123.979 50.8958 124.26 51.0625 124.5 51.2812C124.74 51.5 124.932 51.7604 125.078 52.0625C125.224 52.3646 125.297 52.7031 125.297 53.0781C125.297 53.5677 125.193 54.026 124.984 54.4531C124.776 54.8802 124.5 55.25 124.156 55.5625C123.812 55.875 123.417 56.1302 122.969 56.3281C122.521 56.5156 122.062 56.6198 121.594 56.6406C121.635 56.9427 121.755 57.1615 121.953 57.2969C122.161 57.4323 122.406 57.5 122.688 57.5C122.896 57.5 123.099 57.4479 123.297 57.3438C123.495 57.2396 123.688 57.125 123.875 57C124.062 56.8646 124.245 56.7448 124.422 56.6406C124.609 56.5365 124.797 56.4844 124.984 56.4844C125.193 56.4844 125.38 56.5521 125.547 56.6875C125.714 56.8229 125.797 57 125.797 57.2188ZM123.266 53.3906C123.266 53.2552 123.229 53.1146 123.156 52.9688C123.083 52.8229 122.969 52.75 122.812 52.75C122.583 52.75 122.391 52.8125 122.234 52.9375C122.078 53.0521 121.948 53.2031 121.844 53.3906C121.74 53.5677 121.656 53.7604 121.594 53.9688C121.542 54.1771 121.51 54.3698 121.5 54.5469C121.646 54.5156 121.818 54.474 122.016 54.4219C122.224 54.3698 122.417 54.3021 122.594 54.2188C122.781 54.125 122.938 54.0104 123.062 53.875C123.198 53.7396 123.266 53.5781 123.266 53.3906ZM130.062 60.5625C129.323 60.5625 128.745 60.4635 128.328 60.2656C127.922 60.0781 127.615 59.8073 127.406 59.4531C127.208 59.099 127.089 58.6719 127.047 58.1719C127.005 57.6719 126.984 57.1146 126.984 56.5C126.984 56.0104 127 55.5208 127.031 55.0312C127.062 54.5312 127.109 54 127.172 53.4375C127.026 53.4375 126.911 53.4427 126.828 53.4531C126.745 53.4531 126.677 53.4531 126.625 53.4531C126.292 53.4531 126.005 53.3802 125.766 53.2344C125.516 53.0885 125.391 52.8646 125.391 52.5625C125.391 52.375 125.464 52.2083 125.609 52.0625C125.745 51.9167 125.922 51.7917 126.141 51.6875C126.359 51.5833 126.594 51.5 126.844 51.4375C127.104 51.375 127.349 51.3333 127.578 51.3125C127.578 51.0208 127.599 50.6979 127.641 50.3438C127.682 49.9896 127.755 49.6615 127.859 49.3594C127.974 49.0469 128.125 48.7865 128.312 48.5781C128.5 48.3698 128.74 48.2656 129.031 48.2656C129.198 48.2656 129.344 48.3177 129.469 48.4219C129.604 48.5156 129.714 48.6406 129.797 48.7969C129.88 48.9427 129.943 49.1094 129.984 49.2969C130.026 49.4844 130.047 49.6667 130.047 49.8438C130.047 50.0521 130.031 50.2656 130 50.4844C129.969 50.7031 129.911 50.974 129.828 51.2969C130.005 51.276 130.125 51.2656 130.188 51.2656C130.25 51.2552 130.307 51.25 130.359 51.25C130.536 51.25 130.719 51.2656 130.906 51.2969C131.104 51.3281 131.281 51.3802 131.438 51.4531C131.604 51.526 131.74 51.625 131.844 51.75C131.948 51.8646 132 52.0052 132 52.1719C132 52.3594 131.922 52.526 131.766 52.6719C131.62 52.8177 131.432 52.9427 131.203 53.0469C130.974 53.151 130.729 53.2344 130.469 53.2969C130.208 53.349 129.964 53.3854 129.734 53.4062C129.672 53.8333 129.625 54.2292 129.594 54.5938C129.573 54.9479 129.547 55.3073 129.516 55.6719C129.495 55.849 129.474 56.0312 129.453 56.2188C129.443 56.3958 129.438 56.5781 129.438 56.7656C129.438 56.901 129.443 57.0625 129.453 57.25C129.464 57.4271 129.5 57.599 129.562 57.7656C129.625 57.9323 129.724 58.0781 129.859 58.2031C129.995 58.3177 130.182 58.375 130.422 58.375C130.568 58.375 130.719 58.3646 130.875 58.3438C131.031 58.3125 131.188 58.2969 131.344 58.2969C131.615 58.2969 131.807 58.3906 131.922 58.5781C132.047 58.7656 132.109 59.0052 132.109 59.2969C132.109 59.5156 132.042 59.7083 131.906 59.875C131.781 60.0312 131.62 60.1562 131.422 60.25C131.224 60.3542 131 60.4323 130.75 60.4844C130.51 60.5365 130.281 60.5625 130.062 60.5625ZM138.969 57.2188C138.969 57.5729 138.854 57.9219 138.625 58.2656C138.406 58.599 138.125 58.901 137.781 59.1719C137.448 59.4323 137.089 59.6458 136.703 59.8125C136.318 59.9688 135.964 60.0469 135.641 60.0469C135.089 60.0469 134.594 59.9115 134.156 59.6406C133.729 59.3594 133.37 59.0052 133.078 58.5781C132.786 58.151 132.562 57.6823 132.406 57.1719C132.26 56.651 132.188 56.1458 132.188 55.6562C132.188 55.1354 132.26 54.5781 132.406 53.9844C132.552 53.3906 132.771 52.8438 133.062 52.3438C133.365 51.8438 133.74 51.4271 134.188 51.0938C134.646 50.7604 135.188 50.5938 135.812 50.5938C136.167 50.5938 136.505 50.6562 136.828 50.7812C137.151 50.8958 137.432 51.0625 137.672 51.2812C137.911 51.5 138.104 51.7604 138.25 52.0625C138.396 52.3646 138.469 52.7031 138.469 53.0781C138.469 53.5677 138.365 54.026 138.156 54.4531C137.948 54.8802 137.672 55.25 137.328 55.5625C136.984 55.875 136.589 56.1302 136.141 56.3281C135.693 56.5156 135.234 56.6198 134.766 56.6406C134.807 56.9427 134.927 57.1615 135.125 57.2969C135.333 57.4323 135.578 57.5 135.859 57.5C136.068 57.5 136.271 57.4479 136.469 57.3438C136.667 57.2396 136.859 57.125 137.047 57C137.234 56.8646 137.417 56.7448 137.594 56.6406C137.781 56.5365 137.969 56.4844 138.156 56.4844C138.365 56.4844 138.552 56.5521 138.719 56.6875C138.885 56.8229 138.969 57 138.969 57.2188ZM136.438 53.3906C136.438 53.2552 136.401 53.1146 136.328 52.9688C136.255 52.8229 136.141 52.75 135.984 52.75C135.755 52.75 135.562 52.8125 135.406 52.9375C135.25 53.0521 135.12 53.2031 135.016 53.3906C134.911 53.5677 134.828 53.7604 134.766 53.9688C134.714 54.1771 134.682 54.3698 134.672 54.5469C134.818 54.5156 134.99 54.474 135.188 54.4219C135.396 54.3698 135.589 54.3021 135.766 54.2188C135.953 54.125 136.109 54.0104 136.234 53.875C136.37 53.7396 136.438 53.5781 136.438 53.3906ZM144.172 51.4062C144.172 51.7083 144.068 51.9323 143.859 52.0781C143.661 52.224 143.438 52.3646 143.188 52.5C142.938 52.625 142.708 52.776 142.5 52.9531C142.302 53.1302 142.203 53.3958 142.203 53.75C142.203 53.9375 142.245 54.099 142.328 54.2344C142.422 54.3698 142.531 54.4948 142.656 54.6094C142.792 54.7135 142.938 54.8229 143.094 54.9375C143.25 55.0521 143.391 55.1823 143.516 55.3281C143.651 55.474 143.76 55.651 143.844 55.8594C143.938 56.0677 143.984 56.3229 143.984 56.625C143.984 57.0625 143.87 57.4948 143.641 57.9219C143.422 58.3385 143.135 58.7135 142.781 59.0469C142.438 59.3698 142.047 59.6302 141.609 59.8281C141.172 60.026 140.74 60.125 140.312 60.125C140.135 60.125 139.958 60.1094 139.781 60.0781C139.604 60.0573 139.443 60.0104 139.297 59.9375C139.161 59.8646 139.047 59.7656 138.953 59.6406C138.859 59.5052 138.812 59.3333 138.812 59.125C138.812 58.8333 138.87 58.6094 138.984 58.4531C139.099 58.2865 139.245 58.1562 139.422 58.0625C139.599 57.9688 139.786 57.8958 139.984 57.8438C140.193 57.7917 140.385 57.7292 140.562 57.6562C140.74 57.5729 140.885 57.4688 141 57.3438C141.115 57.2188 141.172 57.0417 141.172 56.8125C141.172 56.5938 141.083 56.3698 140.906 56.1406C140.74 55.901 140.552 55.651 140.344 55.3906C140.135 55.1198 139.943 54.8333 139.766 54.5312C139.599 54.2292 139.516 53.8958 139.516 53.5312C139.516 53.0833 139.604 52.6719 139.781 52.2969C139.969 51.9115 140.214 51.5781 140.516 51.2969C140.828 51.0156 141.182 50.7969 141.578 50.6406C141.974 50.474 142.391 50.3906 142.828 50.3906C142.995 50.3906 143.156 50.4062 143.312 50.4375C143.479 50.4688 143.625 50.526 143.75 50.6094C143.875 50.6823 143.974 50.7865 144.047 50.9219C144.13 51.0469 144.172 51.2083 144.172 51.4062ZM155.109 50.6562C155.109 50.8542 155.089 51.0469 155.047 51.2344C155.016 51.4115 154.953 51.5677 154.859 51.7031C154.766 51.8385 154.641 51.9479 154.484 52.0312C154.328 52.1042 154.135 52.1406 153.906 52.1406C153.646 52.1406 153.453 52.0885 153.328 51.9844C153.203 51.8802 153.115 51.7552 153.062 51.6094C153.021 51.4531 153 51.2865 153 51.1094C153 50.9323 152.99 50.7708 152.969 50.625C152.958 50.4688 152.922 50.3385 152.859 50.2344C152.797 50.1302 152.682 50.0781 152.516 50.0781C152.359 50.0781 152.229 50.1979 152.125 50.4375C152.031 50.6771 151.953 50.9531 151.891 51.2656C151.828 51.5781 151.786 51.8854 151.766 52.1875C151.745 52.4792 151.734 52.6771 151.734 52.7812C151.87 52.7604 152 52.7448 152.125 52.7344C152.25 52.7135 152.385 52.7031 152.531 52.7031C152.677 52.7031 152.828 52.7188 152.984 52.75C153.141 52.7812 153.286 52.8333 153.422 52.9062C153.557 52.9688 153.667 53.0625 153.75 53.1875C153.833 53.3021 153.875 53.4479 153.875 53.625C153.875 53.8125 153.792 53.9792 153.625 54.125C153.469 54.2708 153.276 54.3958 153.047 54.5C152.828 54.5938 152.604 54.6719 152.375 54.7344C152.146 54.7969 151.964 54.8385 151.828 54.8594C151.859 55.5781 151.875 56.3021 151.875 57.0312C151.875 57.7188 151.859 58.3958 151.828 59.0625C151.807 59.3854 151.693 59.651 151.484 59.8594C151.286 60.0677 151.026 60.1719 150.703 60.1719C150.526 60.1719 150.375 60.1354 150.25 60.0625C150.125 60 150.021 59.9115 149.938 59.7969C149.854 59.6823 149.786 59.5521 149.734 59.4062C149.693 59.2604 149.667 59.1094 149.656 58.9531C149.604 58.3281 149.562 57.7031 149.531 57.0781C149.5 56.4427 149.49 55.8073 149.5 55.1719C149.427 55.1823 149.354 55.1875 149.281 55.1875C149.219 55.1875 149.151 55.1875 149.078 55.1875C148.953 55.1875 148.802 55.1719 148.625 55.1406C148.448 55.1094 148.276 55.0573 148.109 54.9844C147.953 54.901 147.818 54.8021 147.703 54.6875C147.589 54.5729 147.531 54.4271 147.531 54.25C147.531 54.0208 147.609 53.8281 147.766 53.6719C147.911 53.5156 148.089 53.3906 148.297 53.2969C148.516 53.1927 148.74 53.1198 148.969 53.0781C149.208 53.0365 149.417 53.0052 149.594 52.9844V52.7344C149.594 52.224 149.641 51.6771 149.734 51.0938C149.828 50.5104 149.995 49.9688 150.234 49.4688C150.474 48.9688 150.802 48.5573 151.219 48.2344C151.635 47.901 152.167 47.7344 152.812 47.7344C153.219 47.7344 153.568 47.8229 153.859 48C154.151 48.1667 154.391 48.3906 154.578 48.6719C154.766 48.9427 154.901 49.2552 154.984 49.6094C155.068 49.9531 155.109 50.3021 155.109 50.6562ZM161.375 55.5312C161.375 56.1042 161.318 56.6719 161.203 57.2344C161.089 57.7969 160.896 58.3021 160.625 58.75C160.354 59.1875 159.99 59.5417 159.531 59.8125C159.083 60.0833 158.521 60.2188 157.844 60.2188C157.177 60.2188 156.62 60.0885 156.172 59.8281C155.724 59.5573 155.365 59.2031 155.094 58.7656C154.833 58.3281 154.646 57.8333 154.531 57.2812C154.427 56.7292 154.375 56.1667 154.375 55.5938C154.375 54.9688 154.448 54.349 154.594 53.7344C154.625 53.5677 154.682 53.3385 154.766 53.0469C154.859 52.7448 154.974 52.4531 155.109 52.1719C155.255 51.8802 155.417 51.6302 155.594 51.4219C155.781 51.2135 155.984 51.1094 156.203 51.1094C156.411 51.1094 156.578 51.1667 156.703 51.2812C156.828 51.3958 156.927 51.5417 157 51.7188C157.073 51.8854 157.12 52.0677 157.141 52.2656C157.161 52.4531 157.172 52.625 157.172 52.7812C157.172 53.0208 157.151 53.2552 157.109 53.4844C157.078 53.7135 157.042 53.9427 157 54.1719C156.958 54.4844 156.917 54.7969 156.875 55.1094C156.844 55.4219 156.828 55.7344 156.828 56.0469C156.828 56.2031 156.833 56.3802 156.844 56.5781C156.865 56.7656 156.906 56.9479 156.969 57.125C157.031 57.3021 157.12 57.4531 157.234 57.5781C157.349 57.6927 157.51 57.75 157.719 57.75C157.99 57.75 158.203 57.6771 158.359 57.5312C158.526 57.3854 158.646 57.2031 158.719 56.9844C158.802 56.7656 158.854 56.5312 158.875 56.2812C158.896 56.0312 158.906 55.8021 158.906 55.5938C158.906 55.1354 158.875 54.6875 158.812 54.25C158.75 53.8021 158.693 53.349 158.641 52.8906C158.63 52.8385 158.625 52.7656 158.625 52.6719C158.625 52.5156 158.651 52.3594 158.703 52.2031C158.755 52.0469 158.828 51.9062 158.922 51.7812C159.016 51.6562 159.13 51.5573 159.266 51.4844C159.401 51.401 159.552 51.3594 159.719 51.3594C159.948 51.3594 160.151 51.4427 160.328 51.6094C160.505 51.7656 160.651 51.974 160.766 52.2344C160.891 52.4844 160.99 52.7708 161.062 53.0938C161.146 53.4062 161.208 53.7188 161.25 54.0312C161.302 54.3333 161.333 54.6198 161.344 54.8906C161.365 55.1615 161.375 55.375 161.375 55.5312ZM166.766 60.4375C166.589 60.4375 166.448 60.3542 166.344 60.1875C166.24 60.0312 166.161 59.849 166.109 59.6406C166.057 59.4323 166.021 59.224 166 59.0156C165.99 58.7969 165.984 58.6302 165.984 58.5156C165.984 58.2031 166 57.8906 166.031 57.5781C166.073 57.2656 166.115 56.9531 166.156 56.6406C166.208 56.3281 166.25 56.0156 166.281 55.7031C166.323 55.3906 166.344 55.0781 166.344 54.7656C166.344 54.6406 166.339 54.5052 166.328 54.3594C166.318 54.2135 166.292 54.0781 166.25 53.9531C166.219 53.8177 166.161 53.7083 166.078 53.625C165.995 53.5417 165.885 53.5 165.75 53.5C165.656 53.5 165.552 53.5781 165.438 53.7344C165.323 53.8802 165.214 54.0521 165.109 54.25C165.016 54.4375 164.932 54.6302 164.859 54.8281C164.797 55.0156 164.766 55.1562 164.766 55.25C164.766 55.4792 164.766 55.7135 164.766 55.9531C164.776 56.1823 164.781 56.4167 164.781 56.6562V57.5625C164.771 57.75 164.755 57.9427 164.734 58.1406C164.714 58.3385 164.682 58.5312 164.641 58.7188C164.609 58.9062 164.562 59.0885 164.5 59.2656C164.438 59.4323 164.354 59.5833 164.25 59.7188C164.156 59.8438 164.042 59.9479 163.906 60.0312C163.771 60.1146 163.609 60.1562 163.422 60.1562C163.214 60.1562 163.042 60.0885 162.906 59.9531C162.771 59.8177 162.661 59.6458 162.578 59.4375C162.495 59.2188 162.432 58.9792 162.391 58.7188C162.359 58.4479 162.333 58.1875 162.312 57.9375C162.302 57.6771 162.297 57.4427 162.297 57.2344C162.307 57.0156 162.312 56.8438 162.312 56.7188V55.9844C162.312 55.5885 162.302 55.1979 162.281 54.8125C162.271 54.4271 162.266 54.0417 162.266 53.6562C162.266 53.4479 162.266 53.1823 162.266 52.8594C162.276 52.5365 162.318 52.224 162.391 51.9219C162.464 51.6094 162.583 51.3438 162.75 51.125C162.917 50.9062 163.161 50.7969 163.484 50.7969C163.63 50.7969 163.76 50.8438 163.875 50.9375C163.99 51.0312 164.089 51.1458 164.172 51.2812C164.266 51.4167 164.339 51.5625 164.391 51.7188C164.453 51.875 164.5 52.0104 164.531 52.125C164.635 51.9792 164.755 51.8385 164.891 51.7031C165.036 51.5677 165.198 51.4479 165.375 51.3438C165.552 51.2396 165.75 51.1562 165.969 51.0938C166.188 51.0312 166.438 51 166.719 51C167.25 51 167.661 51.1302 167.953 51.3906C168.255 51.6406 168.474 51.9583 168.609 52.3438C168.755 52.7188 168.844 53.125 168.875 53.5625C168.906 54 168.922 54.3958 168.922 54.75C168.922 54.9271 168.906 55.1927 168.875 55.5469C168.844 55.8906 168.792 56.276 168.719 56.7031C168.656 57.1198 168.568 57.5521 168.453 58C168.339 58.4375 168.203 58.8385 168.047 59.2031C167.891 59.5677 167.703 59.8646 167.484 60.0938C167.276 60.3229 167.036 60.4375 166.766 60.4375ZM175.594 54C175.594 54.0521 175.589 54.1094 175.578 54.1719C175.568 54.224 175.552 54.276 175.531 54.3281C175.438 54.5677 175.292 54.7708 175.094 54.9375C174.896 55.0938 174.661 55.1719 174.391 55.1719C173.984 55.1719 173.708 54.9688 173.562 54.5625C173.542 54.5104 173.531 54.4531 173.531 54.3906C173.531 54.3177 173.526 54.2448 173.516 54.1719V53.7188C173.495 53.5729 173.458 53.4583 173.406 53.375C173.354 53.2917 173.266 53.25 173.141 53.25C172.964 53.25 172.792 53.3646 172.625 53.5938C172.469 53.8125 172.328 54.0781 172.203 54.3906C172.089 54.6927 171.995 55.0052 171.922 55.3281C171.849 55.651 171.812 55.9115 171.812 56.1094C171.812 56.2656 171.823 56.4583 171.844 56.6875C171.865 56.9062 171.906 57.1198 171.969 57.3281C172.031 57.5365 172.115 57.7188 172.219 57.875C172.333 58.0208 172.479 58.0938 172.656 58.0938C172.833 58.0938 172.995 58.0417 173.141 57.9375C173.297 57.8229 173.448 57.6927 173.594 57.5469C173.729 57.4219 173.875 57.2917 174.031 57.1562C174.198 57.0208 174.385 56.9531 174.594 56.9531C174.854 56.9531 175.057 57.0469 175.203 57.2344C175.359 57.4219 175.438 57.6354 175.438 57.875C175.438 58.2292 175.344 58.5625 175.156 58.875C174.969 59.1771 174.734 59.4427 174.453 59.6719C174.172 59.8906 173.859 60.0625 173.516 60.1875C173.172 60.3229 172.844 60.3906 172.531 60.3906C171.969 60.3906 171.49 60.25 171.094 59.9688C170.708 59.6875 170.396 59.3333 170.156 58.9062C169.917 58.4688 169.745 57.9948 169.641 57.4844C169.536 56.974 169.484 56.4896 169.484 56.0312C169.484 55.5 169.557 54.9271 169.703 54.3125C169.849 53.6875 170.073 53.1094 170.375 52.5781C170.677 52.0469 171.062 51.6042 171.531 51.25C172.01 50.8958 172.578 50.7188 173.234 50.7188C173.641 50.7188 173.99 50.8073 174.281 50.9844C174.583 51.1615 174.828 51.3958 175.016 51.6875C175.214 51.9688 175.359 52.2865 175.453 52.6406C175.557 52.9948 175.609 53.3438 175.609 53.6875C175.609 53.7396 175.609 53.7917 175.609 53.8438C175.609 53.8958 175.604 53.9479 175.594 54ZM179.047 49.0938C179.047 49.2396 179.005 49.3698 178.922 49.4844C178.849 49.599 178.75 49.7031 178.625 49.7969C178.5 49.8802 178.365 49.9479 178.219 50C178.073 50.0417 177.938 50.0625 177.812 50.0625C177.604 50.0625 177.422 50.0104 177.266 49.9062C177.109 49.8021 177.031 49.6406 177.031 49.4219C177.031 49.2656 177.068 49.1302 177.141 49.0156C177.224 48.8906 177.323 48.7917 177.438 48.7188C177.552 48.6354 177.682 48.5729 177.828 48.5312C177.974 48.4896 178.115 48.4688 178.25 48.4688C178.448 48.4688 178.63 48.5156 178.797 48.6094C178.964 48.7031 179.047 48.8646 179.047 49.0938ZM179.172 54.4062C179.172 54.5521 179.172 54.7083 179.172 54.875C179.172 55.0312 179.167 55.1823 179.156 55.3281C179.146 55.5052 179.141 55.7448 179.141 56.0469C179.141 56.3385 179.13 56.6562 179.109 57C179.089 57.3438 179.052 57.6927 179 58.0469C178.958 58.401 178.885 58.724 178.781 59.0156C178.677 59.3073 178.536 59.5469 178.359 59.7344C178.193 59.9115 177.979 60.0052 177.719 60.0156C177.521 60.026 177.354 59.9479 177.219 59.7812C177.083 59.6146 176.969 59.401 176.875 59.1406C176.792 58.8698 176.729 58.5729 176.688 58.25C176.646 57.9167 176.615 57.599 176.594 57.2969C176.573 56.9844 176.562 56.6979 176.562 56.4375C176.562 56.1771 176.562 55.9844 176.562 55.8594C176.562 55.6927 176.562 55.4583 176.562 55.1562C176.562 54.8438 176.573 54.5104 176.594 54.1562C176.615 53.8021 176.651 53.4427 176.703 53.0781C176.766 52.7135 176.849 52.3802 176.953 52.0781C177.068 51.776 177.214 51.5312 177.391 51.3438C177.568 51.1562 177.792 51.0625 178.062 51.0625C178.344 51.0625 178.557 51.2031 178.703 51.4844C178.849 51.7656 178.958 52.0938 179.031 52.4688C179.104 52.8438 179.146 53.2188 179.156 53.5938C179.167 53.9583 179.172 54.2292 179.172 54.4062ZM183.25 60.4531C182.719 60.4531 182.255 60.3125 181.859 60.0312C181.464 59.75 181.13 59.3906 180.859 58.9531C180.589 58.5156 180.385 58.0312 180.25 57.5C180.115 56.9583 180.047 56.4271 180.047 55.9062C180.047 55.3542 180.115 54.7865 180.25 54.2031C180.385 53.6094 180.594 53.0729 180.875 52.5938C181.156 52.1042 181.516 51.7083 181.953 51.4062C182.391 51.0938 182.911 50.9375 183.516 50.9375C184.099 50.9375 184.594 51.099 185 51.4219C185.417 51.7344 185.75 52.1302 186 52.6094C186.25 53.0781 186.427 53.5938 186.531 54.1562C186.635 54.7188 186.672 55.25 186.641 55.75C186.609 56.3021 186.521 56.8594 186.375 57.4219C186.24 57.9844 186.036 58.4896 185.766 58.9375C185.495 59.3854 185.151 59.75 184.734 60.0312C184.318 60.3125 183.823 60.4531 183.25 60.4531ZM183.406 53.3906C183.25 53.3906 183.109 53.474 182.984 53.6406C182.87 53.8073 182.771 54.0104 182.688 54.25C182.615 54.4896 182.557 54.7448 182.516 55.0156C182.474 55.276 182.453 55.5052 182.453 55.7031C182.453 55.9531 182.474 56.224 182.516 56.5156C182.568 56.8073 182.635 57.0781 182.719 57.3281C182.802 57.5677 182.901 57.7708 183.016 57.9375C183.141 58.0938 183.281 58.1719 183.438 58.1719C183.604 58.1719 183.745 58.0938 183.859 57.9375C183.984 57.7812 184.083 57.5833 184.156 57.3438C184.229 57.1042 184.281 56.8438 184.312 56.5625C184.344 56.2708 184.359 56 184.359 55.75C184.359 55.5208 184.339 55.2708 184.297 55C184.255 54.7188 184.193 54.4583 184.109 54.2188C184.036 53.9792 183.938 53.7812 183.812 53.625C183.698 53.4688 183.562 53.3906 183.406 53.3906ZM191.875 60.4375C191.698 60.4375 191.557 60.3542 191.453 60.1875C191.349 60.0312 191.271 59.849 191.219 59.6406C191.167 59.4323 191.13 59.224 191.109 59.0156C191.099 58.7969 191.094 58.6302 191.094 58.5156C191.094 58.2031 191.109 57.8906 191.141 57.5781C191.182 57.2656 191.224 56.9531 191.266 56.6406C191.318 56.3281 191.359 56.0156 191.391 55.7031C191.432 55.3906 191.453 55.0781 191.453 54.7656C191.453 54.6406 191.448 54.5052 191.438 54.3594C191.427 54.2135 191.401 54.0781 191.359 53.9531C191.328 53.8177 191.271 53.7083 191.188 53.625C191.104 53.5417 190.995 53.5 190.859 53.5C190.766 53.5 190.661 53.5781 190.547 53.7344C190.432 53.8802 190.323 54.0521 190.219 54.25C190.125 54.4375 190.042 54.6302 189.969 54.8281C189.906 55.0156 189.875 55.1562 189.875 55.25C189.875 55.4792 189.875 55.7135 189.875 55.9531C189.885 56.1823 189.891 56.4167 189.891 56.6562V57.5625C189.88 57.75 189.865 57.9427 189.844 58.1406C189.823 58.3385 189.792 58.5312 189.75 58.7188C189.719 58.9062 189.672 59.0885 189.609 59.2656C189.547 59.4323 189.464 59.5833 189.359 59.7188C189.266 59.8438 189.151 59.9479 189.016 60.0312C188.88 60.1146 188.719 60.1562 188.531 60.1562C188.323 60.1562 188.151 60.0885 188.016 59.9531C187.88 59.8177 187.771 59.6458 187.688 59.4375C187.604 59.2188 187.542 58.9792 187.5 58.7188C187.469 58.4479 187.443 58.1875 187.422 57.9375C187.411 57.6771 187.406 57.4427 187.406 57.2344C187.417 57.0156 187.422 56.8438 187.422 56.7188V55.9844C187.422 55.5885 187.411 55.1979 187.391 54.8125C187.38 54.4271 187.375 54.0417 187.375 53.6562C187.375 53.4479 187.375 53.1823 187.375 52.8594C187.385 52.5365 187.427 52.224 187.5 51.9219C187.573 51.6094 187.693 51.3438 187.859 51.125C188.026 50.9062 188.271 50.7969 188.594 50.7969C188.74 50.7969 188.87 50.8438 188.984 50.9375C189.099 51.0312 189.198 51.1458 189.281 51.2812C189.375 51.4167 189.448 51.5625 189.5 51.7188C189.562 51.875 189.609 52.0104 189.641 52.125C189.745 51.9792 189.865 51.8385 190 51.7031C190.146 51.5677 190.307 51.4479 190.484 51.3438C190.661 51.2396 190.859 51.1562 191.078 51.0938C191.297 51.0312 191.547 51 191.828 51C192.359 51 192.771 51.1302 193.062 51.3906C193.365 51.6406 193.583 51.9583 193.719 52.3438C193.865 52.7188 193.953 53.125 193.984 53.5625C194.016 54 194.031 54.3958 194.031 54.75C194.031 54.9271 194.016 55.1927 193.984 55.5469C193.953 55.8906 193.901 56.276 193.828 56.7031C193.766 57.1198 193.677 57.5521 193.562 58C193.448 58.4375 193.312 58.8385 193.156 59.2031C193 59.5677 192.812 59.8646 192.594 60.0938C192.385 60.3229 192.146 60.4375 191.875 60.4375ZM201.547 57.7969C201.547 57.9844 201.536 58.2292 201.516 58.5312C201.505 58.8333 201.464 59.1302 201.391 59.4219C201.318 59.7031 201.203 59.9479 201.047 60.1562C200.891 60.3646 200.672 60.4688 200.391 60.4688C200.005 60.4688 199.708 60.3438 199.5 60.0938C199.292 59.8438 199.193 59.5312 199.203 59.1562C198.87 59.4479 198.49 59.6771 198.062 59.8438C197.646 60.0104 197.219 60.0938 196.781 60.0938C196.479 60.0938 196.193 60.0208 195.922 59.875C195.651 59.7292 195.411 59.5417 195.203 59.3125C194.995 59.0833 194.828 58.8281 194.703 58.5469C194.578 58.2552 194.516 57.9688 194.516 57.6875C194.516 57.1875 194.667 56.75 194.969 56.375C195.281 56 195.661 55.6823 196.109 55.4219C196.557 55.151 197.031 54.9375 197.531 54.7812C198.042 54.625 198.495 54.5208 198.891 54.4688C198.891 54.4167 198.891 54.3698 198.891 54.3281C198.901 54.2865 198.906 54.2396 198.906 54.1875C198.906 53.8646 198.818 53.6042 198.641 53.4062C198.464 53.2083 198.214 53.1094 197.891 53.1094C197.63 53.1094 197.406 53.1562 197.219 53.25C197.031 53.3333 196.854 53.4323 196.688 53.5469C196.521 53.651 196.354 53.75 196.188 53.8438C196.021 53.9271 195.833 53.9688 195.625 53.9688C195.396 53.9688 195.198 53.8958 195.031 53.75C194.875 53.6042 194.797 53.4167 194.797 53.1875C194.797 52.8438 194.896 52.5312 195.094 52.25C195.302 51.9688 195.557 51.7344 195.859 51.5469C196.172 51.349 196.505 51.1979 196.859 51.0938C197.224 50.9792 197.557 50.9219 197.859 50.9219C198.141 50.9219 198.422 50.9583 198.703 51.0312C198.984 51.0938 199.25 51.1979 199.5 51.3438C199.75 51.4792 199.974 51.651 200.172 51.8594C200.38 52.0573 200.547 52.2917 200.672 52.5625C200.859 52.9479 201.01 53.3594 201.125 53.7969C201.24 54.224 201.328 54.6667 201.391 55.125C201.453 55.5729 201.495 56.026 201.516 56.4844C201.536 56.9323 201.547 57.3698 201.547 57.7969ZM199.047 57.2969L199 56.2344C198.979 56.2344 198.958 56.2344 198.938 56.2344C198.917 56.224 198.896 56.2188 198.875 56.2188C198.74 56.2188 198.568 56.2552 198.359 56.3281C198.161 56.3906 197.969 56.4844 197.781 56.6094C197.594 56.724 197.432 56.8542 197.297 57C197.172 57.1458 197.109 57.2969 197.109 57.4531C197.109 57.599 197.161 57.6979 197.266 57.75C197.37 57.8021 197.49 57.8281 197.625 57.8281C197.854 57.8281 198.099 57.7708 198.359 57.6562C198.62 57.5312 198.849 57.4115 199.047 57.2969ZM209.5 51.5938C209.5 51.9271 209.411 52.2396 209.234 52.5312C209.068 52.8125 208.854 53.0781 208.594 53.3281C208.344 53.5677 208.062 53.7812 207.75 53.9688C207.448 54.1458 207.167 54.2865 206.906 54.3906C206.969 54.8906 207 55.4062 207 55.9375C207 56.1146 206.995 56.3125 206.984 56.5312C206.984 56.75 206.953 56.9583 206.891 57.1562C206.839 57.3438 206.745 57.5052 206.609 57.6406C206.484 57.776 206.302 57.8438 206.062 57.8438C205.646 57.8438 205.365 57.6354 205.219 57.2188C205.167 57.0625 205.125 56.8542 205.094 56.5938C205.062 56.3229 205.036 56.0469 205.016 55.7656C205.005 55.474 205 55.1927 205 54.9219C205 54.651 205 54.4271 205 54.25C205 54.1042 205.005 53.9323 205.016 53.7344C205.036 53.5365 205.089 53.375 205.172 53.25C205.266 53.1146 205.422 52.9844 205.641 52.8594C205.859 52.724 206.083 52.5833 206.312 52.4375C206.552 52.2917 206.76 52.1302 206.938 51.9531C207.115 51.776 207.203 51.5677 207.203 51.3281C207.203 51.151 207.161 50.9896 207.078 50.8438C206.995 50.6979 206.885 50.5781 206.75 50.4844C206.625 50.3802 206.479 50.3021 206.312 50.25C206.156 50.1875 205.995 50.1562 205.828 50.1562C205.432 50.1562 205.12 50.224 204.891 50.3594C204.661 50.4844 204.464 50.625 204.297 50.7812C204.141 50.9271 203.99 51.0677 203.844 51.2031C203.708 51.3281 203.531 51.3906 203.312 51.3906C203.062 51.3906 202.833 51.3021 202.625 51.125C202.427 50.9479 202.328 50.7344 202.328 50.4844C202.328 50.0781 202.448 49.7344 202.688 49.4531C202.927 49.1615 203.224 48.9323 203.578 48.7656C203.932 48.5885 204.307 48.4635 204.703 48.3906C205.099 48.3073 205.453 48.2656 205.766 48.2656C206.182 48.2656 206.609 48.3594 207.047 48.5469C207.495 48.724 207.896 48.9635 208.25 49.2656C208.615 49.5677 208.911 49.9219 209.141 50.3281C209.38 50.7344 209.5 51.1562 209.5 51.5938ZM207.188 59.1875C207.188 59.3646 207.141 59.5156 207.047 59.6406C206.964 59.7656 206.854 59.8698 206.719 59.9531C206.594 60.0365 206.448 60.099 206.281 60.1406C206.125 60.1823 205.974 60.2031 205.828 60.2031C205.589 60.2031 205.365 60.1458 205.156 60.0312C204.958 59.9167 204.859 59.7292 204.859 59.4688C204.859 59.3021 204.901 59.1562 204.984 59.0312C205.078 58.8958 205.193 58.7812 205.328 58.6875C205.464 58.5938 205.609 58.526 205.766 58.4844C205.932 58.4323 206.089 58.4062 206.234 58.4062C206.474 58.4062 206.693 58.4688 206.891 58.5938C207.089 58.7188 207.188 58.9167 207.188 59.1875Z" fill="white"/>
<defs>
<filter id="filter0_i_694_198" x="0" y="0" width="234" height="135.105" filterUnits="userSpaceOnUse" color-interpolation-filters="sRGB">
<feFlood flood-opacity="0" result="BackgroundImageFix"/>
<feBlend mode="normal" in="SourceGraphic" in2="BackgroundImageFix" result="shape"/>
<feColorMatrix in="SourceAlpha" type="matrix" values="0 0 0 0 0 0 0 0 0 0 0 0 0 0 0 0 0 0 127 0" result="hardAlpha"/>
<feOffset dy="4"/>
<feGaussianBlur stdDeviation="2"/>
<feComposite in2="hardAlpha" operator="arithmetic" k2="-1" k3="1"/>
<feColorMatrix type="matrix" values="0 0 0 0 0 0 0 0 0 0 0 0 0 0 0 0 0 0 0.25 0"/>
<feBlend mode="normal" in2="shape" result="effect1_innerShadow_694_198"/>
</filter>
</defs>
</svg>
