<svg width="49" height="49" viewBox="0 0 49 49" fill="none" xmlns="http://www.w3.org/2000/svg">
<rect x="0.5" y="0.5" width="47.5714" height="48" rx="23.7857" stroke="#23A6F0"/>
<path d="M31.5401 17.936C31.5092 17.0002 31.0191 16.1398 30.2301 15.636C29.1624 14.9413 27.8244 14.8071 26.6401 15.276L22.0901 17.046C20.9346 17.4532 20.1429 18.522 20.0901 19.746V27.066C19.6902 26.8526 19.2433 26.7426 18.7901 26.746C17.6607 26.746 16.6427 27.4268 16.2115 28.4706C15.7803 29.5144 16.0208 30.7152 16.8208 31.5123C17.6208 32.3095 18.8225 32.5457 19.8647 32.1107C20.9069 31.6757 21.5841 30.6553 21.5801 29.526C21.5843 29.4727 21.5843 29.4192 21.5801 29.366V19.746C21.6384 19.1328 22.0609 18.6155 22.6501 18.436L27.1901 16.636C27.9165 16.3538 28.7339 16.4355 29.3901 16.856C29.7746 17.0884 30.0183 17.4971 30.0401 17.946V25.216C29.6417 24.9965 29.1949 24.8796 28.7401 24.876C27.2153 24.8669 25.9657 26.0837 25.9342 27.6082C25.9026 29.1327 27.1009 30.4001 28.6247 30.4542C30.1486 30.5082 31.4335 29.3288 31.5101 27.806C31.5147 27.7594 31.5147 27.7125 31.5101 27.666L31.5401 17.936Z" fill="#F4719C"/>
</svg>
