<svg width="49" height="49" viewBox="0 0 49 49" fill="none" xmlns="http://www.w3.org/2000/svg">
<rect width="48.57" height="49" rx="24.285" fill="white"/>
<path d="M29.5401 18.773C29.5092 17.8373 29.0191 16.9769 28.2301 16.473C27.1624 15.7783 25.8244 15.6441 24.6401 16.113L20.0901 17.883C18.9346 18.2902 18.1429 19.359 18.0901 20.583V27.903C17.6902 27.6897 17.2433 27.5797 16.7901 27.583C15.6607 27.583 14.6427 28.2638 14.2115 29.3076C13.7803 30.3514 14.0208 31.5522 14.8208 32.3494C15.6208 33.1465 16.8225 33.3827 17.8647 32.9477C18.9069 32.5127 19.5841 31.4923 19.5801 30.363C19.5843 30.3097 19.5843 30.2562 19.5801 30.203V20.583C19.6384 19.9699 20.0609 19.4526 20.6501 19.273L25.1901 17.473C25.9165 17.1908 26.7339 17.2725 27.3901 17.693C27.7746 17.9255 28.0183 18.3341 28.0401 18.783V26.053C27.6417 25.8335 27.1949 25.7167 26.7401 25.713C25.2153 25.704 23.9657 26.9208 23.9342 28.4453C23.9026 29.9697 25.1009 31.2371 26.6247 31.2912C28.1486 31.3452 29.4335 30.1659 29.5101 28.643C29.5147 28.5964 29.5147 28.5495 29.5101 28.503L29.5401 18.773Z" fill="#23A6F0"/>
</svg>
