<svg width="48" height="49" viewBox="0 0 48 49" fill="none" xmlns="http://www.w3.org/2000/svg">
<rect width="48" height="49" rx="24" fill="white"/>
<path d="M29.5401 18.7729C29.5092 17.8372 29.0191 16.9768 28.2301 16.4729C27.1624 15.7783 25.8244 15.6441 24.6401 16.1129L20.0901 17.8829C18.9346 18.2901 18.1429 19.359 18.0901 20.5829V27.9029C17.6902 27.6896 17.2433 27.5796 16.7901 27.5829C15.6607 27.5829 14.6427 28.2638 14.2115 29.3076C13.7803 30.3513 14.0208 31.5522 14.8208 32.3493C15.6208 33.1464 16.8225 33.3827 17.8647 32.9477C18.9069 32.5127 19.5841 31.4923 19.5801 30.3629C19.5843 30.3097 19.5843 30.2562 19.5801 30.2029V20.5829C19.6384 19.9698 20.0609 19.4525 20.6501 19.2729L25.1901 17.4729C25.9165 17.1907 26.7339 17.2725 27.3901 17.6929C27.7746 17.9254 28.0183 18.3341 28.0401 18.7829V26.0529C27.6417 25.8334 27.1949 25.7166 26.7401 25.7129C25.2153 25.7039 23.9657 26.9207 23.9342 28.4452C23.9026 29.9697 25.1009 31.2371 26.6247 31.2911C28.1486 31.3452 29.4335 30.1658 29.5101 28.6429C29.5147 28.5964 29.5147 28.5495 29.5101 28.5029L29.5401 18.7729Z" fill="#FCB44E"/>
</svg>
