<svg width="47" height="49" viewBox="0 0 47 49" fill="none" xmlns="http://www.w3.org/2000/svg">
<rect width="47" height="49" rx="23.5" fill="#23A6F0"/>
<path d="M32 19.5418C31.9662 18.7317 31.4301 17.9868 30.5669 17.5506C29.399 16.9492 27.9352 16.833 26.6397 17.2389L21.6622 18.7713C20.3982 19.1238 19.5321 20.0492 19.4743 21.1088V27.4461C19.0368 27.2614 18.548 27.1662 18.0522 27.169C16.8167 27.1691 15.7031 27.7585 15.2314 28.6622C14.7596 29.5658 15.0227 30.6054 15.8979 31.2955C16.7731 31.9857 18.0876 32.1902 19.2278 31.8136C20.3679 31.437 21.1087 30.5536 21.1043 29.5758C21.109 29.5297 21.109 29.4834 21.1043 29.4373V21.1088C21.1681 20.578 21.6303 20.1301 22.2748 19.9747L27.2413 18.4163C28.036 18.172 28.9302 18.2428 29.648 18.6068C30.0687 18.8081 30.3353 19.1618 30.3591 19.5505V25.8445C29.9233 25.6544 29.4345 25.5533 28.9369 25.5501C27.2689 25.5423 25.9019 26.5957 25.8675 27.9156C25.833 29.2354 27.1437 30.3326 28.8108 30.3794C30.4778 30.4262 31.8835 29.4052 31.9672 28.0867C31.9723 28.0464 31.9723 28.0058 31.9672 27.9655L32 19.5418Z" fill="#FCF6F1"/>
</svg>
