<svg width="57" height="49" viewBox="0 0 57 49" fill="none" xmlns="http://www.w3.org/2000/svg">
<rect x="0.5" y="0.5" width="55.62" height="48" rx="24" stroke="#23A6F0"/>
<path fill-rule="evenodd" clip-rule="evenodd" d="M32.58 14.5001H27.29C25.3349 14.5091 23.6728 15.9301 23.36 17.8601C21.445 18.119 20.0125 19.7477 20 21.6801V29.8501C19.9973 31.0842 20.4864 32.2684 21.359 33.1411C22.2316 34.0137 23.4159 34.5027 24.65 34.5001H29.65C31.5383 34.5008 33.1559 33.1486 33.49 31.2901C35.3175 30.8828 36.618 29.2624 36.62 27.3901V18.5001C36.6201 17.4322 36.1931 16.4087 35.4343 15.6574C34.6755 14.9061 33.6478 14.4894 32.58 14.5001ZM26.47 19.3801H31.86C32.2742 19.3801 32.61 19.7159 32.61 20.1301C32.61 20.5443 32.2742 20.8801 31.86 20.8801H26.47C26.0558 20.8801 25.72 20.5443 25.72 20.1301C25.72 19.7159 26.0558 19.3801 26.47 19.3801ZM24.61 33.1701H29.61C30.7427 33.1714 31.7459 32.4392 32.09 31.3601H27.29C25.0809 31.3601 23.29 29.5692 23.29 27.3601V19.1801C22.1244 19.449 21.2965 20.4839 21.29 21.6801V29.8501C21.3009 31.6791 22.781 33.1592 24.61 33.1701ZM25.72 26.5701C25.72 26.1559 26.0558 25.8201 26.47 25.8201H30.29C30.7042 25.8201 31.04 26.1559 31.04 26.5701C31.04 26.9843 30.7042 27.3201 30.29 27.3201H26.47C26.0558 27.3201 25.72 26.9843 25.72 26.5701ZM26.47 24.1001H33.4C33.8142 24.1001 34.15 23.7643 34.15 23.3501C34.15 22.9359 33.8142 22.6001 33.4 22.6001H26.47C26.0558 22.6001 25.72 22.9359 25.72 23.3501C25.72 23.7643 26.0558 24.1001 26.47 24.1001Z" fill="#00D287"/>
</svg>
