<svg width="49" height="49" viewBox="0 0 49 49" fill="none" xmlns="http://www.w3.org/2000/svg">
<rect x="0.5" y="0.5" width="47.5714" height="48" rx="23.7857" stroke="#23A6F0"/>
<path fill-rule="evenodd" clip-rule="evenodd" d="M28.58 14.0002H23.29C21.3349 14.0092 19.6728 15.4303 19.36 17.3602C17.445 17.6191 16.0125 19.2478 16 21.1802V29.3502C15.9973 30.5843 16.4864 31.7686 17.359 32.6412C18.2316 33.5138 19.4159 34.0029 20.65 34.0002H25.65C27.5383 34.0009 29.1559 32.6487 29.49 30.7902C31.3175 30.383 32.618 28.7625 32.62 26.8902V18.0002C32.6201 16.9324 32.1931 15.9088 31.4343 15.1575C30.6755 14.4062 29.6478 13.9895 28.58 14.0002ZM22.47 18.8802H27.86C28.2742 18.8802 28.61 19.216 28.61 19.6302C28.61 20.0444 28.2742 20.3802 27.86 20.3802H22.47C22.0558 20.3802 21.72 20.0444 21.72 19.6302C21.72 19.216 22.0558 18.8802 22.47 18.8802ZM20.61 32.6702H25.61C26.7427 32.6715 27.7459 31.9393 28.09 30.8602H23.29C21.0809 30.8602 19.29 29.0693 19.29 26.8602V18.6802C18.1244 18.9491 17.2965 19.984 17.29 21.1802V29.3502C17.3009 31.1792 18.781 32.6593 20.61 32.6702ZM21.72 26.0702C21.72 25.656 22.0558 25.3202 22.47 25.3202H26.29C26.7042 25.3202 27.04 25.656 27.04 26.0702C27.04 26.4844 26.7042 26.8202 26.29 26.8202H22.47C22.0558 26.8202 21.72 26.4844 21.72 26.0702ZM22.47 23.6002H29.4C29.8142 23.6002 30.15 23.2644 30.15 22.8502C30.15 22.436 29.8142 22.1002 29.4 22.1002H22.47C22.0558 22.1002 21.72 22.436 21.72 22.8502C21.72 23.2644 22.0558 23.6002 22.47 23.6002Z" fill="#00D287"/>
</svg>
