<svg width="304" height="638" viewBox="0 0 304 638" fill="none" xmlns="http://www.w3.org/2000/svg">
<path d="M370.935 74.6377C370.935 74.6377 329.876 34.1588 296.092 24.416C251.546 11.5695 217.84 24.4015 177.383 39.9725C136.926 55.5435 102.806 86.7047 50.5477 87.2209C3.19068 87.6887 -30.5986 74.5234 -64.4005 50.584" stroke="#FCB44E" stroke-width="27"/>
<path d="M108.441 39.5336C105.228 38.8368 101.216 36.7852 98.0528 37.4969C96.5731 37.8299 95.1722 38.0189 93.7088 38.4747C87.5452 40.3943 81.5961 42.643 74.8524 42.7625C68.6469 42.8724 62.9338 41.8382 56.799 40.1607C51.1422 38.6139 45.8814 37.4494 40.2132 37.7508C34.2967 38.0654 28.829 39.8574 22.7341 39.4484C20.7831 39.3175 18.7935 39.4956 16.851 39.2259C14.856 38.9488 12.9494 38.3112 10.9673 37.981C9.74191 37.7769 -1.9823 35.2132 -1.89825 34.0551C-1.73044 31.743 1.71111 29.4979 3.38261 28.6074C6.68375 26.8488 10.3789 25.7631 14.0653 24.8845C21.8537 23.0282 29.1112 20.7379 37.5679 23.4527C43.2029 25.2616 48.7944 27.9971 54.0633 30.9136C58.865 33.5716 63.2809 36.5526 68.4795 38.1453C70.4648 38.7535 73.1359 39.9039 75.1769 39.8597C76.2486 39.8365 77.2316 39.9195 76.1188 38.8256C72.1101 34.8853 65.7325 32.1782 60.7469 30.1062C57.0825 28.5833 53.4086 27.2608 49.6472 26.2115C46.0862 25.2182 42.3486 24.84 38.9278 23.2017C34.9984 21.3198 31.7622 18.492 28.1126 16.0897C25.9791 14.6854 23.401 13.4484 21.4744 11.7447C20.4989 10.882 19.8041 11.6273 18.7577 12.1045C17.1226 12.8501 15.5143 13.595 13.835 14.2024" stroke="#FCB44E" stroke-width="37" stroke-linecap="round"/>
<path d="M118.436 27.4015C115.223 26.7047 111.212 24.6531 108.048 25.3649C106.569 25.6978 105.168 25.8869 103.704 26.3426C97.5407 28.2622 91.5916 30.5109 84.8479 30.6304C78.6424 30.7403 72.9293 29.7061 66.7944 28.0286C61.1377 26.4818 55.8768 25.3173 50.2087 25.6187C44.2921 25.9333 38.8245 27.7254 32.7296 27.3163C30.7786 27.1854 28.7889 27.3635 26.8465 27.0938C24.8514 26.8168 22.9449 26.1792 20.9628 25.8489C19.7374 25.6448 8.01318 23.0811 8.09723 21.923C8.26504 19.6109 11.7066 17.3658 13.3781 16.4754C16.6792 14.7167 20.3744 13.631 24.0608 12.7524C31.8491 10.8961 39.1067 8.60584 47.5634 11.3206C53.1984 13.1296 58.7899 15.865 64.0588 18.7815C68.8605 21.4395 73.2764 24.4205 78.4749 26.0132C80.4603 26.6215 83.1314 27.7718 85.1724 27.7276C86.2441 27.7044 87.2271 27.7874 86.1143 26.6935C82.1056 22.7532 75.728 20.0461 70.7424 17.9741C67.078 16.4512 63.404 15.1287 59.6427 14.0795C56.0817 13.0862 52.3441 12.708 48.9233 11.0696C44.9939 9.18775 41.7577 6.35987 38.108 3.9576C35.9746 2.55334 33.3965 1.31635 31.4699 -0.387363C30.4943 -1.25006 29.7996 -0.504807 28.7532 -0.0276152C27.1181 0.718052 25.5098 1.46288 23.8305 2.07028" stroke="#FCB44E" stroke-width="37" stroke-linecap="round"/>
<path d="M10.4755 1.34771C9.87296 2.09172 9.21344 2.77881 8.60255 3.4944C8.31095 3.83598 8.18366 4.24856 7.85532 4.56763C7.41893 4.99171 7.06238 5.45506 6.59567 5.8523C5.46786 6.8122 4.19062 7.51619 2.87215 8.20164C2.31973 8.48884 1.76819 8.93723 1.18024 9.1437C0.720175 9.30526 0.235892 9.89171 -0.24029 9.92158" stroke="#FCB44E" stroke-width="37" stroke-linecap="round"/>
<path d="M4.80994 4.83228C5.22721 16.9565 -0.388914 21.8731 -6.30932 26.9121C-10.3861 30.382 -14.4629 33.8519 -18.5397 37.3217" stroke="#FCB44E" stroke-width="37" stroke-linecap="round"/>
<path d="M100.321 41.1313C81.1202 60.279 60.9099 59.4277 39.8433 58.3103C25.3368 57.5407 10.8303 56.7712 -3.67619 56.0017" stroke="#FCB44E" stroke-width="37" stroke-linecap="round"/>
<path d="M147.016 23.1851C122.946 45.2264 97.7278 44.144 71.4428 42.7497C53.3429 41.7896 35.243 40.8294 17.143 39.8693" stroke="#FCB44E" stroke-width="37" stroke-linecap="round"/>
<path d="M366.655 60.7812C366.655 60.7812 333.077 20.629 304.68 7.26364C267.236 -10.3596 238.167 -4.86653 203.27 1.8677C168.373 8.60193 138.352 29.333 93.9162 21.6712C53.6478 14.7281 25.3574 -1.49555 -2.59159 -26.7159" stroke="#FCB44E"/>
<path d="M364.84 72.6003C364.84 72.6003 333.649 30.6041 305.955 15.4837C269.438 -4.45359 239.864 -0.938946 204.351 3.41888C168.839 7.77671 137.335 26.3217 93.1524 15.7881C53.1137 6.24235 25.7094 -11.702 -0.777061 -38.5351" stroke="#F4719C" stroke-width="39"/>
<path d="M-66.8356 496.27C-66.8356 496.27 -34.9599 540.905 -6.74542 557.783C30.4574 580.038 60.5093 577.882 96.5946 575.151C132.68 572.42 164.634 554.931 209.592 567.91C250.334 579.672 278.265 599.435 305.298 628.276" stroke="#F4719C" stroke-width="39"/>
<path d="M-73.04 493.879C-73.04 493.879 -28.1801 540.417 7.24505 554.305C53.9557 572.617 87.8781 563.116 128.584 551.537C169.291 539.958 202.484 511.52 256.3 516.86C305.068 521.698 340.714 539.131 377.053 567.724" stroke="#F4719C" stroke-width="27"/>
<path d="M193.956 542.788C197.225 543.661 201.311 545.963 204.524 545.388C206.027 545.119 207.451 544.993 208.936 544.597C215.195 542.929 221.234 540.913 228.089 541.121C234.397 541.313 240.21 542.655 246.453 544.678C252.21 546.543 257.563 547.996 263.324 547.965C269.338 547.932 274.889 546.361 281.087 547.08C283.071 547.31 285.093 547.225 287.069 547.597C289.098 547.979 291.039 548.727 293.055 549.163C294.301 549.433 306.231 552.639 306.15 553.824C305.988 556.189 302.499 558.324 300.803 559.156C297.454 560.8 293.701 561.733 289.957 562.454C282.047 563.977 274.678 565.971 266.07 562.77C260.334 560.637 254.639 557.555 249.271 554.303C244.379 551.339 239.878 548.063 234.586 546.173C232.566 545.451 229.846 544.14 227.771 544.085C226.681 544.056 225.682 543.923 226.817 545.1C230.908 549.341 237.403 552.433 242.479 554.804C246.211 556.547 249.951 558.084 253.779 559.346C257.403 560.54 261.204 561.112 264.688 562.961C268.691 565.085 271.992 568.147 275.712 570.791C277.886 572.337 280.512 573.734 282.477 575.577C283.472 576.51 284.176 575.779 285.238 575.341C286.897 574.656 288.529 573.97 290.234 573.429" stroke="#F4719C" stroke-width="37" stroke-linecap="round"/>
<path d="M183.842 554.75C187.111 555.623 191.198 557.925 194.411 557.35C195.914 557.081 197.337 556.956 198.823 556.56C205.081 554.892 211.12 552.875 217.976 553.084C224.284 553.275 230.096 554.617 236.339 556.64C242.096 558.505 247.449 559.958 253.21 559.927C259.224 559.894 264.775 558.323 270.973 559.042C272.957 559.272 274.979 559.187 276.955 559.559C278.984 559.941 280.925 560.689 282.941 561.125C284.188 561.395 296.117 564.601 296.036 565.786C295.875 568.151 292.385 570.287 290.689 571.119C287.34 572.762 283.588 573.695 279.844 574.416C271.933 575.939 264.564 577.934 255.956 574.732C250.221 572.599 244.525 569.517 239.157 566.265C234.265 563.301 229.764 560.025 224.473 558.135C222.452 557.414 219.732 556.102 217.657 556.047C216.568 556.018 215.568 555.885 216.704 557.062C220.795 561.303 227.289 564.395 232.366 566.766C236.097 568.509 239.837 570.047 243.665 571.308C247.289 572.502 251.091 573.074 254.575 574.923C258.577 577.048 261.878 580.109 265.598 582.754C267.772 584.3 270.398 585.696 272.364 587.539C273.359 588.472 274.062 587.741 275.124 587.303C276.783 586.618 278.416 585.932 280.12 585.391" stroke="#F4719C" stroke-width="37" stroke-linecap="round"/>
<path d="M293.7 586.788C294.31 586.054 294.978 585.381 295.596 584.676C295.891 584.34 296.019 583.923 296.351 583.612C296.793 583.198 297.154 582.74 297.627 582.355C298.769 581.425 300.065 580.765 301.403 580.126C301.963 579.858 302.522 579.425 303.119 579.242C303.586 579.099 304.076 578.521 304.56 578.513" stroke="#F4719C" stroke-width="37" stroke-linecap="round"/>
<path d="M299.446 583.489C298.974 571.024 304.664 566.253 310.662 561.372C314.793 558.01 318.924 554.649 323.055 551.287" stroke="#F4719C" stroke-width="37" stroke-linecap="round"/>
<path d="M202.203 541.546C221.648 522.835 242.197 524.7 263.618 526.881C278.369 528.382 293.12 529.883 307.87 531.385" stroke="#F4719C" stroke-width="37" stroke-linecap="round"/>
<path d="M154.804 557.676C179.187 536.233 204.828 538.581 231.555 541.302C249.96 543.175 268.364 545.049 286.769 546.922" stroke="#F4719C" stroke-width="37" stroke-linecap="round"/>
<path d="M-68.6335 508.312C-68.6335 508.312 -34.3391 551.171 -5.41686 566.283C32.7191 586.208 62.2496 581.996 97.7 576.796C133.15 571.596 163.587 551.79 208.792 561.834C249.757 570.936 278.582 588.976 307.096 616.234" stroke="#F4719C"/>
</svg>
