<svg width="304" height="638" viewBox="0 0 304 638" fill="none" xmlns="http://www.w3.org/2000/svg">
<path d="M-140.886 524.954C-140.886 524.954 -102.304 578.202 -68.9999 598.818C-25.0862 626.001 9.6338 624.368 51.3192 622.241C93.0045 620.114 129.354 600.572 181.902 617.117C229.521 632.11 262.605 656.097 294.988 690.694" stroke="#F4719C" stroke-width="39"/>
<path d="M-148.16 521.969C-148.16 521.969 -94.471 577.833 -52.9287 595.158C1.84779 618.004 40.7753 607.88 87.4808 595.523C134.186 583.166 171.562 550.832 234.081 558.689C290.736 565.808 332.667 587.295 375.818 621.878" stroke="#F4719C" stroke-width="27"/>
<path d="M162.855 587.215C166.673 588.335 171.491 591.155 175.191 590.576C176.921 590.305 178.565 590.201 180.271 589.781C187.456 588.013 194.374 585.83 202.32 586.278C209.632 586.69 216.413 588.435 223.718 590.99C230.455 593.347 236.708 595.209 243.378 595.344C250.341 595.484 256.711 593.808 263.915 594.835C266.221 595.164 268.559 595.124 270.861 595.619C273.225 596.127 275.501 597.061 277.852 597.632C279.306 597.985 293.24 602.097 293.19 603.483C293.092 606.249 289.13 608.647 287.198 609.572C283.381 611.397 279.071 612.379 274.762 613.113C265.658 614.662 257.199 616.78 247.112 612.773C240.39 610.103 233.679 606.323 227.341 602.353C221.565 598.735 216.231 594.762 210.033 592.39C207.665 591.484 204.467 589.866 202.062 589.741C200.799 589.674 199.637 589.488 200.996 590.902C205.892 595.993 213.528 599.808 219.495 602.737C223.882 604.891 228.27 606.804 232.75 608.395C236.992 609.903 241.415 610.685 245.519 612.956C250.233 615.564 254.17 619.249 258.577 622.459C261.153 624.335 264.246 626.049 266.59 628.267C267.778 629.39 268.565 628.555 269.778 628.073C271.674 627.319 273.538 626.564 275.492 625.981" stroke="#F4719C" stroke-width="37" stroke-linecap="round"/>
<path d="M151.59 600.931C155.409 602.051 160.227 604.87 163.926 604.291C165.657 604.021 167.3 603.916 169.006 603.496C176.191 601.728 183.109 599.545 191.055 599.993C198.368 600.405 205.148 602.15 212.454 604.706C219.19 607.063 225.443 608.925 232.114 609.059C239.076 609.2 245.446 607.524 252.65 608.551C254.956 608.879 257.295 608.84 259.597 609.334C261.961 609.842 264.236 610.777 266.588 611.348C268.041 611.701 281.975 615.813 281.926 617.198C281.827 619.964 277.866 622.363 275.933 623.287C272.117 625.113 267.806 626.095 263.497 626.828C254.394 628.378 245.935 630.496 235.847 626.489C229.125 623.819 222.415 620.038 216.077 616.068C210.301 612.45 204.966 608.477 198.768 606.106C196.401 605.2 193.202 603.582 190.798 603.456C189.535 603.39 188.372 603.204 189.731 604.617C194.627 609.708 202.263 613.524 208.231 616.453C212.617 618.606 217.006 620.519 221.486 622.111C225.727 623.618 230.151 624.401 234.254 626.671C238.968 629.28 242.906 632.965 247.312 636.174C249.888 638.05 252.981 639.764 255.326 641.982C256.513 643.106 257.301 642.27 258.514 641.788C260.41 641.035 262.274 640.28 264.228 639.697" stroke="#F4719C" stroke-width="37" stroke-linecap="round"/>
<path d="M280.006 641.737C280.684 640.895 281.433 640.126 282.122 639.319C282.451 638.934 282.584 638.449 282.957 638.094C283.453 637.622 283.854 637.096 284.387 636.659C285.676 635.604 287.151 634.869 288.677 634.16C289.316 633.863 289.947 633.372 290.631 633.175C291.167 633.021 291.712 632.359 292.273 632.364" stroke="#F4719C" stroke-width="37" stroke-linecap="round"/>
<path d="M286.536 638.043C285.523 623.423 291.934 618.002 298.698 612.461C303.356 608.645 308.014 604.829 312.672 601.013" stroke="#F4719C" stroke-width="37" stroke-linecap="round"/>
<path d="M172.36 586.006C194.177 564.659 218.043 567.456 242.931 570.648C260.068 572.846 277.206 575.044 294.343 577.242" stroke="#F4719C" stroke-width="37" stroke-linecap="round"/>
<path d="M118.074 603.495C145.507 579.096 175.288 582.61 206.34 586.592C227.723 589.335 249.106 592.077 270.489 594.819" stroke="#F4719C" stroke-width="37" stroke-linecap="round"/>
<path d="M-142.517 539.011C-142.517 539.011 -101.201 590.25 -67.1436 608.816C-22.2364 633.298 11.803 629.24 52.6607 624.201C93.5185 619.163 128.024 596.861 180.748 609.974C228.527 621.857 262.581 643.852 296.619 676.638" stroke="#F4719C"/>
<path d="M-39.4258 557.973C-39.4258 557.973 -3.48612 607.441 27.2863 626.775C67.862 652.268 99.7138 651.106 137.954 649.558C176.194 648.011 209.364 630.356 257.759 646.128C301.616 660.421 332.219 682.86 362.285 715.073" stroke="#FCB44E" stroke-width="39"/>
<path d="M-46.1319 555.15C-46.1319 555.15 3.69971 607.178 42.0012 623.561C92.5044 645.162 128.134 636.215 170.881 625.287C213.627 614.358 247.613 584.922 305.074 592.783C357.146 599.907 395.846 620.129 435.794 652.437" stroke="#FCB44E" stroke-width="27"/>
<path d="M239.981 618.375C243.497 619.445 247.947 622.092 251.337 621.595C252.922 621.363 254.43 621.283 255.992 620.912C262.569 619.354 268.897 617.41 276.195 617.901C282.911 618.354 289.152 620.029 295.882 622.458C302.089 624.697 307.847 626.475 313.97 626.665C320.363 626.864 326.193 625.382 332.815 626.4C334.935 626.725 337.081 626.712 339.199 627.191C341.374 627.683 343.471 628.566 345.635 629.116C346.973 629.456 359.803 633.384 359.771 634.661C359.708 637.21 356.096 639.382 354.331 640.215C350.846 641.86 346.9 642.722 342.952 643.356C334.612 644.694 326.869 646.563 317.57 642.769C311.374 640.241 305.177 636.69 299.32 632.967C293.983 629.575 289.047 625.86 283.335 623.612C281.153 622.754 278.201 621.231 275.993 621.091C274.833 621.018 273.764 620.835 275.026 622.151C279.57 626.892 286.616 630.485 292.123 633.245C296.17 635.273 300.217 637.08 304.345 638.592C308.253 640.023 312.32 640.788 316.11 642.922C320.462 645.373 324.113 648.809 328.189 651.811C330.572 653.566 333.428 655.177 335.602 657.245C336.703 658.292 337.417 657.53 338.526 657.097C340.259 656.421 341.962 655.744 343.75 655.226" stroke="#FCB44E" stroke-width="37" stroke-linecap="round"/>
<path d="M229.778 630.907C233.294 631.977 237.744 634.624 241.134 634.127C242.719 633.895 244.227 633.814 245.788 633.444C252.366 631.886 258.694 629.942 265.992 630.433C272.707 630.886 278.948 632.561 285.679 634.99C291.885 637.229 297.643 639.007 303.767 639.197C310.159 639.396 315.989 637.914 322.612 638.932C324.732 639.257 326.877 639.244 328.995 639.723C331.17 640.215 333.268 641.098 335.432 641.648C336.77 641.988 349.6 645.916 349.568 647.193C349.505 649.742 345.893 651.914 344.128 652.747C340.643 654.392 336.696 655.254 332.749 655.888C324.409 657.226 316.665 659.095 307.366 655.301C301.17 652.773 294.974 649.222 289.117 645.499C283.78 642.107 278.844 638.392 273.131 636.144C270.95 635.286 267.998 633.763 265.789 633.623C264.63 633.549 263.561 633.366 264.822 634.683C269.366 639.424 276.413 643.017 281.919 645.777C285.967 647.805 290.014 649.612 294.142 651.123C298.05 652.555 302.117 653.32 305.906 655.454C310.259 657.905 313.909 661.341 317.986 664.343C320.369 666.098 323.225 667.709 325.399 669.777C326.5 670.824 327.214 670.062 328.323 669.629C330.055 668.953 331.759 668.276 333.547 667.758" stroke="#FCB44E" stroke-width="37" stroke-linecap="round"/>
<path d="M248.693 617.354C268.507 597.892 290.44 600.706 313.315 603.895C329.067 606.091 344.818 608.287 360.57 610.483" stroke="#FCB44E" stroke-width="37" stroke-linecap="round"/>
<path d="M199.039 632.939C223.978 610.718 251.347 614.252 279.888 618.231C299.542 620.971 319.195 623.711 338.849 626.45" stroke="#FCB44E" stroke-width="37" stroke-linecap="round"/>
<path d="M-40.7842 570.915C-40.7842 570.915 -2.35454 618.558 29.0892 636.01C70.55 659.022 101.753 655.619 139.205 651.379C176.656 647.138 208.107 626.922 256.63 639.532C300.601 650.959 332.076 671.572 363.643 702.132" stroke="#FCB44E"/>
<path d="M372.758 71.6376C372.758 71.6376 331.698 31.1587 297.915 21.4159C253.369 8.56942 219.663 21.4014 179.206 36.9724C138.749 52.5434 104.628 83.7046 52.3701 84.2208C5.01313 84.6886 -28.7762 71.5233 -62.578 47.5839" stroke="#FCB44E" stroke-width="27"/>
<path d="M110.263 36.5336C107.05 35.8368 103.039 33.7852 99.8752 34.4969C98.3955 34.8299 96.9946 35.0189 95.5312 35.4747C89.3676 37.3943 83.4184 39.643 76.6748 39.7625C70.4693 39.8724 64.7562 38.8382 58.6213 37.1607C52.9645 35.6139 47.7037 34.4494 42.0356 34.7508C36.119 35.0654 30.6513 36.8574 24.5565 36.4484C22.6055 36.3175 20.6158 36.4956 18.6733 36.2259C16.6783 35.9488 14.7717 35.3112 12.7896 34.981C11.5643 34.7769 -0.159946 32.2132 -0.0758927 31.0551C0.0919185 28.743 3.53347 26.4979 5.20497 25.6074C8.5061 23.8488 12.2013 22.7631 15.8876 21.8845C23.676 20.0282 30.9336 17.7379 39.3903 20.4527C45.0253 22.2616 50.6168 24.9971 55.8857 27.9136C60.6873 30.5716 65.1033 33.5526 70.3018 35.1453C72.2872 35.7535 74.9583 36.9039 76.9993 36.8597C78.071 36.8365 79.054 36.9195 77.9411 35.8256C73.9325 31.8853 67.5549 29.1782 62.5693 27.1062C58.9048 25.5833 55.2309 24.2608 51.4695 23.2115C47.9086 22.2182 44.171 21.84 40.7502 20.2017C36.8208 18.3198 33.5846 15.492 29.9349 13.0897C27.8015 11.6854 25.2234 10.4484 23.2968 8.74472C22.3212 7.88202 21.6265 8.62727 20.5801 9.10446C18.945 9.85013 17.3366 10.595 15.6574 11.2024" stroke="#FCB44E" stroke-width="37" stroke-linecap="round"/>
<path d="M120.259 24.4015C117.045 23.7047 113.034 21.6531 109.871 22.3649C108.391 22.6978 106.99 22.8869 105.527 23.3426C99.3631 25.2622 93.414 27.5109 86.6703 27.6304C80.4648 27.7403 74.7517 26.7061 68.6169 25.0286C62.9601 23.4818 57.6993 22.3173 52.0311 22.6187C46.1146 22.9333 40.6469 24.7254 34.552 24.3163C32.601 24.1854 30.6114 24.3635 28.6689 24.0938C26.6739 23.8168 24.7673 23.1792 22.7852 22.8489C21.5598 22.6448 9.8356 20.0811 9.91965 18.923C10.0875 16.6109 13.529 14.3658 15.2005 13.4754C18.5016 11.7167 22.1968 10.631 25.8832 9.75241C33.6716 7.8961 40.9291 5.60584 49.3858 8.32061C55.0208 10.1296 60.6123 12.865 65.8812 15.7815C70.6829 18.4395 75.0988 21.4205 80.2974 23.0132C82.2827 23.6215 84.9538 24.7718 86.9948 24.7276C88.0665 24.7044 89.0495 24.7874 87.9367 23.6935C83.928 19.7532 77.5504 17.0461 72.5648 14.9741C68.9004 13.4512 65.2265 12.1287 61.4651 11.0795C57.9041 10.0862 54.1665 9.70795 50.7457 8.06964C46.8163 6.18775 43.5801 3.35987 39.9305 0.957603C37.797 -0.446658 35.2189 -1.68365 33.2923 -3.38736C32.3168 -4.25006 31.622 -3.50481 30.5756 -3.02762C28.9405 -2.28195 27.3322 -1.53712 25.6529 -0.929723" stroke="#FCB44E" stroke-width="37" stroke-linecap="round"/>
<path d="M12.2978 -1.65223C11.6953 -0.908219 11.0358 -0.221129 10.4249 0.494464C10.1333 0.836045 10.006 1.24862 9.67765 1.56769C9.24125 1.99177 8.88471 2.45513 8.41799 2.85236C7.29018 3.81226 6.01294 4.51626 4.69448 5.20171C4.14206 5.4889 3.59052 5.93729 3.00257 6.14376C2.5425 6.30532 2.05822 6.89177 1.58204 6.92164" stroke="#FCB44E" stroke-width="37" stroke-linecap="round"/>
<path d="M6.63232 1.83237C7.0496 13.9566 1.43347 18.8732 -4.48693 23.9122C-8.56373 27.3821 -12.6405 30.852 -16.7173 34.3218" stroke="#FCB44E" stroke-width="37" stroke-linecap="round"/>
<path d="M102.144 38.1314C82.9427 57.2791 62.7323 56.4278 41.6657 55.3103C27.1593 54.5408 12.6528 53.7713 -1.85374 53.0017" stroke="#FCB44E" stroke-width="37" stroke-linecap="round"/>
<path d="M148.838 20.1849C124.768 42.2263 99.5503 41.1439 73.2653 39.7496C55.1653 38.7894 37.0654 37.8293 18.9655 36.8692" stroke="#FCB44E" stroke-width="37" stroke-linecap="round"/>
<path d="M368.477 57.7811C368.477 57.7811 334.9 17.6289 306.503 4.26351C269.059 -13.3597 239.989 -7.86665 205.092 -1.13242C170.195 5.60181 140.175 26.3328 95.7386 18.6711C55.4702 11.7279 27.1798 -4.49567 -0.769207 -29.716" stroke="#FCB44E"/>
<path d="M366.663 69.6002C366.663 69.6002 335.472 27.604 307.777 12.4836C271.26 -7.45365 241.686 -3.93901 206.174 0.418823C170.661 4.77665 139.157 23.3216 94.9748 12.788C54.9361 3.24229 27.5318 -14.7021 1.04533 -41.5352" stroke="#F4719C" stroke-width="39"/>
</svg>
