<svg width="20" height="22" viewBox="0 0 20 22" fill="none" xmlns="http://www.w3.org/2000/svg">
<g id="Interface essential/Magnifier ">
<path id="Icon" fill-rule="evenodd" clip-rule="evenodd" d="M3.3848 6.86472C4.5733 3.79946 7.35801 1.7993 10.4495 1.79043C13.787 1.7689 16.7557 4.06411 17.7961 7.47031C18.8365 10.8765 17.7105 14.6146 15.0097 16.7207C12.3089 18.8269 8.65108 18.8194 5.95778 16.7022L3.56612 19.271C3.3221 19.5328 2.9268 19.5328 2.68278 19.271C2.43907 19.0089 2.43907 18.5843 2.68278 18.3222L5.00778 15.825C2.83604 13.4619 2.1963 9.92998 3.3848 6.86472ZM12.3834 7.19806C12.5867 7.72062 13.0638 8.05949 13.5911 8.05587C14.3045 8.05587 14.8828 7.43473 14.8828 6.66852C14.8862 6.10216 14.5707 5.58971 14.0841 5.3713C13.5976 5.15289 13.0364 5.27178 12.6636 5.67227C12.2907 6.07275 12.18 6.67549 12.3834 7.19806Z" fill="white"/>
</g>
</svg>
