<svg width="20" height="18" viewBox="0 0 20 18" fill="none" xmlns="http://www.w3.org/2000/svg">
<g id="Interface essential/Book">
<g id="Icon">
<path d="M16.8833 10.5929V4.82145C16.8833 3.34212 15.4842 2.14288 13.7583 2.14288H6.45834C4.73245 2.14288 3.33334 3.34212 3.33334 4.82145V12.35C3.33334 13.6163 4.53098 14.6429 6.00834 14.6429H16.2583C16.6035 14.6429 16.8833 14.403 16.8833 14.1072C16.8833 13.8113 16.6035 13.5715 16.2583 13.5715H6.00834C5.22134 13.5715 4.58334 13.0246 4.58334 12.35C4.58334 11.6755 5.22134 11.1286 6.00834 11.1286H16.2583C16.6035 11.1286 16.8833 10.8888 16.8833 10.5929Z" fill="white"/>
<path d="M6.00834 11.8143C5.66316 11.8143 5.38334 12.0542 5.38334 12.35C5.38334 12.6459 5.66316 12.8857 6.00834 12.8857H15.2333C15.5785 12.8857 15.8583 12.6459 15.8583 12.35C15.8583 12.0542 15.5785 11.8143 15.2333 11.8143H6.00834Z" fill="white"/>
</g>
</g>
</svg>
