<svg width="20" height="20" viewBox="0 0 20 20" fill="none" xmlns="http://www.w3.org/2000/svg">
<path d="M10.15 9.45836C11.5146 9.45855 12.6273 8.36444 12.65 7.00003V6.06669C12.6501 5.51275 12.4278 4.98197 12.033 4.59343C11.6381 4.20488 11.1039 3.99109 10.55 4.00003H9.75835C8.62022 4.00461 7.70001 4.92855 7.70002 6.06669V7.00003C7.72217 8.34521 8.80491 9.43163 10.15 9.45836Z" fill="white"/>
<path d="M18.9833 13.7584L18.8833 12.5C18.7752 11.8681 18.2327 11.4025 17.5917 11.3917H13.9917C13.9365 11.3831 13.8802 11.3831 13.825 11.3917C13.5056 11.033 13.047 10.8295 12.5667 10.8334H7.74168C7.23304 10.8311 6.75124 11.0613 6.43335 11.4584C6.29719 11.4086 6.15332 11.3832 6.00835 11.3834H2.40835C1.76467 11.3949 1.22119 11.8648 1.11668 12.5L1.01668 13.8C0.932935 14.1987 1.02916 14.614 1.2797 14.9352C1.53024 15.2564 1.90962 15.4509 2.31668 15.4667H6.10835C6.1831 15.4753 6.25859 15.4753 6.33335 15.4667C6.66387 15.8315 7.13275 16.0402 7.62501 16.0417H12.6833C13.1606 16.0394 13.6158 15.8404 13.9417 15.4917H17.6833C18.1052 15.48 18.4986 15.2765 18.7518 14.9389C19.005 14.6013 19.0903 14.1666 18.9833 13.7584Z" fill="white"/>
<path d="M15.8333 10.0917C16.8459 10.0917 17.6667 9.27088 17.6667 8.25836V7.55002C17.6668 7.13383 17.4987 6.73525 17.2005 6.4449C16.9023 6.15456 16.4994 5.99711 16.0833 6.00836H15.5C14.6486 6.00836 13.9583 6.69859 13.9583 7.55002V8.25836C13.9582 8.75189 14.1571 9.22464 14.51 9.56968C14.8628 9.91472 15.3399 10.1029 15.8333 10.0917Z" fill="white"/>
<path d="M4.20835 10.0917C5.22087 10.0917 6.04168 9.27088 6.04168 8.25836V7.55003C6.04168 6.69859 5.35145 6.00836 4.50001 6.00836H3.91668C3.06524 6.00836 2.37501 6.69859 2.37501 7.55003V8.25836C2.37501 9.27088 3.19582 10.0917 4.20835 10.0917Z" fill="white"/>
</svg>
